<svg xmlns="http://www.w3.org/2000/svg" xmlns:xlink="http://www.w3.org/1999/xlink" width="10.62" height="13.23" viewBox="0 0 10.62 13.23"><defs><clipPath id="a" transform="translate(-0.72)"><path d="M5.82,6,7.35,7.1l.25.55-.06.56.25-.49.07-.08.44-.07,1,.21h.34L9.88,8,8.05,11.28,5.68,13.64a41.17,41.17,0,0,1-4.21-.11A11.42,11.42,0,0,1,0,11.84a8.64,8.64,0,0,1,.57-1c.06,0,1.6-1.18,1.67-1.22l2.61-.85.26-2.48Z" fill="none"/></clipPath></defs><title>Ресурс 7</title><path d="M8.74,7c.52-.17,2.51,0,2.59,1.82a5.46,5.46,0,0,1-1.06-1.11,3.44,3.44,0,0,0-1.85.18C7.19,8.31,8.74,7,8.74,7Z" transform="translate(-0.72)" fill="#fff1ab"/><path d="M11.19,8.83a3.46,3.46,0,0,1-1.14,2.46,8.51,8.51,0,0,1,.34-2,2.32,2.32,0,0,0,0-1.37A1.05,1.05,0,0,1,11.19,8.83Z" transform="translate(-0.72)" fill="#ffa700"/><path d="M9,7.59a6.83,6.83,0,0,1,1.3.14h0a1.3,1.3,0,0,1,1,1.58,3.56,3.56,0,0,1-1.24,2,0,0,0,0,1,0,0,3.46,3.46,0,0,0,1.14-2.46,1,1,0,0,0-.79-.93,11.79,11.79,0,0,0-1.34-.13Z" transform="translate(-0.72)" fill="#ffc210"/><path d="M8.78.11c1,1.38.81,4.79.18,6.7-2,6.2-5.88,5.89-7.36,5.1.43.89,5.5,2.83,7.93-4.62C10.26,5.09,10.41.87,8.78.11Z" transform="translate(-0.72)" fill="#ffe7a4"/><path d="M8.56,6.62c.62-1.87.82-5.18-.13-6.61H8.28c-1.6.18-.6,3.9-1.35,6.16-.46,1.55-1.56,3.37-2.81,3.9s-2.56.85-2.55,1.73a.22.22,0,0,0,0,.11C3.28,12.52,6.7,12.33,8.56,6.62Z" transform="translate(-0.72)" fill="#fff4cb"/><path d="M8.78.11a.86.86,0,0,0-1,.1c1,.08.91,4.42.29,6.28-1.86,5.72-4.81,6-6.5,5.41h0C3.08,12.7,6.94,13,9,6.81,9.59,4.9,9.79,1.49,8.78.11Z" transform="translate(-0.72)" fill="#ffefb0"/><g clip-path="url(#a)"><path d="M8.51,8.85C5.35,14.26,1.86,12.77.78,12.1a.24.24,0,0,0,0,.18c.13.14,4.33,3.39,8.07-3,2.52-4.88.75-7.83-.14-8.58C9.66,1.85,10.69,4.62,8.51,8.85Z" transform="translate(-0.72)" fill="#ffa700"/><path d="M8.51,8.85c2.18-4.23,1.15-7,.25-8.16A.78.78,0,0,0,8.45.5a1.17,1.17,0,0,0-.92.16,2.19,2.19,0,0,0-.67,2.18,11,11,0,0,1-.65,3.5,1,1,0,0,1,.2,1.17,8,8,0,0,1-2.76,2.8C1.82,11.32.89,11.5.86,11.67a1.83,1.83,0,0,0-.08.43C1.86,12.77,5.35,14.26,8.51,8.85Z" transform="translate(-0.72)" fill="#ffc210"/><path d="M.94,12.05A6.74,6.74,0,0,0,6.55,9.62,7.62,7.62,0,0,0,7.91,1.76C7.62,1,6.64.81,6.86,2.84c.13,1.23-1.8,3-.65,3.5.51.23.57,1-.16,1.91A9.77,9.77,0,0,1,1,11.56C.85,11.62.69,11.82.94,12.05Z" transform="translate(-0.72)" fill="#ffea4d"/><path d="M1,11.63c0-.08-.18,0-.21,0a1.12,1.12,0,0,0-.09.45c0,.12.06.18.13.18S1,12.09,1,12A.57.57,0,0,0,1,11.63Z" transform="translate(-0.72)" fill="#7c4915"/></g><path d="M8.3,7.64C8.62,8,8.24,9.35,8,10.08c-.46,1.32-.85,1.69-.86,2.13-.07-.12,0-.33.11-.63.64-1.2,1.31-3.58,1-3.85-.1-.08-.33-.21-.71.49,0,0,0,0,0,0s.2-.52.41-.64A.32.32,0,0,1,8.3,7.64Z" transform="translate(-0.72)" fill="#ffea4d"/><path d="M9.49,7.64c.45.22.86.89.16,2.66s-2.24,2.36-2.53,1.91c0-.44.4-.81.86-2.13.26-.73.63-2.09.32-2.44a.33.33,0,0,0-.41-.06C8.26,7.22,9.05,7.42,9.49,7.64Z" transform="translate(-0.72)" fill="#fff4cb"/><path d="M9.36,7.58c.35.15.74.75.27,2.12s-1.42,2.18-1.82,1.9c-.17-.21.26-1.12.57-2.14.17-.56.29-1.63,0-1.88-.08-.09-.24-.18-.35-.11C8.35,7.24,9,7.43,9.36,7.58Z" transform="translate(-0.72)" fill="#ffefb0"/><path d="M3.58,6.4a4.17,4.17,0,0,1,2.91-.11,1.65,1.65,0,0,1,1,1.93c0-.92-1.44-3.94-6.09,0-.05,0-.09,0-.12,0A6.57,6.57,0,0,1,3.58,6.4Z" transform="translate(-0.72)" fill="#ffc210"/><path d="M3.58,6.4a4.14,4.14,0,0,1,2.9-.1A1.8,1.8,0,0,1,7.54,8.21,1.82,1.82,0,0,0,6.42,6.34a4.13,4.13,0,0,0-2.9.16,8.33,8.33,0,0,0-2.2,1.78C1.47,7.73,3,6.66,3.58,6.4Z" transform="translate(-0.72)" fill="#ffea4d"/><path d="M6.48,6.3a4.14,4.14,0,0,0-2.9.1A6.57,6.57,0,0,0,1.32,8.28c-.05,0-.05-.16,0-.33A3,3,0,0,1,2.39,6.84,8.36,8.36,0,0,1,3.7,6a3.12,3.12,0,0,1,2.7.07A1.93,1.93,0,0,1,7.6,8c0,.06,0,.12,0,.18v0A1.82,1.82,0,0,0,6.48,6.3Z" transform="translate(-0.72)" fill="#ffefb0"/></svg>