<svg xmlns="http://www.w3.org/2000/svg" xmlns:xlink="http://www.w3.org/1999/xlink" width="11.05" height="9.95" viewBox="0 0 11.05 9.95"><defs><clipPath id="a" transform="translate(0.11 0.03)"><path d="M1.07.18c.12.33-.19.55.5,1,.51.31,2.36-.1,4.23,1.05A7.26,7.26,0,0,1,8.82,5a9.85,9.85,0,0,1,1.27,2.92,1.49,1.49,0,0,0,.62,1.2.5.5,0,0,1-.41.74,1.18,1.18,0,0,0-.84-.1A8.36,8.36,0,0,1,4.07,8.45C2.18,7,.4,5.08.59,3.21c.11-1-.3-1.35-.51-2a1.28,1.28,0,0,1,0-1Z" fill="none"/></clipPath><clipPath id="b" transform="translate(0.11 0.03)"><path d="M1.1.17a.54.54,0,0,1,0,.17c0,.08,0,.09,0,.12A.5.5,0,0,1,.84.69a.9.9,0,0,1-.53,0C.08.68,0,.53,0,.46a1,1,0,0,1,0-.25A7.12,7.12,0,0,1,1.1.17Z" fill="none"/></clipPath><clipPath id="c" transform="translate(0.11 0.03)"><path d="M1.1.29c0-.15,0-.22-.2-.27S.06,0,.08.25.24.61.52.6A.62.62,0,0,0,1.1.29Z" fill="none"/></clipPath><clipPath id="d" transform="translate(0.11 0.03)"><path d="M10,8.41a4.12,4.12,0,0,0-.6-1.94,16.84,16.84,0,0,0-1.89-2.7A15.64,15.64,0,0,0,5.37,2.28a4.32,4.32,0,0,0-1.64-.61c-.53,0-1.46-.13-1.72-.19a.94.94,0,0,1-.52-.25A2,2,0,0,1,1.18.9L1.09.74a.61.61,0,0,0,.26.44,1.38,1.38,0,0,0,1.08.42,5.84,5.84,0,0,1,2.7.63A15.25,15.25,0,0,1,7.44,3.94,8.77,8.77,0,0,1,8.29,5c.17.24.87,1.31,1,1.55A4.92,4.92,0,0,1,10,8.41Z" fill="none"/></clipPath><clipPath id="e" transform="translate(0.11 0.03)"><path d="M2.07,1.64A16.44,16.44,0,0,1,4.22,2,9.61,9.61,0,0,1,6.14,3.06,12.66,12.66,0,0,1,7.91,4.73a15.48,15.48,0,0,1,1.33,2A5.28,5.28,0,0,1,9.77,8a1.05,1.05,0,0,0,.27.67,1.21,1.21,0,0,0,.34.32s-.48-.19-.57-.56a5,5,0,0,0-.39-1.21c-.19-.37-.75-1.22-1-1.65A10.48,10.48,0,0,0,7.05,4,12.52,12.52,0,0,0,5.2,2.58,3.86,3.86,0,0,0,3.78,2C3.28,1.89,2.13,1.69,2.07,1.64Z" fill="none"/></clipPath><clipPath id="f" transform="translate(0.11 0.03)"><path d="M1.11,1A2.18,2.18,0,0,0,2.74,2.1a9.58,9.58,0,0,1,3.85,2,12.14,12.14,0,0,1,2.7,3.37c.36.85.37,1.14.67,1.42a2.3,2.3,0,0,0,.53.41,1.25,1.25,0,0,1-.76-.63A12.29,12.29,0,0,0,8.66,6.57,13.42,13.42,0,0,0,6,3.74,13.82,13.82,0,0,0,3.32,2.38a6.26,6.26,0,0,1-1.7-.66C1.15,1.29,1.11,1,1.11,1Z" fill="none" clip-rule="evenodd"/></clipPath><clipPath id="g" transform="translate(0.11 0.03)"><path d="M.86.93A3.6,3.6,0,0,0,2.1,2.38C3,2.94,5.16,4.23,6.34,5.14a12,12,0,0,1,2.5,2.51,14.91,14.91,0,0,0,.8,1.28,1.67,1.67,0,0,0,.53.36.81.81,0,0,1-.66-.38A16.74,16.74,0,0,0,8.25,7.08,20.17,20.17,0,0,0,5.1,4.39c-.73-.45-2-1.27-2.53-1.59S1,1.75.86.93Z" fill="none" clip-rule="evenodd"/></clipPath><clipPath id="h" transform="translate(0.11 0.03)"><path d="M.76,1.16S1.13,2.28,3.44,4s3.67,2.6,4.49,3.39A22.53,22.53,0,0,1,9.48,9.06a.75.75,0,0,0,.27.21,1.55,1.55,0,0,1-.48-.38A22.61,22.61,0,0,0,7.05,6.82C6.2,6.17,3.93,4.52,3,3.74A6.57,6.57,0,0,1,.76,1.16Z" fill="none" clip-rule="evenodd"/></clipPath><clipPath id="i" transform="translate(0.11 0.03)"><path d="M2.25,2.14A19.76,19.76,0,0,1,5.62,3.92,10.32,10.32,0,0,1,8.38,6.54a6.59,6.59,0,0,1,.84,1.34c.11.25.24.52.24.52a10.41,10.41,0,0,1-.58-1A8.85,8.85,0,0,0,6.72,4.88,26,26,0,0,0,3.47,2.76C2.92,2.5,2.25,2.14,2.25,2.14Z" fill="none" clip-rule="evenodd"/></clipPath><clipPath id="j" transform="translate(0.11 0.03)"><path d="M2.39,2.87S4.5,4.33,5.62,5.07A14.21,14.21,0,0,1,8.19,7.25a3.82,3.82,0,0,1,.61.84,8.13,8.13,0,0,0-2-2C5.4,5,3.59,3.89,2.39,2.87Z" fill="none" clip-rule="evenodd"/></clipPath><clipPath id="k" transform="translate(0.11 0.03)"><path d="M.19,1.15A3.46,3.46,0,0,1,.68,2.36a5,5,0,0,0,.84,3.3A11.46,11.46,0,0,0,7,9.27a14.32,14.32,0,0,0,2.42.41A17.24,17.24,0,0,1,6,8.87,11.2,11.2,0,0,1,1.6,5.54,6.76,6.76,0,0,1,.77,2.26,3.75,3.75,0,0,0,.19,1.15Z" fill="none" clip-rule="evenodd"/></clipPath><clipPath id="l" transform="translate(0.11 0.03)"><path d="M2.23,5.48A9.7,9.7,0,0,1,1,2.86,5.91,5.91,0,0,0,2.59,6.19,16,16,0,0,0,8,9.18a9.72,9.72,0,0,0,1.48.41A21,21,0,0,1,4.53,7.41,8.42,8.42,0,0,1,2.23,5.48Z" fill="none" clip-rule="evenodd"/></clipPath><clipPath id="m" transform="translate(0.11 0.03)"><path d="M.67,1.62s.45,1.21.76,2A11.41,11.41,0,0,0,5.48,7.65,25.64,25.64,0,0,0,9.22,9.32c.44.18.74.16.87.23a1.84,1.84,0,0,0,.3.14,1.88,1.88,0,0,0-.49-.26A19.52,19.52,0,0,1,6.7,8.14,16.4,16.4,0,0,1,2.57,5.05,14.71,14.71,0,0,1,.67,1.62Z" fill="none" clip-rule="evenodd"/></clipPath><clipPath id="n" transform="translate(0.11 0.03)"><path d="M.61,1.24s.76,1.27,1.17,2.07A13.45,13.45,0,0,0,6.33,7.49C8.62,8.76,9.24,9,9.24,9S6.46,7.47,5.29,6.68A20.8,20.8,0,0,1,1.76,3.11,14.27,14.27,0,0,0,.61,1.24Z" fill="none" clip-rule="evenodd"/></clipPath><clipPath id="o" transform="translate(0.11 0.03)"><path d="M2.09,3.23S4.69,5.59,6,6.51,8.27,8.22,8.27,8.22s-2-1.34-2.85-2A26,26,0,0,1,2.09,3.23Z" fill="none" clip-rule="evenodd"/></clipPath></defs><title>Ресурс 28</title><g clip-path="url(#a)"><polygon points="11.05 0.77 1.18 0.2 11.05 0.2 11.05 0.77" fill="#c0c082"/><polygon points="11.05 1.33 0 0.69 0 0.2 1.18 0.2 11.05 0.77 11.05 1.33" fill="#c0c082"/><polygon points="11.05 1.46 0 0.82 0 0.69 11.05 1.33 11.05 1.46" fill="#c0c082"/><polygon points="11.05 1.59 0 0.95 0 0.82 11.05 1.46 11.05 1.59" fill="#c0bf81"/><polygon points="11.05 1.72 0 1.09 0 0.95 11.05 1.59 11.05 1.72" fill="#bfbf80"/><polygon points="11.05 1.85 0 1.22 0 1.09 11.05 1.72 11.05 1.85" fill="#bfbe7f"/><polygon points="11.05 1.98 0 1.35 0 1.22 11.05 1.85 11.05 1.98" fill="#bebd7e"/><polygon points="11.05 2.11 0 1.48 0 1.35 11.05 1.98 11.05 2.11" fill="#bebd7d"/><polygon points="11.05 2.24 0 1.61 0 1.48 11.05 2.11 11.05 2.24" fill="#bebc7c"/><polygon points="11.05 2.38 0 1.74 0 1.61 11.05 2.24 11.05 2.38" fill="#bdbb7b"/><polygon points="11.05 2.51 0 1.87 0 1.74 11.05 2.38 11.05 2.51" fill="#bdbb7a"/><polygon points="11.05 2.64 0 2 0 1.87 11.05 2.51 11.05 2.64" fill="#bcba79"/><polygon points="11.05 2.77 0 2.13 0 2 11.05 2.64 11.05 2.77" fill="#bcb978"/><polygon points="11.05 2.9 0 2.27 0 2.13 11.05 2.77 11.05 2.9" fill="#bcb977"/><polygon points="11.05 3.03 0 2.4 0 2.27 11.05 2.9 11.05 3.03" fill="#bbb876"/><polygon points="11.05 3.16 0 2.53 0 2.4 11.05 3.03 11.05 3.16" fill="#bbb775"/><polygon points="11.05 3.29 0 2.66 0 2.53 11.05 3.16 11.05 3.29" fill="#bab774"/><polygon points="11.05 3.42 0 2.79 0 2.66 11.05 3.29 11.05 3.42" fill="#bab673"/><polygon points="11.05 3.55 0 2.92 0 2.79 11.05 3.42 11.05 3.55" fill="#bab572"/><polygon points="11.05 3.69 0 3.05 0 2.92 11.05 3.55 11.05 3.69" fill="#b9b471"/><polygon points="11.05 3.82 0 3.18 0 3.05 11.05 3.69 11.05 3.82" fill="#b9b470"/><polygon points="11.05 3.95 0 3.31 0 3.18 11.05 3.82 11.05 3.95" fill="#b8b36f"/><polygon points="11.05 4.08 0 3.44 0 3.31 11.05 3.95 11.05 4.08" fill="#b8b26e"/><polygon points="11.05 4.21 0 3.57 0 3.44 11.05 4.08 11.05 4.21" fill="#b8b26d"/><polygon points="11.05 4.34 0 3.71 0 3.57 11.05 4.21 11.05 4.34" fill="#b7b16c"/><polygon points="11.05 4.47 0 3.84 0 3.71 11.05 4.34 11.05 4.47" fill="#b7b06b"/><polygon points="11.05 4.6 0 3.97 0 3.84 11.05 4.47 11.05 4.6" fill="#b6b06a"/><polygon points="11.05 4.73 0 4.1 0 3.97 11.05 4.6 11.05 4.73" fill="#b6af69"/><polygon points="11.05 4.86 0 4.23 0 4.1 11.05 4.73 11.05 4.86" fill="#b6ae68"/><polygon points="11.05 4.99 0 4.36 0 4.23 11.05 4.86 11.05 4.99" fill="#b5ae67"/><polygon points="11.05 5.13 0 4.49 0 4.36 11.05 4.99 11.05 5.13" fill="#b5ad66"/><polygon points="11.05 5.26 0 4.62 0 4.49 11.05 5.13 11.05 5.26" fill="#b4ac65"/><polygon points="11.05 5.39 0 4.75 0 4.62 11.05 5.26 11.05 5.39" fill="#b4ac64"/><polygon points="11.05 5.52 0 4.88 0 4.75 11.05 5.39 11.05 5.52" fill="#b4ab62"/><polygon points="11.05 5.65 0 5.01 0 4.88 11.05 5.52 11.05 5.65" fill="#b3aa61"/><polygon points="11.05 5.78 0 5.14 0 5.01 11.05 5.65 11.05 5.78" fill="#b3aa60"/><polygon points="11.05 5.91 0 5.28 0 5.14 11.05 5.78 11.05 5.91" fill="#b2a95f"/><polygon points="11.05 6.04 0 5.41 0 5.28 11.05 5.91 11.05 6.04" fill="#b2a85e"/><polygon points="11.05 6.17 0 5.54 0 5.41 11.05 6.04 11.05 6.17" fill="#b2a85d"/><polygon points="11.05 6.3 0 5.67 0 5.54 11.05 6.17 11.05 6.3" fill="#b1a75c"/><polygon points="11.05 6.43 0 5.8 0 5.67 11.05 6.3 11.05 6.43" fill="#b1a65b"/><polygon points="11.05 6.57 0 5.93 0 5.8 11.05 6.43 11.05 6.57" fill="#b0a65a"/><polygon points="11.05 6.7 0 6.06 0 5.93 11.05 6.57 11.05 6.7" fill="#b0a559"/><polygon points="11.05 6.83 0 6.19 0 6.06 11.05 6.7 11.05 6.83" fill="#b0a458"/><polygon points="11.05 6.96 0 6.32 0 6.19 11.05 6.83 11.05 6.96" fill="#afa457"/><polygon points="11.05 7.09 0 6.45 0 6.32 11.05 6.96 11.05 7.09" fill="#afa356"/><polygon points="11.05 7.22 0 6.58 0 6.45 11.05 7.09 11.05 7.22" fill="#aea255"/><polygon points="11.05 7.35 0 6.72 0 6.58 11.05 7.22 11.05 7.35" fill="#aea254"/><polygon points="11.05 7.48 0 6.85 0 6.72 11.05 7.35 11.05 7.48" fill="#aea153"/><polygon points="11.05 7.61 0 6.98 0 6.85 11.05 7.48 11.05 7.61" fill="#ada052"/><polygon points="11.05 7.74 0 7.11 0 6.98 11.05 7.61 11.05 7.74" fill="#ad9f51"/><polygon points="11.05 7.87 0 7.24 0 7.11 11.05 7.74 11.05 7.87" fill="#ac9f50"/><polygon points="11.05 8.01 0 7.37 0 7.24 11.05 7.87 11.05 8.01" fill="#ac9e4f"/><polygon points="11.05 8.14 0 7.5 0 7.37 11.05 8.01 11.05 8.14" fill="#ac9d4e"/><polygon points="11.05 8.27 0 7.63 0 7.5 11.05 8.14 11.05 8.27" fill="#ab9d4d"/><polygon points="11.05 8.4 0 7.76 0 7.63 11.05 8.27 11.05 8.4" fill="#ab9c4c"/><polygon points="11.05 8.53 0 7.89 0 7.76 11.05 8.4 11.05 8.53" fill="#aa9b4b"/><polygon points="11.05 8.66 0 8.03 0 7.89 11.05 8.53 11.05 8.66" fill="#aa9b4a"/><polygon points="11.05 8.79 0 8.16 0 8.03 11.05 8.66 11.05 8.79" fill="#aa9a49"/><polygon points="11.05 8.92 0 8.29 0 8.16 11.05 8.79 11.05 8.92" fill="#a99948"/><polygon points="11.05 9.05 0 8.42 0 8.29 11.05 8.92 11.05 9.05" fill="#a99947"/><polygon points="11.05 9.18 0 8.55 0 8.42 11.05 9.05 11.05 9.18" fill="#a89846"/><polygon points="11.05 9.31 0 8.68 0 8.55 11.05 9.18 11.05 9.31" fill="#a89745"/><polygon points="11.05 9.45 0 8.81 0 8.68 11.05 9.31 11.05 9.45" fill="#a89744"/><polygon points="11.05 9.58 0 8.94 0 8.81 11.05 9.45 11.05 9.58" fill="#a79643"/><polygon points="11.05 9.71 0 9.07 0 8.94 11.05 9.58 11.05 9.71" fill="#a79542"/><polygon points="11.05 9.84 0 9.2 0 9.07 11.05 9.71 11.05 9.84" fill="#a69541"/><polygon points="10.63 9.95 0 9.34 0 9.2 11.05 9.84 11.05 9.95 10.63 9.95" fill="#a69440"/><polygon points="0 9.34 10.63 9.95 0 9.95 0 9.34" fill="#a69440"/></g><g clip-path="url(#b)"><polygon points="0.14 0.81 0.92 0.82 0.14 0.82 0.14 0.81" fill="#c5a970"/><polygon points="0.14 0.78 1.24 0.8 1.24 0.82 0.92 0.82 0.14 0.81 0.14 0.78" fill="#c5aa71"/><polygon points="0.14 0.76 1.24 0.78 1.24 0.8 0.14 0.78 0.14 0.76" fill="#c6ac71"/><polygon points="0.14 0.74 1.24 0.75 1.24 0.78 0.14 0.76 0.14 0.74" fill="#c6ad72"/><polygon points="0.14 0.71 1.24 0.73 1.24 0.75 0.14 0.74 0.14 0.71" fill="#c7ae73"/><polygon points="0.14 0.69 1.24 0.71 1.24 0.73 0.14 0.71 0.14 0.69" fill="#c8af74"/><polygon points="0.14 0.67 1.24 0.69 1.24 0.71 0.14 0.69 0.14 0.67" fill="#c8b075"/><polygon points="0.14 0.64 1.24 0.66 1.24 0.69 0.14 0.67 0.14 0.64" fill="#c9b176"/><polygon points="0.14 0.62 1.24 0.64 1.24 0.66 0.14 0.64 0.14 0.62" fill="#c9b277"/><polygon points="0.14 0.6 1.24 0.62 1.24 0.64 0.14 0.62 0.14 0.6" fill="#cab378"/><polygon points="0.14 0.57 1.24 0.59 1.24 0.62 0.14 0.6 0.14 0.57" fill="#cbb478"/><polygon points="0.14 0.55 1.24 0.57 1.24 0.59 0.14 0.57 0.14 0.55" fill="#cbb579"/><polygon points="0.14 0.53 1.24 0.55 1.24 0.57 0.14 0.55 0.14 0.53" fill="#ccb67a"/><polygon points="0.14 0.51 1.24 0.52 1.24 0.55 0.14 0.53 0.14 0.51" fill="#ccb77b"/><polygon points="0.14 0.48 1.24 0.5 1.24 0.52 0.14 0.51 0.14 0.48" fill="#cdb87c"/><polygon points="0.14 0.46 1.24 0.48 1.24 0.5 0.14 0.48 0.14 0.46" fill="#ceb97d"/><polygon points="0.14 0.44 1.24 0.46 1.24 0.48 0.14 0.46 0.14 0.44" fill="#ceba7e"/><polygon points="0.14 0.41 1.24 0.43 1.24 0.46 0.14 0.44 0.14 0.41" fill="#cfbb7e"/><polygon points="0.14 0.39 1.24 0.41 1.24 0.43 0.14 0.41 0.14 0.39" fill="#cfbc7f"/><polygon points="0.14 0.37 1.24 0.39 1.24 0.41 0.14 0.39 0.14 0.37" fill="#d0bd80"/><polygon points="0.14 0.34 1.24 0.36 1.24 0.39 0.14 0.37 0.14 0.34" fill="#d0be81"/><polygon points="0.14 0.32 1.24 0.34 1.24 0.36 0.14 0.34 0.14 0.32" fill="#d1bf82"/><polygon points="0.14 0.3 1.24 0.32 1.24 0.34 0.14 0.32 0.14 0.3" fill="#d2c083"/><polygon points="0.14 0.28 1.24 0.29 1.24 0.32 0.14 0.3 0.14 0.28" fill="#d2c184"/><polygon points="0.14 0.25 1.24 0.27 1.24 0.29 0.14 0.28 0.14 0.25" fill="#d3c285"/><polygon points="0.14 0.23 1.24 0.25 1.24 0.27 0.14 0.25 0.14 0.23" fill="#d3c385"/><polygon points="0.14 0.21 1.24 0.23 1.24 0.25 0.14 0.23 0.14 0.21" fill="#d4c486"/><polygon points="0.27 0.19 1.24 0.2 1.24 0.23 0.14 0.21 0.14 0.19 0.27 0.19" fill="#d5c587"/><polygon points="1.24 0.2 0.27 0.19 1.24 0.19 1.24 0.2" fill="#d5c688"/></g><g clip-path="url(#c)"><polygon points="0.17 0.39 0.34 0.64 0.17 0.64 0.17 0.39" fill="#988279"/><polygon points="0.17 0.36 0.35 0.64 0.34 0.64 0.17 0.39 0.17 0.36" fill="#988279"/><polygon points="0.17 0.34 0.37 0.64 0.35 0.64 0.17 0.36 0.17 0.34" fill="#978178"/><polygon points="0.17 0.32 0.38 0.64 0.37 0.64 0.17 0.34 0.17 0.32" fill="#968077"/><polygon points="0.17 0.3 0.4 0.64 0.38 0.64 0.17 0.32 0.17 0.3" fill="#957f76"/><polygon points="0.17 0.28 0.41 0.64 0.4 0.64 0.17 0.3 0.17 0.28" fill="#947e75"/><polygon points="0.17 0.25 0.43 0.64 0.41 0.64 0.17 0.28 0.17 0.25" fill="#937d74"/><polygon points="0.17 0.23 0.44 0.64 0.43 0.64 0.17 0.25 0.17 0.23" fill="#927c74"/><polygon points="0.17 0.21 0.46 0.64 0.44 0.64 0.17 0.23 0.17 0.21" fill="#917b73"/><polygon points="0.17 0.19 0.47 0.64 0.46 0.64 0.17 0.21 0.17 0.19" fill="#907b72"/><polygon points="0.17 0.17 0.48 0.64 0.47 0.64 0.17 0.19 0.17 0.17" fill="#8f7a71"/><polygon points="0.17 0.14 0.5 0.64 0.48 0.64 0.17 0.17 0.17 0.14" fill="#8e7970"/><polygon points="0.17 0.12 0.51 0.64 0.5 0.64 0.17 0.14 0.17 0.12" fill="#8d786f"/><polygon points="0.17 0.1 0.53 0.64 0.51 0.64 0.17 0.12 0.17 0.1" fill="#8c776e"/><polygon points="0.17 0.08 0.54 0.64 0.53 0.64 0.17 0.1 0.17 0.08" fill="#8b766d"/><polygon points="0.17 0.06 0.56 0.64 0.54 0.64 0.17 0.08 0.17 0.06" fill="#8a756c"/><polygon points="0.17 0.03 0.57 0.64 0.56 0.64 0.17 0.06 0.17 0.03" fill="#89746b"/><polygon points="0.17 0.01 0.58 0.64 0.57 0.64 0.17 0.03 0.17 0.01" fill="#88736a"/><polygon points="0.18 0 0.6 0.64 0.58 0.64 0.17 0.01 0.17 0 0.18 0" fill="#877269"/><polygon points="0.2 0 0.61 0.64 0.6 0.64 0.18 0 0.2 0" fill="#867169"/><polygon points="0.21 0 0.63 0.64 0.61 0.64 0.2 0 0.21 0" fill="#857068"/><polygon points="0.22 0 0.64 0.64 0.63 0.64 0.21 0 0.22 0" fill="#846f67"/><polygon points="0.24 0 0.66 0.64 0.64 0.64 0.22 0 0.24 0" fill="#836e66"/><polygon points="0.25 0 0.67 0.64 0.66 0.64 0.24 0 0.25 0" fill="#826d65"/><polygon points="0.27 0 0.69 0.64 0.67 0.64 0.25 0 0.27 0" fill="#816d64"/><polygon points="0.28 0 0.7 0.64 0.69 0.64 0.27 0 0.28 0" fill="#806c63"/><polygon points="0.3 0 0.71 0.64 0.7 0.64 0.28 0 0.3 0" fill="#7f6b62"/><polygon points="0.31 0 0.73 0.64 0.71 0.64 0.3 0 0.31 0" fill="#7e6a61"/><polygon points="0.33 0 0.74 0.64 0.73 0.64 0.31 0 0.33 0" fill="#7d6960"/><polygon points="0.34 0 0.76 0.64 0.74 0.64 0.33 0 0.34 0" fill="#7c685f"/><polygon points="0.35 0 0.77 0.64 0.76 0.64 0.34 0 0.35 0" fill="#7b675e"/><polygon points="0.37 0 0.79 0.64 0.77 0.64 0.35 0 0.37 0" fill="#7a665e"/><polygon points="0.38 0 0.8 0.64 0.79 0.64 0.37 0 0.38 0" fill="#78655d"/><polygon points="0.4 0 0.81 0.64 0.8 0.64 0.38 0 0.4 0" fill="#77645c"/><polygon points="0.41 0 0.83 0.64 0.81 0.64 0.4 0 0.41 0" fill="#76635b"/><polygon points="0.43 0 0.84 0.64 0.83 0.64 0.41 0 0.43 0" fill="#75625a"/><polygon points="0.44 0 0.86 0.64 0.84 0.64 0.43 0 0.44 0" fill="#746159"/><polygon points="0.46 0 0.87 0.64 0.86 0.64 0.44 0 0.46 0" fill="#736058"/><polygon points="0.47 0 0.89 0.64 0.87 0.64 0.46 0 0.47 0" fill="#725f57"/><polygon points="0.48 0 0.9 0.64 0.89 0.64 0.47 0 0.48 0" fill="#715f56"/><polygon points="0.5 0 0.92 0.64 0.9 0.64 0.48 0 0.5 0" fill="#705e55"/><polygon points="0.51 0 0.93 0.64 0.92 0.64 0.5 0 0.51 0" fill="#6f5d54"/><polygon points="0.53 0 0.94 0.64 0.93 0.64 0.51 0 0.53 0" fill="#6e5c53"/><polygon points="0.54 0 0.96 0.64 0.94 0.64 0.53 0 0.54 0" fill="#6d5b53"/><polygon points="0.56 0 0.97 0.64 0.96 0.64 0.54 0 0.56 0" fill="#6c5a52"/><polygon points="0.57 0 0.99 0.64 0.97 0.64 0.56 0 0.57 0" fill="#6b5951"/><polygon points="0.58 0 1 0.64 0.99 0.64 0.57 0 0.58 0" fill="#6a5850"/><polygon points="0.6 0 1.02 0.64 1 0.64 0.58 0 0.6 0" fill="#69574f"/><polygon points="0.61 0 1.03 0.64 1.02 0.64 0.6 0 0.61 0" fill="#68564e"/><polygon points="0.63 0 1.05 0.64 1.03 0.64 0.61 0 0.63 0" fill="#67554d"/><polygon points="0.64 0 1.06 0.64 1.05 0.64 0.63 0 0.64 0" fill="#66544c"/><polygon points="0.66 0 1.07 0.64 1.06 0.64 0.64 0 0.66 0" fill="#65534b"/><polygon points="0.67 0 1.09 0.64 1.07 0.64 0.66 0 0.67 0" fill="#64524a"/><polygon points="0.69 0 1.1 0.64 1.09 0.64 0.67 0 0.69 0" fill="#635149"/><polygon points="0.7 0 1.12 0.64 1.1 0.64 0.69 0 0.7 0" fill="#625148"/><polygon points="0.71 0 1.13 0.64 1.12 0.64 0.7 0 0.71 0" fill="#615048"/><polygon points="0.73 0 1.15 0.64 1.13 0.64 0.71 0 0.73 0" fill="#604f47"/><polygon points="0.74 0 1.16 0.64 1.15 0.64 0.73 0 0.74 0" fill="#5f4e46"/><polygon points="0.76 0 1.18 0.64 1.16 0.64 0.74 0 0.76 0" fill="#5e4d45"/><polygon points="0.77 0 1.19 0.64 1.18 0.64 0.76 0 0.77 0" fill="#5d4c44"/><polygon points="0.79 0 1.2 0.64 1.19 0.64 0.77 0 0.79 0" fill="#5c4b43"/><polygon points="0.8 0 1.22 0.64 1.2 0.64 0.79 0 0.8 0" fill="#5b4a42"/><polygon points="1.22 0.64 0.8 0 1.25 0 1.25 0.64 1.22 0.64" fill="#5b4a42"/></g><g clip-path="url(#d)"><polygon points="1.19 8.37 5.21 8.43 1.19 8.43 1.19 8.37" fill="#c5aa71"/><polygon points="1.19 8.08 10.08 8.22 10.08 8.43 5.21 8.43 1.19 8.37 1.19 8.08" fill="#c6ac71"/><polygon points="1.19 7.79 10.08 7.94 10.08 8.22 1.19 8.08 1.19 7.79" fill="#c6ad72"/><polygon points="1.19 7.51 10.08 7.65 10.08 7.94 1.19 7.79 1.19 7.51" fill="#c7ae73"/><polygon points="1.19 7.22 10.08 7.36 10.08 7.65 1.19 7.51 1.19 7.22" fill="#c8af74"/><polygon points="1.19 6.93 10.08 7.07 10.08 7.36 1.19 7.22 1.19 6.93" fill="#c8b075"/><polygon points="1.19 6.64 10.08 6.79 10.08 7.07 1.19 6.93 1.19 6.64" fill="#c9b176"/><polygon points="1.19 6.36 10.08 6.5 10.08 6.79 1.19 6.64 1.19 6.36" fill="#c9b277"/><polygon points="1.19 6.07 10.08 6.21 10.08 6.5 1.19 6.36 1.19 6.07" fill="#cab378"/><polygon points="1.19 5.78 10.08 5.92 10.08 6.21 1.19 6.07 1.19 5.78" fill="#cbb478"/><polygon points="1.19 5.49 10.08 5.63 10.08 5.92 1.19 5.78 1.19 5.49" fill="#cbb579"/><polygon points="1.19 5.2 10.08 5.35 10.08 5.63 1.19 5.49 1.19 5.2" fill="#ccb67a"/><polygon points="1.19 4.92 10.08 5.06 10.08 5.35 1.19 5.2 1.19 4.92" fill="#ccb77b"/><polygon points="1.19 4.63 10.08 4.77 10.08 5.06 1.19 4.92 1.19 4.63" fill="#cdb87c"/><polygon points="1.19 4.34 10.08 4.49 10.08 4.77 1.19 4.63 1.19 4.34" fill="#ceb97d"/><polygon points="1.19 4.05 10.08 4.2 10.08 4.49 1.19 4.34 1.19 4.05" fill="#ceba7e"/><polygon points="1.19 3.77 10.08 3.91 10.08 4.2 1.19 4.05 1.19 3.77" fill="#cfbb7e"/><polygon points="1.19 3.48 10.08 3.62 10.08 3.91 1.19 3.77 1.19 3.48" fill="#cfbc7f"/><polygon points="1.19 3.19 10.08 3.33 10.08 3.62 1.19 3.48 1.19 3.19" fill="#d0bd80"/><polygon points="1.19 2.9 10.08 3.05 10.08 3.33 1.19 3.19 1.19 2.9" fill="#d0be81"/><polygon points="1.19 2.62 10.08 2.76 10.08 3.05 1.19 2.9 1.19 2.62" fill="#d1bf82"/><polygon points="1.19 2.33 10.08 2.47 10.08 2.76 1.19 2.62 1.19 2.33" fill="#d2c083"/><polygon points="1.19 2.04 10.08 2.18 10.08 2.47 1.19 2.33 1.19 2.04" fill="#d2c184"/><polygon points="1.19 1.75 10.08 1.9 10.08 2.18 1.19 2.04 1.19 1.75" fill="#d3c285"/><polygon points="1.19 1.47 10.08 1.61 10.08 1.9 1.19 1.75 1.19 1.47" fill="#d3c385"/><polygon points="1.19 1.18 10.08 1.32 10.08 1.61 1.19 1.47 1.19 1.18" fill="#d4c486"/><polygon points="1.19 0.89 10.08 1.03 10.08 1.32 1.19 1.18 1.19 0.89" fill="#d5c587"/><polygon points="10.08 1.03 1.19 0.89 1.19 0.77 10.08 0.77 10.08 1.03" fill="#d5c688"/></g><g clip-path="url(#e)"><polygon points="2.19 8.92 5.84 8.97 2.19 8.97 2.19 8.92" fill="#c5aa71"/><polygon points="2.19 8.64 10.49 8.78 10.49 8.97 5.84 8.97 2.19 8.92 2.19 8.64" fill="#c6ac71"/><polygon points="2.19 8.37 10.49 8.5 10.49 8.78 2.19 8.64 2.19 8.37" fill="#c6ad72"/><polygon points="2.19 8.09 10.49 8.23 10.49 8.5 2.19 8.37 2.19 8.09" fill="#c7ae73"/><polygon points="2.19 7.82 10.49 7.95 10.49 8.23 2.19 8.09 2.19 7.82" fill="#c8af74"/><polygon points="2.19 7.54 10.49 7.68 10.49 7.95 2.19 7.82 2.19 7.54" fill="#c8b075"/><polygon points="2.19 7.27 10.49 7.4 10.49 7.68 2.19 7.54 2.19 7.27" fill="#c9b176"/><polygon points="2.19 7 10.49 7.13 10.49 7.4 2.19 7.27 2.19 7" fill="#c9b277"/><polygon points="2.19 6.72 10.49 6.86 10.49 7.13 2.19 7 2.19 6.72" fill="#cab378"/><polygon points="2.19 6.45 10.49 6.58 10.49 6.86 2.19 6.72 2.19 6.45" fill="#cbb478"/><polygon points="2.19 6.17 10.49 6.31 10.49 6.58 2.19 6.45 2.19 6.17" fill="#cbb579"/><polygon points="2.19 5.9 10.49 6.03 10.49 6.31 2.19 6.17 2.19 5.9" fill="#ccb67a"/><polygon points="2.19 5.62 10.49 5.76 10.49 6.03 2.19 5.9 2.19 5.62" fill="#ccb77b"/><polygon points="2.19 5.35 10.49 5.48 10.49 5.76 2.19 5.62 2.19 5.35" fill="#cdb87c"/><polygon points="2.19 5.08 10.49 5.21 10.49 5.48 2.19 5.35 2.19 5.08" fill="#ceb97d"/><polygon points="2.19 4.8 10.49 4.93 10.49 5.21 2.19 5.08 2.19 4.8" fill="#ceba7e"/><polygon points="2.19 4.53 10.49 4.66 10.49 4.93 2.19 4.8 2.19 4.53" fill="#cfbb7e"/><polygon points="2.19 4.25 10.49 4.39 10.49 4.66 2.19 4.53 2.19 4.25" fill="#cfbc7f"/><polygon points="2.19 3.98 10.49 4.11 10.49 4.39 2.19 4.25 2.19 3.98" fill="#d0bd80"/><polygon points="2.19 3.7 10.49 3.84 10.49 4.11 2.19 3.98 2.19 3.7" fill="#d0be81"/><polygon points="2.19 3.43 10.49 3.56 10.49 3.84 2.19 3.7 2.19 3.43" fill="#d1bf82"/><polygon points="2.19 3.16 10.49 3.29 10.49 3.56 2.19 3.43 2.19 3.16" fill="#d2c083"/><polygon points="2.19 2.88 10.49 3.02 10.49 3.29 2.19 3.16 2.19 2.88" fill="#d2c184"/><polygon points="2.19 2.61 10.49 2.74 10.49 3.02 2.19 2.88 2.19 2.61" fill="#d3c285"/><polygon points="2.19 2.33 10.49 2.47 10.49 2.74 2.19 2.61 2.19 2.33" fill="#d3c385"/><polygon points="2.19 2.06 10.49 2.19 10.49 2.47 2.19 2.33 2.19 2.06" fill="#d4c486"/><polygon points="2.19 1.78 10.49 1.92 10.49 2.19 2.19 2.06 2.19 1.78" fill="#d5c587"/><polygon points="10.49 1.92 2.19 1.78 2.19 1.67 10.49 1.67 10.49 1.92" fill="#d5c688"/></g><g clip-path="url(#f)"><polygon points="10.54 9.34 10.6 9.28 10.6 9.34 10.54 9.34" fill="#be9e67"/><polygon points="10.23 9.34 10.6 8.94 10.6 9.28 10.54 9.34 10.23 9.34" fill="#bf9f68"/><polygon points="9.91 9.34 10.6 8.61 10.6 8.94 10.23 9.34 9.91 9.34" fill="#bfa068"/><polygon points="9.6 9.34 10.6 8.28 10.6 8.61 9.91 9.34 9.6 9.34" fill="#c0a169"/><polygon points="9.29 9.34 10.6 7.95 10.6 8.28 9.6 9.34 9.29 9.34" fill="#c1a26a"/><polygon points="8.97 9.34 10.6 7.62 10.6 7.95 9.29 9.34 8.97 9.34" fill="#c1a36b"/><polygon points="8.66 9.34 10.6 7.28 10.6 7.62 8.97 9.34 8.66 9.34" fill="#c2a46c"/><polygon points="8.35 9.34 10.6 6.95 10.6 7.28 8.66 9.34 8.35 9.34" fill="#c2a56d"/><polygon points="8.04 9.34 10.6 6.62 10.6 6.95 8.35 9.34 8.04 9.34" fill="#c3a66e"/><polygon points="7.72 9.34 10.6 6.29 10.6 6.62 8.04 9.34 7.72 9.34" fill="#c4a76e"/><polygon points="7.41 9.34 10.6 5.95 10.6 6.29 7.72 9.34 7.41 9.34" fill="#c4a86f"/><polygon points="7.09 9.34 10.6 5.62 10.6 5.95 7.41 9.34 7.09 9.34" fill="#c5a970"/><polygon points="6.78 9.34 10.6 5.29 10.6 5.62 7.09 9.34 6.78 9.34" fill="#c5aa71"/><polygon points="6.47 9.34 10.6 4.96 10.6 5.29 6.78 9.34 6.47 9.34" fill="#c6ab72"/><polygon points="6.16 9.34 10.6 4.62 10.6 4.96 6.47 9.34 6.16 9.34" fill="#c6ac73"/><polygon points="5.84 9.34 10.6 4.29 10.6 4.62 6.16 9.34 5.84 9.34" fill="#c7ad74"/><polygon points="5.53 9.34 10.6 3.96 10.6 4.29 5.84 9.34 5.53 9.34" fill="#c8ae74"/><polygon points="5.22 9.34 10.6 3.63 10.6 3.96 5.53 9.34 5.22 9.34" fill="#c8af75"/><polygon points="4.9 9.34 10.6 3.29 10.6 3.63 5.22 9.34 4.9 9.34" fill="#c9b076"/><polygon points="4.59 9.34 10.6 2.96 10.6 3.29 4.9 9.34 4.59 9.34" fill="#c9b177"/><polygon points="4.28 9.34 10.6 2.63 10.6 2.96 4.59 9.34 4.28 9.34" fill="#cab278"/><polygon points="3.96 9.34 10.6 2.3 10.6 2.63 4.28 9.34 3.96 9.34" fill="#cbb379"/><polygon points="3.65 9.34 10.6 1.97 10.6 2.3 3.96 9.34 3.65 9.34" fill="#cbb47a"/><polygon points="3.34 9.34 10.6 1.63 10.6 1.97 3.65 9.34 3.34 9.34" fill="#ccb67a"/><polygon points="3.02 9.34 10.6 1.3 10.6 1.63 3.34 9.34 3.02 9.34" fill="#ccb77b"/><polygon points="2.71 9.34 10.53 1.05 10.6 1.05 10.6 1.3 3.02 9.34 2.71 9.34" fill="#cdb87c"/><polygon points="2.4 9.34 10.21 1.05 10.53 1.05 2.71 9.34 2.4 9.34" fill="#ceb97d"/><polygon points="2.08 9.34 9.9 1.05 10.21 1.05 2.4 9.34 2.08 9.34" fill="#ceba7e"/><polygon points="1.77 9.34 9.59 1.05 9.9 1.05 2.08 9.34 1.77 9.34" fill="#cfbb7f"/><polygon points="1.46 9.34 9.27 1.05 9.59 1.05 1.77 9.34 1.46 9.34" fill="#cfbc80"/><polygon points="1.23 9.26 8.96 1.05 9.27 1.05 1.46 9.34 1.23 9.34 1.23 9.26" fill="#d0bd80"/><polygon points="1.23 8.92 8.65 1.05 8.96 1.05 1.23 9.26 1.23 8.92" fill="#d1be81"/><polygon points="1.23 8.59 8.34 1.05 8.65 1.05 1.23 8.92 1.23 8.59" fill="#d1bf82"/><polygon points="1.23 8.26 8.02 1.05 8.34 1.05 1.23 8.59 1.23 8.26" fill="#d2c083"/><polygon points="1.23 7.93 7.71 1.05 8.02 1.05 1.23 8.26 1.23 7.93" fill="#d2c184"/><polygon points="1.23 7.59 7.39 1.05 7.71 1.05 1.23 7.93 1.23 7.59" fill="#d3c285"/><polygon points="1.23 7.26 7.08 1.05 7.39 1.05 1.23 7.59 1.23 7.26" fill="#d3c386"/><polygon points="1.23 6.93 6.77 1.05 7.08 1.05 1.23 7.26 1.23 6.93" fill="#d4c486"/><polygon points="1.23 6.6 6.46 1.05 6.77 1.05 1.23 6.93 1.23 6.6" fill="#d5c587"/><polygon points="1.23 6.26 6.14 1.05 6.46 1.05 1.23 6.6 1.23 6.26" fill="#d5c688"/><polygon points="1.23 5.93 5.83 1.05 6.14 1.05 1.23 6.26 1.23 5.93" fill="#d6c789"/><polygon points="1.23 5.6 5.52 1.05 5.83 1.05 1.23 5.93 1.23 5.6" fill="#d6c88a"/><polygon points="1.23 5.27 5.2 1.05 5.52 1.05 1.23 5.6 1.23 5.27" fill="#d7c98b"/><polygon points="1.23 4.94 4.89 1.05 5.2 1.05 1.23 5.27 1.23 4.94" fill="#d8ca8c"/><polygon points="1.23 4.6 4.58 1.05 4.89 1.05 1.23 4.94 1.23 4.6" fill="#d8cb8c"/><polygon points="1.23 4.27 4.26 1.05 4.58 1.05 1.23 4.6 1.23 4.27" fill="#d9cc8d"/><polygon points="1.23 3.94 3.95 1.05 4.26 1.05 1.23 4.27 1.23 3.94" fill="#d9cd8e"/><polygon points="1.23 3.61 3.64 1.05 3.95 1.05 1.23 3.94 1.23 3.61" fill="#dace8f"/><polygon points="3.64 1.05 1.23 3.61 1.23 1.05 3.64 1.05" fill="#dace8f"/></g><g clip-path="url(#g)"><polygon points="10.2 9.34 10.28 9.26 10.28 9.34 10.2 9.34" fill="#be9e67"/><polygon points="9.89 9.34 10.28 8.92 10.28 9.26 10.2 9.34 9.89 9.34" fill="#bf9f68"/><polygon points="9.57 9.34 10.28 8.59 10.28 8.92 9.89 9.34 9.57 9.34" fill="#bfa068"/><polygon points="9.26 9.34 10.28 8.26 10.28 8.59 9.57 9.34 9.26 9.34" fill="#c0a169"/><polygon points="8.95 9.34 10.28 7.93 10.28 8.26 9.26 9.34 8.95 9.34" fill="#c1a26a"/><polygon points="8.63 9.34 10.28 7.59 10.28 7.93 8.95 9.34 8.63 9.34" fill="#c1a36b"/><polygon points="8.32 9.34 10.28 7.26 10.28 7.59 8.63 9.34 8.32 9.34" fill="#c2a46c"/><polygon points="8.01 9.34 10.28 6.93 10.28 7.26 8.32 9.34 8.01 9.34" fill="#c2a56d"/><polygon points="7.69 9.34 10.28 6.6 10.28 6.93 8.01 9.34 7.69 9.34" fill="#c3a66e"/><polygon points="7.38 9.34 10.28 6.26 10.28 6.6 7.69 9.34 7.38 9.34" fill="#c4a76e"/><polygon points="7.07 9.34 10.28 5.93 10.28 6.26 7.38 9.34 7.07 9.34" fill="#c4a86f"/><polygon points="6.75 9.34 10.28 5.6 10.28 5.93 7.07 9.34 6.75 9.34" fill="#c5a970"/><polygon points="6.44 9.34 10.28 5.27 10.28 5.6 6.75 9.34 6.44 9.34" fill="#c5aa71"/><polygon points="6.13 9.34 10.28 4.94 10.28 5.27 6.44 9.34 6.13 9.34" fill="#c6ab72"/><polygon points="5.82 9.34 10.28 4.6 10.28 4.94 6.13 9.34 5.82 9.34" fill="#c6ac73"/><polygon points="5.5 9.34 10.28 4.27 10.28 4.6 5.82 9.34 5.5 9.34" fill="#c7ad74"/><polygon points="5.19 9.34 10.28 3.94 10.28 4.27 5.5 9.34 5.19 9.34" fill="#c8ae74"/><polygon points="4.88 9.34 10.28 3.61 10.28 3.94 5.19 9.34 4.88 9.34" fill="#c8af75"/><polygon points="4.56 9.34 10.28 3.27 10.28 3.61 4.88 9.34 4.56 9.34" fill="#c9b076"/><polygon points="4.25 9.34 10.28 2.94 10.28 3.27 4.56 9.34 4.25 9.34" fill="#c9b177"/><polygon points="3.94 9.34 10.28 2.61 10.28 2.94 4.25 9.34 3.94 9.34" fill="#cab278"/><polygon points="3.62 9.34 10.28 2.28 10.28 2.61 3.94 9.34 3.62 9.34" fill="#cbb379"/><polygon points="3.31 9.34 10.28 1.95 10.28 2.28 3.62 9.34 3.31 9.34" fill="#cbb47a"/><polygon points="3 9.34 10.28 1.61 10.28 1.95 3.31 9.34 3 9.34" fill="#ccb67a"/><polygon points="2.68 9.34 10.28 1.28 10.28 1.61 3 9.34 2.68 9.34" fill="#ccb77b"/><polygon points="2.37 9.34 10.28 0.95 10.28 0.95 10.28 1.28 2.68 9.34 2.37 9.34" fill="#cdb87c"/><polygon points="2.06 9.34 9.96 0.95 10.28 0.95 2.37 9.34 2.06 9.34" fill="#ceb97d"/><polygon points="1.75 9.34 9.65 0.95 9.96 0.95 2.06 9.34 1.75 9.34" fill="#ceba7e"/><polygon points="1.43 9.34 9.34 0.95 9.65 0.95 1.75 9.34 1.43 9.34" fill="#cfbb7f"/><polygon points="1.12 9.34 9.03 0.95 9.34 0.95 1.43 9.34 1.12 9.34" fill="#cfbc80"/><polygon points="0.98 9.16 8.71 0.95 9.03 0.95 1.12 9.34 0.98 9.34 0.98 9.16" fill="#d0bd80"/><polygon points="0.98 8.83 8.4 0.95 8.71 0.95 0.98 9.16 0.98 8.83" fill="#d1be81"/><polygon points="0.98 8.5 8.09 0.95 8.4 0.95 0.98 8.83 0.98 8.5" fill="#d1bf82"/><polygon points="0.98 8.16 7.77 0.95 8.09 0.95 0.98 8.5 0.98 8.16" fill="#d2c083"/><polygon points="0.98 7.83 7.46 0.95 7.77 0.95 0.98 8.16 0.98 7.83" fill="#d2c184"/><polygon points="0.98 7.5 7.15 0.95 7.46 0.95 0.98 7.83 0.98 7.5" fill="#d3c285"/><polygon points="0.98 7.17 6.83 0.95 7.15 0.95 0.98 7.5 0.98 7.17" fill="#d3c386"/><polygon points="0.98 6.84 6.52 0.95 6.83 0.95 0.98 7.17 0.98 6.84" fill="#d4c486"/><polygon points="0.98 6.5 6.21 0.95 6.52 0.95 0.98 6.84 0.98 6.5" fill="#d5c587"/><polygon points="0.98 6.17 5.89 0.95 6.21 0.95 0.98 6.5 0.98 6.17" fill="#d5c688"/><polygon points="0.98 5.84 5.58 0.95 5.89 0.95 0.98 6.17 0.98 5.84" fill="#d6c789"/><polygon points="0.98 5.51 5.27 0.95 5.58 0.95 0.98 5.84 0.98 5.51" fill="#d6c88a"/><polygon points="0.98 5.17 4.95 0.95 5.27 0.95 0.98 5.51 0.98 5.17" fill="#d7c98b"/><polygon points="0.98 4.84 4.64 0.95 4.95 0.95 0.98 5.17 0.98 4.84" fill="#d8ca8c"/><polygon points="0.98 4.51 4.33 0.95 4.64 0.95 0.98 4.84 0.98 4.51" fill="#d8cb8c"/><polygon points="0.98 4.18 4.01 0.95 4.33 0.95 0.98 4.51 0.98 4.18" fill="#d9cc8d"/><polygon points="0.98 3.85 3.7 0.95 4.01 0.95 0.98 4.18 0.98 3.85" fill="#d9cd8e"/><polygon points="0.98 3.51 3.39 0.95 3.7 0.95 0.98 3.85 0.98 3.51" fill="#dace8f"/><polygon points="3.39 0.95 0.98 3.51 0.98 0.95 3.39 0.95" fill="#dace8f"/></g><g clip-path="url(#h)"><polygon points="9.81 9.3 9.87 9.24 9.87 9.3 9.81 9.3" fill="#be9e67"/><polygon points="9.51 9.3 9.87 8.92 9.87 9.24 9.81 9.3 9.51 9.3" fill="#bf9f68"/><polygon points="9.2 9.3 9.87 8.59 9.87 8.92 9.51 9.3 9.2 9.3" fill="#bfa068"/><polygon points="8.9 9.3 9.87 8.27 9.87 8.59 9.2 9.3 8.9 9.3" fill="#c0a169"/><polygon points="8.6 9.3 9.87 7.95 9.87 8.27 8.9 9.3 8.6 9.3" fill="#c1a26a"/><polygon points="8.29 9.3 9.87 7.63 9.87 7.95 8.6 9.3 8.29 9.3" fill="#c1a36b"/><polygon points="7.99 9.3 9.87 7.31 9.87 7.63 8.29 9.3 7.99 9.3" fill="#c2a46c"/><polygon points="7.69 9.3 9.87 6.99 9.87 7.31 7.99 9.3 7.69 9.3" fill="#c2a56d"/><polygon points="7.38 9.3 9.87 6.67 9.87 6.99 7.69 9.3 7.38 9.3" fill="#c3a66e"/><polygon points="7.08 9.3 9.87 6.34 9.87 6.67 7.38 9.3 7.08 9.3" fill="#c4a76e"/><polygon points="6.78 9.3 9.87 6.02 9.87 6.34 7.08 9.3 6.78 9.3" fill="#c4a86f"/><polygon points="6.47 9.3 9.87 5.7 9.87 6.02 6.78 9.3 6.47 9.3" fill="#c5a970"/><polygon points="6.17 9.3 9.87 5.38 9.87 5.7 6.47 9.3 6.17 9.3" fill="#c5aa71"/><polygon points="5.87 9.3 9.87 5.06 9.87 5.38 6.17 9.3 5.87 9.3" fill="#c6ab72"/><polygon points="5.57 9.3 9.87 4.74 9.87 5.06 5.87 9.3 5.57 9.3" fill="#c6ac73"/><polygon points="5.26 9.3 9.87 4.41 9.87 4.74 5.57 9.3 5.26 9.3" fill="#c7ad74"/><polygon points="4.96 9.3 9.87 4.09 9.87 4.41 5.26 9.3 4.96 9.3" fill="#c8ae74"/><polygon points="4.66 9.3 9.87 3.77 9.87 4.09 4.96 9.3 4.66 9.3" fill="#c8af75"/><polygon points="4.35 9.3 9.87 3.45 9.87 3.77 4.66 9.3 4.35 9.3" fill="#c9b076"/><polygon points="4.05 9.3 9.87 3.13 9.87 3.45 4.35 9.3 4.05 9.3" fill="#c9b177"/><polygon points="3.75 9.3 9.87 2.81 9.87 3.13 4.05 9.3 3.75 9.3" fill="#cab278"/><polygon points="3.44 9.3 9.87 2.48 9.87 2.81 3.75 9.3 3.44 9.3" fill="#cbb379"/><polygon points="3.14 9.3 9.87 2.16 9.87 2.48 3.44 9.3 3.14 9.3" fill="#cbb47a"/><polygon points="2.84 9.3 9.87 1.84 9.87 2.16 3.14 9.3 2.84 9.3" fill="#ccb67a"/><polygon points="2.53 9.3 9.87 1.52 9.87 1.84 2.84 9.3 2.53 9.3" fill="#ccb77b"/><polygon points="2.23 9.3 9.87 1.2 9.87 1.52 2.53 9.3 2.23 9.3" fill="#cdb87c"/><polygon points="1.93 9.3 9.57 1.19 9.87 1.19 9.87 1.2 2.23 9.3 1.93 9.3" fill="#ceb97d"/><polygon points="1.63 9.3 9.27 1.19 9.57 1.19 1.93 9.3 1.63 9.3" fill="#ceba7e"/><polygon points="1.32 9.3 8.96 1.19 9.27 1.19 1.63 9.3 1.32 9.3" fill="#cfbb7f"/><polygon points="1.02 9.3 8.66 1.19 8.96 1.19 1.32 9.3 1.02 9.3" fill="#cfbc80"/><polygon points="0.87 9.13 8.36 1.19 8.66 1.19 1.02 9.3 0.87 9.3 0.87 9.13" fill="#d0bd80"/><polygon points="0.87 8.81 8.06 1.19 8.36 1.19 0.87 9.13 0.87 8.81" fill="#d1be81"/><polygon points="0.87 8.49 7.75 1.19 8.06 1.19 0.87 8.81 0.87 8.49" fill="#d1bf82"/><polygon points="0.87 8.17 7.45 1.19 7.75 1.19 0.87 8.49 0.87 8.17" fill="#d2c083"/><polygon points="0.87 7.85 7.15 1.19 7.45 1.19 0.87 8.17 0.87 7.85" fill="#d2c184"/><polygon points="0.87 7.53 6.84 1.19 7.15 1.19 0.87 7.85 0.87 7.53" fill="#d3c285"/><polygon points="0.87 7.2 6.54 1.19 6.84 1.19 0.87 7.53 0.87 7.2" fill="#d3c386"/><polygon points="0.87 6.88 6.24 1.19 6.54 1.19 0.87 7.2 0.87 6.88" fill="#d4c486"/><polygon points="0.87 6.56 5.93 1.19 6.24 1.19 0.87 6.88 0.87 6.56" fill="#d5c587"/><polygon points="0.87 6.24 5.63 1.19 5.93 1.19 0.87 6.56 0.87 6.24" fill="#d5c688"/><polygon points="0.87 5.92 5.33 1.19 5.63 1.19 0.87 6.24 0.87 5.92" fill="#d6c789"/><polygon points="0.87 5.6 5.02 1.19 5.33 1.19 0.87 5.92 0.87 5.6" fill="#d6c88a"/><polygon points="0.87 5.28 4.72 1.19 5.02 1.19 0.87 5.6 0.87 5.28" fill="#d7c98b"/><polygon points="0.87 4.95 4.42 1.19 4.72 1.19 0.87 5.28 0.87 4.95" fill="#d8ca8c"/><polygon points="0.87 4.63 4.12 1.19 4.42 1.19 0.87 4.95 0.87 4.63" fill="#d8cb8c"/><polygon points="0.87 4.31 3.81 1.19 4.12 1.19 0.87 4.63 0.87 4.31" fill="#d9cc8d"/><polygon points="0.87 3.99 3.51 1.19 3.81 1.19 0.87 4.31 0.87 3.99" fill="#d9cd8e"/><polygon points="0.87 3.67 3.21 1.19 3.51 1.19 0.87 3.99 0.87 3.67" fill="#dace8f"/><polygon points="3.21 1.19 0.87 3.67 0.87 1.19 3.21 1.19" fill="#dace8f"/></g><g clip-path="url(#i)"><polygon points="9.53 8.43 9.58 8.38 9.58 8.43 9.53 8.43" fill="#be9e67"/><polygon points="9.29 8.43 9.58 8.12 9.58 8.38 9.53 8.43 9.29 8.43" fill="#bf9f68"/><polygon points="9.05 8.43 9.58 7.87 9.58 8.12 9.29 8.43 9.05 8.43" fill="#bfa068"/><polygon points="8.81 8.43 9.58 7.62 9.58 7.87 9.05 8.43 8.81 8.43" fill="#c0a169"/><polygon points="8.57 8.43 9.58 7.36 9.58 7.62 8.81 8.43 8.57 8.43" fill="#c1a26a"/><polygon points="8.34 8.43 9.58 7.11 9.58 7.36 8.57 8.43 8.34 8.43" fill="#c1a36b"/><polygon points="8.1 8.43 9.58 6.86 9.58 7.11 8.34 8.43 8.1 8.43" fill="#c2a46c"/><polygon points="7.86 8.43 9.58 6.6 9.58 6.86 8.1 8.43 7.86 8.43" fill="#c2a56d"/><polygon points="7.62 8.43 9.58 6.35 9.58 6.6 7.86 8.43 7.62 8.43" fill="#c3a66e"/><polygon points="7.38 8.43 9.58 6.09 9.58 6.35 7.62 8.43 7.38 8.43" fill="#c4a76e"/><polygon points="7.14 8.43 9.58 5.84 9.58 6.09 7.38 8.43 7.14 8.43" fill="#c4a86f"/><polygon points="6.9 8.43 9.58 5.59 9.58 5.84 7.14 8.43 6.9 8.43" fill="#c5a970"/><polygon points="6.66 8.43 9.58 5.33 9.58 5.59 6.9 8.43 6.66 8.43" fill="#c5aa71"/><polygon points="6.42 8.43 9.58 5.08 9.58 5.33 6.66 8.43 6.42 8.43" fill="#c6ab72"/><polygon points="6.18 8.43 9.58 4.83 9.58 5.08 6.42 8.43 6.18 8.43" fill="#c6ac73"/><polygon points="5.95 8.43 9.58 4.57 9.58 4.83 6.18 8.43 5.95 8.43" fill="#c7ad74"/><polygon points="5.71 8.43 9.58 4.32 9.58 4.57 5.95 8.43 5.71 8.43" fill="#c8ae74"/><polygon points="5.47 8.43 9.58 4.07 9.58 4.32 5.71 8.43 5.47 8.43" fill="#c8af75"/><polygon points="5.23 8.43 9.58 3.81 9.58 4.07 5.47 8.43 5.23 8.43" fill="#c9b076"/><polygon points="4.99 8.43 9.58 3.56 9.58 3.81 5.23 8.43 4.99 8.43" fill="#c9b177"/><polygon points="4.75 8.43 9.58 3.31 9.58 3.56 4.99 8.43 4.75 8.43" fill="#cab278"/><polygon points="4.51 8.43 9.58 3.05 9.58 3.31 4.75 8.43 4.51 8.43" fill="#cbb379"/><polygon points="4.27 8.43 9.58 2.8 9.58 3.05 4.51 8.43 4.27 8.43" fill="#cbb47a"/><polygon points="4.03 8.43 9.58 2.55 9.58 2.8 4.27 8.43 4.03 8.43" fill="#ccb67a"/><polygon points="3.79 8.43 9.58 2.29 9.58 2.55 4.03 8.43 3.79 8.43" fill="#ccb77b"/><polygon points="3.56 8.43 9.46 2.16 9.58 2.16 9.58 2.29 3.79 8.43 3.56 8.43" fill="#cdb87c"/><polygon points="3.32 8.43 9.22 2.16 9.46 2.16 3.56 8.43 3.32 8.43" fill="#ceb97d"/><polygon points="3.08 8.43 8.98 2.16 9.22 2.16 3.32 8.43 3.08 8.43" fill="#ceba7e"/><polygon points="2.84 8.43 8.74 2.16 8.98 2.16 3.08 8.43 2.84 8.43" fill="#cfbb7f"/><polygon points="2.6 8.43 8.5 2.16 8.74 2.16 2.84 8.43 2.6 8.43" fill="#cfbc80"/><polygon points="2.36 8.43 8.26 2.16 8.5 2.16 2.6 8.43 2.36 8.43 2.36 8.43" fill="#d0bd80"/><polygon points="2.36 8.17 8.03 2.16 8.26 2.16 2.36 8.43 2.36 8.17" fill="#d1be81"/><polygon points="2.36 7.92 7.79 2.16 8.03 2.16 2.36 8.17 2.36 7.92" fill="#d1bf82"/><polygon points="2.36 7.67 7.55 2.16 7.79 2.16 2.36 7.92 2.36 7.67" fill="#d2c083"/><polygon points="2.36 7.41 7.31 2.16 7.55 2.16 2.36 7.67 2.36 7.41" fill="#d2c184"/><polygon points="2.36 7.16 7.07 2.16 7.31 2.16 2.36 7.41 2.36 7.16" fill="#d3c285"/><polygon points="2.36 6.91 6.83 2.16 7.07 2.16 2.36 7.16 2.36 6.91" fill="#d3c386"/><polygon points="2.36 6.65 6.59 2.16 6.83 2.16 2.36 6.91 2.36 6.65" fill="#d4c486"/><polygon points="2.36 6.4 6.35 2.16 6.59 2.16 2.36 6.65 2.36 6.4" fill="#d5c587"/><polygon points="2.36 6.14 6.11 2.16 6.35 2.16 2.36 6.4 2.36 6.14" fill="#d5c688"/><polygon points="2.36 5.89 5.87 2.16 6.11 2.16 2.36 6.14 2.36 5.89" fill="#d6c789"/><polygon points="2.36 5.64 5.63 2.16 5.87 2.16 2.36 5.89 2.36 5.64" fill="#d6c88a"/><polygon points="2.36 5.38 5.4 2.16 5.63 2.16 2.36 5.64 2.36 5.38" fill="#d7c98b"/><polygon points="2.36 5.13 5.16 2.16 5.4 2.16 2.36 5.38 2.36 5.13" fill="#d8ca8c"/><polygon points="2.36 4.88 4.92 2.16 5.16 2.16 2.36 5.13 2.36 4.88" fill="#d8cb8c"/><polygon points="2.36 4.62 4.68 2.16 4.92 2.16 2.36 4.88 2.36 4.62" fill="#d9cc8d"/><polygon points="2.36 4.37 4.44 2.16 4.68 2.16 2.36 4.62 2.36 4.37" fill="#d9cd8e"/><polygon points="2.36 4.12 4.2 2.16 4.44 2.16 2.36 4.37 2.36 4.12" fill="#dace8f"/><polygon points="4.2 2.16 2.36 4.12 2.36 2.16 4.2 2.16" fill="#dace8f"/></g><g clip-path="url(#j)"><polygon points="8.87 8.12 8.91 8.08 8.91 8.12 8.87 8.12" fill="#be9e67"/><polygon points="8.67 8.12 8.91 7.86 8.91 8.08 8.87 8.12 8.67 8.12" fill="#bf9f68"/><polygon points="8.46 8.12 8.91 7.64 8.91 7.86 8.67 8.12 8.46 8.12" fill="#bfa068"/><polygon points="8.26 8.12 8.91 7.42 8.91 7.64 8.46 8.12 8.26 8.12" fill="#c0a169"/><polygon points="8.05 8.12 8.91 7.2 8.91 7.42 8.26 8.12 8.05 8.12" fill="#c1a26a"/><polygon points="7.84 8.12 8.91 6.98 8.91 7.2 8.05 8.12 7.84 8.12" fill="#c1a36b"/><polygon points="7.63 8.12 8.91 6.76 8.91 6.98 7.84 8.12 7.63 8.12" fill="#c2a46c"/><polygon points="7.43 8.12 8.91 6.54 8.91 6.76 7.63 8.12 7.43 8.12" fill="#c2a56d"/><polygon points="7.22 8.12 8.91 6.32 8.91 6.54 7.43 8.12 7.22 8.12" fill="#c3a66e"/><polygon points="7.02 8.12 8.91 6.11 8.91 6.32 7.22 8.12 7.02 8.12" fill="#c4a76e"/><polygon points="6.81 8.12 8.91 5.89 8.91 6.11 7.02 8.12 6.81 8.12" fill="#c4a86f"/><polygon points="6.6 8.12 8.91 5.67 8.91 5.89 6.81 8.12 6.6 8.12" fill="#c5a970"/><polygon points="6.4 8.12 8.91 5.45 8.91 5.67 6.6 8.12 6.4 8.12" fill="#c5aa71"/><polygon points="6.19 8.12 8.91 5.23 8.91 5.45 6.4 8.12 6.19 8.12" fill="#c6ab72"/><polygon points="5.98 8.12 8.91 5.01 8.91 5.23 6.19 8.12 5.98 8.12" fill="#c6ac73"/><polygon points="5.78 8.12 8.91 4.79 8.91 5.01 5.98 8.12 5.78 8.12" fill="#c7ad74"/><polygon points="5.57 8.12 8.91 4.57 8.91 4.79 5.78 8.12 5.57 8.12" fill="#c8ae74"/><polygon points="5.36 8.12 8.91 4.35 8.91 4.57 5.57 8.12 5.36 8.12" fill="#c8af75"/><polygon points="5.16 8.12 8.91 4.13 8.91 4.35 5.36 8.12 5.16 8.12" fill="#c9b076"/><polygon points="4.95 8.12 8.91 3.91 8.91 4.13 5.16 8.12 4.95 8.12" fill="#c9b177"/><polygon points="4.74 8.12 8.91 3.69 8.91 3.91 4.95 8.12 4.74 8.12" fill="#cab278"/><polygon points="4.54 8.12 8.91 3.48 8.91 3.69 4.74 8.12 4.54 8.12" fill="#cbb379"/><polygon points="4.33 8.12 8.91 3.26 8.91 3.48 4.54 8.12 4.33 8.12" fill="#cbb47a"/><polygon points="4.13 8.12 8.91 3.04 8.91 3.26 4.33 8.12 4.13 8.12" fill="#ccb67a"/><polygon points="3.92 8.12 8.85 2.89 8.91 2.89 8.91 3.04 4.13 8.12 3.92 8.12" fill="#ccb77b"/><polygon points="3.71 8.12 8.64 2.89 8.85 2.89 3.92 8.12 3.71 8.12" fill="#cdb87c"/><polygon points="3.51 8.12 8.43 2.89 8.64 2.89 3.71 8.12 3.51 8.12" fill="#ceb97d"/><polygon points="3.3 8.12 8.22 2.89 8.43 2.89 3.51 8.12 3.3 8.12" fill="#ceba7e"/><polygon points="3.09 8.12 8.02 2.89 8.22 2.89 3.3 8.12 3.09 8.12" fill="#cfbb7f"/><polygon points="2.89 8.12 7.81 2.89 8.02 2.89 3.09 8.12 2.89 8.12" fill="#cfbc80"/><polygon points="2.68 8.12 7.61 2.89 7.81 2.89 2.89 8.12 2.68 8.12" fill="#d0bd80"/><polygon points="2.5 8.09 7.4 2.89 7.61 2.89 2.68 8.12 2.5 8.12 2.5 8.09" fill="#d1be81"/><polygon points="2.5 7.87 7.19 2.89 7.4 2.89 2.5 8.09 2.5 7.87" fill="#d1bf82"/><polygon points="2.5 7.65 6.99 2.89 7.19 2.89 2.5 7.87 2.5 7.65" fill="#d2c083"/><polygon points="2.5 7.43 6.78 2.89 6.99 2.89 2.5 7.65 2.5 7.43" fill="#d2c184"/><polygon points="2.5 7.21 6.57 2.89 6.78 2.89 2.5 7.43 2.5 7.21" fill="#d3c285"/><polygon points="2.5 6.99 6.37 2.89 6.57 2.89 2.5 7.21 2.5 6.99" fill="#d3c386"/><polygon points="2.5 6.77 6.16 2.89 6.37 2.89 2.5 6.99 2.5 6.77" fill="#d4c486"/><polygon points="2.5 6.55 5.95 2.89 6.16 2.89 2.5 6.77 2.5 6.55" fill="#d5c587"/><polygon points="2.5 6.33 5.75 2.89 5.95 2.89 2.5 6.55 2.5 6.33" fill="#d5c688"/><polygon points="2.5 6.11 5.54 2.89 5.75 2.89 2.5 6.33 2.5 6.11" fill="#d6c789"/><polygon points="2.5 5.89 5.33 2.89 5.54 2.89 2.5 6.11 2.5 5.89" fill="#d6c88a"/><polygon points="2.5 5.67 5.13 2.89 5.33 2.89 2.5 5.89 2.5 5.67" fill="#d7c98b"/><polygon points="2.5 5.46 4.92 2.89 5.13 2.89 2.5 5.67 2.5 5.46" fill="#d8ca8c"/><polygon points="2.5 5.24 4.71 2.89 4.92 2.89 2.5 5.46 2.5 5.24" fill="#d8cb8c"/><polygon points="2.5 5.02 4.51 2.89 4.71 2.89 2.5 5.24 2.5 5.02" fill="#d9cc8d"/><polygon points="2.5 4.8 4.3 2.89 4.51 2.89 2.5 5.02 2.5 4.8" fill="#d9cd8e"/><polygon points="2.5 4.58 4.09 2.89 4.3 2.89 2.5 4.8 2.5 4.58" fill="#dace8f"/><polygon points="4.09 2.89 2.5 4.58 2.5 2.89 4.09 2.89" fill="#dace8f"/></g><g clip-path="url(#k)"><polygon points="9.45 9.7 9.51 9.64 9.51 9.7 9.45 9.7" fill="#be9e67"/><polygon points="9.13 9.7 9.51 9.3 9.51 9.64 9.45 9.7 9.13 9.7" fill="#bf9f68"/><polygon points="8.82 9.7 9.51 8.97 9.51 9.3 9.13 9.7 8.82 9.7" fill="#bfa068"/><polygon points="8.5 9.7 9.51 8.64 9.51 8.97 8.82 9.7 8.5 9.7" fill="#c0a169"/><polygon points="8.19 9.7 9.51 8.3 9.51 8.64 8.5 9.7 8.19 9.7" fill="#c1a26a"/><polygon points="7.88 9.7 9.51 7.97 9.51 8.3 8.19 9.7 7.88 9.7" fill="#c1a36b"/><polygon points="7.56 9.7 9.51 7.64 9.51 7.97 7.88 9.7 7.56 9.7" fill="#c2a46c"/><polygon points="7.25 9.7 9.51 7.3 9.51 7.64 7.56 9.7 7.25 9.7" fill="#c2a56d"/><polygon points="6.93 9.7 9.51 6.97 9.51 7.3 7.25 9.7 6.93 9.7" fill="#c3a66e"/><polygon points="6.62 9.7 9.51 6.64 9.51 6.97 6.93 9.7 6.62 9.7" fill="#c4a76e"/><polygon points="6.3 9.7 9.51 6.3 9.51 6.64 6.62 9.7 6.3 9.7" fill="#c4a86f"/><polygon points="5.99 9.7 9.51 5.97 9.51 6.3 6.3 9.7 5.99 9.7" fill="#c5a970"/><polygon points="5.68 9.7 9.51 5.64 9.51 5.97 5.99 9.7 5.68 9.7" fill="#c5aa71"/><polygon points="5.36 9.7 9.51 5.3 9.51 5.64 5.68 9.7 5.36 9.7" fill="#c6ab72"/><polygon points="5.05 9.7 9.51 4.97 9.51 5.3 5.36 9.7 5.05 9.7" fill="#c6ac73"/><polygon points="4.73 9.7 9.51 4.64 9.51 4.97 5.05 9.7 4.73 9.7" fill="#c7ad74"/><polygon points="4.42 9.7 9.51 4.3 9.51 4.64 4.73 9.7 4.42 9.7" fill="#c8ae74"/><polygon points="4.11 9.7 9.51 3.97 9.51 4.3 4.42 9.7 4.11 9.7" fill="#c8af75"/><polygon points="3.79 9.7 9.51 3.64 9.51 3.97 4.11 9.7 3.79 9.7" fill="#c9b076"/><polygon points="3.48 9.7 9.51 3.31 9.51 3.64 3.79 9.7 3.48 9.7" fill="#c9b177"/><polygon points="3.16 9.7 9.51 2.97 9.51 3.31 3.48 9.7 3.16 9.7" fill="#cab278"/><polygon points="2.85 9.7 9.51 2.64 9.51 2.97 3.16 9.7 2.85 9.7" fill="#cbb379"/><polygon points="2.54 9.7 9.51 2.31 9.51 2.64 2.85 9.7 2.54 9.7" fill="#cbb47a"/><polygon points="2.22 9.7 9.51 1.97 9.51 2.31 2.54 9.7 2.22 9.7" fill="#ccb67a"/><polygon points="1.91 9.7 9.51 1.64 9.51 1.97 2.22 9.7 1.91 9.7" fill="#ccb77b"/><polygon points="1.59 9.7 9.51 1.31 9.51 1.64 1.91 9.7 1.59 9.7" fill="#cdb87c"/><polygon points="1.28 9.7 9.31 1.18 9.51 1.18 9.51 1.31 1.59 9.7 1.28 9.7" fill="#ceb97d"/><polygon points="0.96 9.7 9 1.18 9.31 1.18 1.28 9.7 0.96 9.7" fill="#ceba7e"/><polygon points="0.65 9.7 8.69 1.18 9 1.18 0.96 9.7 0.65 9.7" fill="#cfbb7f"/><polygon points="0.34 9.7 8.37 1.18 8.69 1.18 0.65 9.7 0.34 9.7" fill="#cfbc80"/><polygon points="0.3 9.41 8.06 1.18 8.37 1.18 0.34 9.7 0.3 9.7 0.3 9.41" fill="#d0bd80"/><polygon points="0.3 9.07 7.74 1.18 8.06 1.18 0.3 9.41 0.3 9.07" fill="#d1be81"/><polygon points="0.3 8.74 7.43 1.18 7.74 1.18 0.3 9.07 0.3 8.74" fill="#d1bf82"/><polygon points="0.3 8.41 7.12 1.18 7.43 1.18 0.3 8.74 0.3 8.41" fill="#d2c083"/><polygon points="0.3 8.07 6.8 1.18 7.12 1.18 0.3 8.41 0.3 8.07" fill="#d2c184"/><polygon points="0.3 7.74 6.49 1.18 6.8 1.18 0.3 8.07 0.3 7.74" fill="#d3c285"/><polygon points="0.3 7.41 6.17 1.18 6.49 1.18 0.3 7.74 0.3 7.41" fill="#d3c386"/><polygon points="0.3 7.08 5.86 1.18 6.17 1.18 0.3 7.41 0.3 7.08" fill="#d4c486"/><polygon points="0.3 6.74 5.54 1.18 5.86 1.18 0.3 7.08 0.3 6.74" fill="#d5c587"/><polygon points="0.3 6.41 5.23 1.18 5.54 1.18 0.3 6.74 0.3 6.41" fill="#d5c688"/><polygon points="0.3 6.08 4.92 1.18 5.23 1.18 0.3 6.41 0.3 6.08" fill="#d6c789"/><polygon points="0.3 5.74 4.6 1.18 4.92 1.18 0.3 6.08 0.3 5.74" fill="#d6c88a"/><polygon points="0.3 5.41 4.29 1.18 4.6 1.18 0.3 5.74 0.3 5.41" fill="#d7c98b"/><polygon points="0.3 5.08 3.97 1.18 4.29 1.18 0.3 5.41 0.3 5.08" fill="#d8ca8c"/><polygon points="0.3 4.74 3.66 1.18 3.97 1.18 0.3 5.08 0.3 4.74" fill="#d8cb8c"/><polygon points="0.3 4.41 3.35 1.18 3.66 1.18 0.3 4.74 0.3 4.41" fill="#d9cc8d"/><polygon points="0.3 4.08 3.03 1.18 3.35 1.18 0.3 4.41 0.3 4.08" fill="#d9cd8e"/><polygon points="0.3 3.74 2.72 1.18 3.03 1.18 0.3 4.08 0.3 3.74" fill="#dace8f"/><polygon points="2.72 1.18 0.3 3.74 0.3 1.18 2.72 1.18" fill="#dace8f"/></g><g clip-path="url(#l)"><polygon points="9.54 9.61 9.6 9.56 9.6 9.61 9.54 9.61" fill="#be9e67"/><polygon points="9.27 9.61 9.6 9.27 9.6 9.56 9.54 9.61 9.27 9.61" fill="#bf9f68"/><polygon points="9 9.61 9.6 8.98 9.6 9.27 9.27 9.61 9 9.61" fill="#bfa068"/><polygon points="8.73 9.61 9.6 8.7 9.6 8.98 9 9.61 8.73 9.61" fill="#c0a169"/><polygon points="8.46 9.61 9.6 8.41 9.6 8.7 8.73 9.61 8.46 9.61" fill="#c1a26a"/><polygon points="8.19 9.61 9.6 8.12 9.6 8.41 8.46 9.61 8.19 9.61" fill="#c1a36b"/><polygon points="7.92 9.61 9.6 7.84 9.6 8.12 8.19 9.61 7.92 9.61" fill="#c2a46c"/><polygon points="7.65 9.61 9.6 7.55 9.6 7.84 7.92 9.61 7.65 9.61" fill="#c2a56d"/><polygon points="7.38 9.61 9.6 7.26 9.6 7.55 7.65 9.61 7.38 9.61" fill="#c3a66e"/><polygon points="7.11 9.61 9.6 6.97 9.6 7.26 7.38 9.61 7.11 9.61" fill="#c4a76e"/><polygon points="6.84 9.61 9.6 6.69 9.6 6.97 7.11 9.61 6.84 9.61" fill="#c4a86f"/><polygon points="6.57 9.61 9.6 6.4 9.6 6.69 6.84 9.61 6.57 9.61" fill="#c5a970"/><polygon points="6.3 9.61 9.6 6.11 9.6 6.4 6.57 9.61 6.3 9.61" fill="#c5aa71"/><polygon points="6.03 9.61 9.6 5.83 9.6 6.11 6.3 9.61 6.03 9.61" fill="#c6ab72"/><polygon points="5.75 9.61 9.6 5.54 9.6 5.83 6.03 9.61 5.75 9.61" fill="#c6ac73"/><polygon points="5.49 9.61 9.6 5.25 9.6 5.54 5.75 9.61 5.49 9.61" fill="#c7ad74"/><polygon points="5.21 9.61 9.6 4.96 9.6 5.25 5.49 9.61 5.21 9.61" fill="#c8ae74"/><polygon points="4.94 9.61 9.6 4.68 9.6 4.96 5.21 9.61 4.94 9.61" fill="#c8af75"/><polygon points="4.67 9.61 9.6 4.39 9.6 4.68 4.94 9.61 4.67 9.61" fill="#c9b076"/><polygon points="4.4 9.61 9.6 4.1 9.6 4.39 4.67 9.61 4.4 9.61" fill="#c9b177"/><polygon points="4.13 9.61 9.6 3.82 9.6 4.1 4.4 9.61 4.13 9.61" fill="#cab278"/><polygon points="3.86 9.61 9.6 3.53 9.6 3.82 4.13 9.61 3.86 9.61" fill="#cbb379"/><polygon points="3.59 9.61 9.6 3.24 9.6 3.53 3.86 9.61 3.59 9.61" fill="#cbb47a"/><polygon points="3.32 9.61 9.6 2.96 9.6 3.24 3.59 9.61 3.32 9.61" fill="#ccb67a"/><polygon points="3.05 9.61 9.39 2.88 9.6 2.88 9.6 2.96 3.32 9.61 3.05 9.61" fill="#ccb77b"/><polygon points="2.78 9.61 9.13 2.88 9.39 2.88 3.05 9.61 2.78 9.61" fill="#cdb87c"/><polygon points="2.51 9.61 8.85 2.88 9.13 2.88 2.78 9.61 2.51 9.61" fill="#ceb97d"/><polygon points="2.24 9.61 8.58 2.88 8.85 2.88 2.51 9.61 2.24 9.61" fill="#ceba7e"/><polygon points="1.97 9.61 8.31 2.88 8.58 2.88 2.24 9.61 1.97 9.61" fill="#cfbb7f"/><polygon points="1.7 9.61 8.04 2.88 8.31 2.88 1.97 9.61 1.7 9.61" fill="#cfbc80"/><polygon points="1.43 9.61 7.77 2.88 8.04 2.88 1.7 9.61 1.43 9.61" fill="#d0bd80"/><polygon points="1.15 9.61 7.5 2.88 7.77 2.88 1.43 9.61 1.15 9.61" fill="#d1be81"/><polygon points="1.09 9.4 7.23 2.88 7.5 2.88 1.15 9.61 1.09 9.61 1.09 9.4" fill="#d1bf82"/><polygon points="1.09 9.11 6.96 2.88 7.23 2.88 1.09 9.4 1.09 9.11" fill="#d2c083"/><polygon points="1.09 8.82 6.69 2.88 6.96 2.88 1.09 9.11 1.09 8.82" fill="#d2c184"/><polygon points="1.09 8.54 6.42 2.88 6.69 2.88 1.09 8.82 1.09 8.54" fill="#d3c285"/><polygon points="1.09 8.25 6.15 2.88 6.42 2.88 1.09 8.54 1.09 8.25" fill="#d3c386"/><polygon points="1.09 7.96 5.88 2.88 6.15 2.88 1.09 8.25 1.09 7.96" fill="#d4c486"/><polygon points="1.09 7.68 5.61 2.88 5.88 2.88 1.09 7.96 1.09 7.68" fill="#d5c587"/><polygon points="1.09 7.39 5.34 2.88 5.61 2.88 1.09 7.68 1.09 7.39" fill="#d5c688"/><polygon points="1.09 7.1 5.07 2.88 5.34 2.88 1.09 7.39 1.09 7.1" fill="#d6c789"/><polygon points="1.09 6.82 4.79 2.88 5.07 2.88 1.09 7.1 1.09 6.82" fill="#d6c88a"/><polygon points="1.09 6.53 4.52 2.88 4.79 2.88 1.09 6.82 1.09 6.53" fill="#d7c98b"/><polygon points="1.09 6.24 4.25 2.88 4.52 2.88 1.09 6.53 1.09 6.24" fill="#d8ca8c"/><polygon points="1.09 5.95 3.98 2.88 4.25 2.88 1.09 6.24 1.09 5.95" fill="#d8cb8c"/><polygon points="1.09 5.67 3.71 2.88 3.98 2.88 1.09 5.95 1.09 5.67" fill="#d9cc8d"/><polygon points="1.09 5.38 3.44 2.88 3.71 2.88 1.09 5.67 1.09 5.38" fill="#d9cd8e"/><polygon points="1.09 5.09 3.17 2.88 3.44 2.88 1.09 5.38 1.09 5.09" fill="#dace8f"/><polygon points="3.17 2.88 1.09 5.09 1.09 2.88 3.17 2.88" fill="#dace8f"/></g><g clip-path="url(#m)"><polygon points="10.44 9.71 10.5 9.65 10.5 9.71 10.44 9.71" fill="#be9e67"/><polygon points="10.13 9.71 10.5 9.31 10.5 9.65 10.44 9.71 10.13 9.71" fill="#bf9f68"/><polygon points="9.81 9.71 10.5 8.98 10.5 9.31 10.13 9.71 9.81 9.71" fill="#bfa068"/><polygon points="9.49 9.71 10.5 8.64 10.5 8.98 9.81 9.71 9.49 9.71" fill="#c0a169"/><polygon points="9.18 9.71 10.5 8.31 10.5 8.64 9.49 9.71 9.18 9.71" fill="#c1a26a"/><polygon points="8.86 9.71 10.5 7.97 10.5 8.31 9.18 9.71 8.86 9.71" fill="#c1a36b"/><polygon points="8.55 9.71 10.5 7.64 10.5 7.97 8.86 9.71 8.55 9.71" fill="#c2a46c"/><polygon points="8.23 9.71 10.5 7.3 10.5 7.64 8.55 9.71 8.23 9.71" fill="#c2a56d"/><polygon points="7.92 9.71 10.5 6.97 10.5 7.3 8.23 9.71 7.92 9.71" fill="#c3a66e"/><polygon points="7.6 9.71 10.5 6.64 10.5 6.97 7.92 9.71 7.6 9.71" fill="#c4a76e"/><polygon points="7.29 9.71 10.5 6.3 10.5 6.64 7.6 9.71 7.29 9.71" fill="#c4a86f"/><polygon points="6.97 9.71 10.5 5.97 10.5 6.3 7.29 9.71 6.97 9.71" fill="#c5a970"/><polygon points="6.66 9.71 10.5 5.63 10.5 5.97 6.97 9.71 6.66 9.71" fill="#c5aa71"/><polygon points="6.34 9.71 10.5 5.3 10.5 5.63 6.66 9.71 6.34 9.71" fill="#c6ab72"/><polygon points="6.02 9.71 10.5 4.96 10.5 5.3 6.34 9.71 6.02 9.71" fill="#c6ac73"/><polygon points="5.71 9.71 10.5 4.63 10.5 4.96 6.02 9.71 5.71 9.71" fill="#c7ad74"/><polygon points="5.39 9.71 10.5 4.29 10.5 4.63 5.71 9.71 5.39 9.71" fill="#c8ae74"/><polygon points="5.08 9.71 10.5 3.96 10.5 4.29 5.39 9.71 5.08 9.71" fill="#c8af75"/><polygon points="4.76 9.71 10.5 3.62 10.5 3.96 5.08 9.71 4.76 9.71" fill="#c9b076"/><polygon points="4.45 9.71 10.5 3.29 10.5 3.62 4.76 9.71 4.45 9.71" fill="#c9b177"/><polygon points="4.13 9.71 10.5 2.95 10.5 3.29 4.45 9.71 4.13 9.71" fill="#cab278"/><polygon points="3.81 9.71 10.5 2.62 10.5 2.95 4.13 9.71 3.81 9.71" fill="#cbb379"/><polygon points="3.5 9.71 10.5 2.28 10.5 2.62 3.81 9.71 3.5 9.71" fill="#cbb47a"/><polygon points="3.18 9.71 10.5 1.95 10.5 2.28 3.5 9.71 3.18 9.71" fill="#ccb67a"/><polygon points="2.87 9.71 10.47 1.65 10.5 1.65 10.5 1.95 3.18 9.71 2.87 9.71" fill="#ccb77b"/><polygon points="2.55 9.71 10.15 1.65 10.47 1.65 2.87 9.71 2.55 9.71" fill="#cdb87c"/><polygon points="2.24 9.71 9.84 1.65 10.15 1.65 2.55 9.71 2.24 9.71" fill="#ceb97d"/><polygon points="1.92 9.71 9.52 1.65 9.84 1.65 2.24 9.71 1.92 9.71" fill="#ceba7e"/><polygon points="1.61 9.71 9.21 1.65 9.52 1.65 1.92 9.71 1.61 9.71" fill="#cfbb7f"/><polygon points="1.29 9.71 8.89 1.65 9.21 1.65 1.61 9.71 1.29 9.71" fill="#cfbc80"/><polygon points="0.97 9.71 8.57 1.65 8.89 1.65 1.29 9.71 0.97 9.71" fill="#d0bd80"/><polygon points="0.78 9.59 8.26 1.65 8.57 1.65 0.97 9.71 0.78 9.71 0.78 9.59" fill="#d1be81"/><polygon points="0.78 9.25 7.94 1.65 8.26 1.65 0.78 9.59 0.78 9.25" fill="#d1bf82"/><polygon points="0.78 8.92 7.63 1.65 7.94 1.65 0.78 9.25 0.78 8.92" fill="#d2c083"/><polygon points="0.78 8.58 7.31 1.65 7.63 1.65 0.78 8.92 0.78 8.58" fill="#d2c184"/><polygon points="0.78 8.25 7 1.65 7.31 1.65 0.78 8.58 0.78 8.25" fill="#d3c285"/><polygon points="0.78 7.91 6.68 1.65 7 1.65 0.78 8.25 0.78 7.91" fill="#d3c386"/><polygon points="0.78 7.58 6.37 1.65 6.68 1.65 0.78 7.91 0.78 7.58" fill="#d4c486"/><polygon points="0.78 7.24 6.05 1.65 6.37 1.65 0.78 7.58 0.78 7.24" fill="#d5c587"/><polygon points="0.78 6.91 5.74 1.65 6.05 1.65 0.78 7.24 0.78 6.91" fill="#d5c688"/><polygon points="0.78 6.57 5.42 1.65 5.74 1.65 0.78 6.91 0.78 6.57" fill="#d6c789"/><polygon points="0.78 6.24 5.1 1.65 5.42 1.65 0.78 6.57 0.78 6.24" fill="#d6c88a"/><polygon points="0.78 5.9 4.79 1.65 5.1 1.65 0.78 6.24 0.78 5.9" fill="#d7c98b"/><polygon points="0.78 5.57 4.47 1.65 4.79 1.65 0.78 5.9 0.78 5.57" fill="#d8ca8c"/><polygon points="0.78 5.23 4.16 1.65 4.47 1.65 0.78 5.57 0.78 5.23" fill="#d8cb8c"/><polygon points="0.78 4.9 3.84 1.65 4.16 1.65 0.78 5.23 0.78 4.9" fill="#d9cc8d"/><polygon points="0.78 4.56 3.53 1.65 3.84 1.65 0.78 4.9 0.78 4.56" fill="#d9cd8e"/><polygon points="0.78 4.23 3.21 1.65 3.53 1.65 0.78 4.56 0.78 4.23" fill="#dace8f"/><polygon points="3.21 1.65 0.78 4.23 0.78 1.65 3.21 1.65" fill="#dace8f"/></g><g clip-path="url(#n)"><polygon points="9.3 9.07 9.35 9.01 9.35 9.07 9.3 9.07" fill="#be9e67"/><polygon points="9.01 9.07 9.35 8.7 9.35 9.01 9.3 9.07 9.01 9.07" fill="#bf9f68"/><polygon points="8.72 9.07 9.35 8.39 9.35 8.7 9.01 9.07 8.72 9.07" fill="#bfa068"/><polygon points="8.42 9.07 9.35 8.08 9.35 8.39 8.72 9.07 8.42 9.07" fill="#c0a169"/><polygon points="8.13 9.07 9.35 7.77 9.35 8.08 8.42 9.07 8.13 9.07" fill="#c1a26a"/><polygon points="7.84 9.07 9.35 7.46 9.35 7.77 8.13 9.07 7.84 9.07" fill="#c1a36b"/><polygon points="7.55 9.07 9.35 7.15 9.35 7.46 7.84 9.07 7.55 9.07" fill="#c2a46c"/><polygon points="7.26 9.07 9.35 6.84 9.35 7.15 7.55 9.07 7.26 9.07" fill="#c2a56d"/><polygon points="6.97 9.07 9.35 6.54 9.35 6.84 7.26 9.07 6.97 9.07" fill="#c3a66e"/><polygon points="6.68 9.07 9.35 6.23 9.35 6.54 6.97 9.07 6.68 9.07" fill="#c4a76e"/><polygon points="6.39 9.07 9.35 5.92 9.35 6.23 6.68 9.07 6.39 9.07" fill="#c4a86f"/><polygon points="6.09 9.07 9.35 5.61 9.35 5.92 6.39 9.07 6.09 9.07" fill="#c5a970"/><polygon points="5.8 9.07 9.35 5.3 9.35 5.61 6.09 9.07 5.8 9.07" fill="#c5aa71"/><polygon points="5.51 9.07 9.35 4.99 9.35 5.3 5.8 9.07 5.51 9.07" fill="#c6ab72"/><polygon points="5.22 9.07 9.35 4.68 9.35 4.99 5.51 9.07 5.22 9.07" fill="#c6ac73"/><polygon points="4.93 9.07 9.35 4.37 9.35 4.68 5.22 9.07 4.93 9.07" fill="#c7ad74"/><polygon points="4.64 9.07 9.35 4.07 9.35 4.37 4.93 9.07 4.64 9.07" fill="#c8ae74"/><polygon points="4.35 9.07 9.35 3.76 9.35 4.07 4.64 9.07 4.35 9.07" fill="#c8af75"/><polygon points="4.06 9.07 9.35 3.45 9.35 3.76 4.35 9.07 4.06 9.07" fill="#c9b076"/><polygon points="3.77 9.07 9.35 3.14 9.35 3.45 4.06 9.07 3.77 9.07" fill="#c9b177"/><polygon points="3.47 9.07 9.35 2.83 9.35 3.14 3.77 9.07 3.47 9.07" fill="#cab278"/><polygon points="3.18 9.07 9.35 2.52 9.35 2.83 3.47 9.07 3.18 9.07" fill="#cbb379"/><polygon points="2.89 9.07 9.35 2.21 9.35 2.52 3.18 9.07 2.89 9.07" fill="#cbb47a"/><polygon points="2.6 9.07 9.35 1.9 9.35 2.21 2.89 9.07 2.6 9.07" fill="#ccb67a"/><polygon points="2.31 9.07 9.35 1.59 9.35 1.9 2.6 9.07 2.31 9.07" fill="#ccb77b"/><polygon points="2.02 9.07 9.35 1.28 9.35 1.59 2.31 9.07 2.02 9.07" fill="#cdb87c"/><polygon points="1.73 9.07 9.08 1.26 9.35 1.26 9.35 1.28 2.02 9.07 1.73 9.07" fill="#ceb97d"/><polygon points="1.44 9.07 8.79 1.26 9.08 1.26 1.73 9.07 1.44 9.07" fill="#ceba7e"/><polygon points="1.14 9.07 8.5 1.26 8.79 1.26 1.44 9.07 1.14 9.07" fill="#cfbb7f"/><polygon points="0.85 9.07 8.21 1.26 8.5 1.26 1.14 9.07 0.85 9.07" fill="#cfbc80"/><polygon points="0.72 8.9 7.92 1.26 8.21 1.26 0.85 9.07 0.72 9.07 0.72 8.9" fill="#d0bd80"/><polygon points="0.72 8.59 7.63 1.26 7.92 1.26 0.72 8.9 0.72 8.59" fill="#d1be81"/><polygon points="0.72 8.28 7.33 1.26 7.63 1.26 0.72 8.59 0.72 8.28" fill="#d1bf82"/><polygon points="0.72 7.97 7.04 1.26 7.33 1.26 0.72 8.28 0.72 7.97" fill="#d2c083"/><polygon points="0.72 7.66 6.75 1.26 7.04 1.26 0.72 7.97 0.72 7.66" fill="#d2c184"/><polygon points="0.72 7.35 6.46 1.26 6.75 1.26 0.72 7.66 0.72 7.35" fill="#d3c285"/><polygon points="0.72 7.04 6.17 1.26 6.46 1.26 0.72 7.35 0.72 7.04" fill="#d3c386"/><polygon points="0.72 6.73 5.88 1.26 6.17 1.26 0.72 7.04 0.72 6.73" fill="#d4c486"/><polygon points="0.72 6.42 5.59 1.26 5.88 1.26 0.72 6.73 0.72 6.42" fill="#d5c587"/><polygon points="0.72 6.12 5.29 1.26 5.59 1.26 0.72 6.42 0.72 6.12" fill="#d5c688"/><polygon points="0.72 5.81 5 1.26 5.29 1.26 0.72 6.12 0.72 5.81" fill="#d6c789"/><polygon points="0.72 5.5 4.71 1.26 5 1.26 0.72 5.81 0.72 5.5" fill="#d6c88a"/><polygon points="0.72 5.19 4.42 1.26 4.71 1.26 0.72 5.5 0.72 5.19" fill="#d7c98b"/><polygon points="0.72 4.88 4.13 1.26 4.42 1.26 0.72 5.19 0.72 4.88" fill="#d8ca8c"/><polygon points="0.72 4.57 3.84 1.26 4.13 1.26 0.72 4.88 0.72 4.57" fill="#d8cb8c"/><polygon points="0.72 4.26 3.55 1.26 3.84 1.26 0.72 4.57 0.72 4.26" fill="#d9cc8d"/><polygon points="0.72 3.95 3.26 1.26 3.55 1.26 0.72 4.26 0.72 3.95" fill="#d9cd8e"/><polygon points="0.72 3.65 2.96 1.26 3.26 1.26 0.72 3.95 0.72 3.65" fill="#dace8f"/><polygon points="2.96 1.26 0.72 3.65 0.72 1.26 2.96 1.26" fill="#dace8f"/></g><g clip-path="url(#o)"><polygon points="8.35 8.25 8.39 8.21 8.39 8.25 8.35 8.25" fill="#be9e67"/><polygon points="8.15 8.25 8.39 8 8.39 8.21 8.35 8.25 8.15 8.25" fill="#bf9f68"/><polygon points="7.95 8.25 8.39 7.79 8.39 8 8.15 8.25 7.95 8.25" fill="#bfa068"/><polygon points="7.75 8.25 8.39 7.58 8.39 7.79 7.95 8.25 7.75 8.25" fill="#c0a169"/><polygon points="7.55 8.25 8.39 7.37 8.39 7.58 7.75 8.25 7.55 8.25" fill="#c1a26a"/><polygon points="7.36 8.25 8.39 7.15 8.39 7.37 7.55 8.25 7.36 8.25" fill="#c1a36b"/><polygon points="7.16 8.25 8.39 6.94 8.39 7.15 7.36 8.25 7.16 8.25" fill="#c2a46c"/><polygon points="6.96 8.25 8.39 6.73 8.39 6.94 7.16 8.25 6.96 8.25" fill="#c2a56d"/><polygon points="6.76 8.25 8.39 6.52 8.39 6.73 6.96 8.25 6.76 8.25" fill="#c3a66e"/><polygon points="6.56 8.25 8.39 6.31 8.39 6.52 6.76 8.25 6.56 8.25" fill="#c4a76e"/><polygon points="6.37 8.25 8.39 6.1 8.39 6.31 6.56 8.25 6.37 8.25" fill="#c4a86f"/><polygon points="6.17 8.25 8.39 5.89 8.39 6.1 6.37 8.25 6.17 8.25" fill="#c5a970"/><polygon points="5.97 8.25 8.39 5.68 8.39 5.89 6.17 8.25 5.97 8.25" fill="#c5aa71"/><polygon points="5.77 8.25 8.39 5.47 8.39 5.68 5.97 8.25 5.77 8.25" fill="#c6ab72"/><polygon points="5.57 8.25 8.39 5.26 8.39 5.47 5.77 8.25 5.57 8.25" fill="#c6ac73"/><polygon points="5.37 8.25 8.39 5.05 8.39 5.26 5.57 8.25 5.37 8.25" fill="#c7ad74"/><polygon points="5.17 8.25 8.39 4.84 8.39 5.05 5.37 8.25 5.17 8.25" fill="#c8ae74"/><polygon points="4.98 8.25 8.39 4.63 8.39 4.84 5.17 8.25 4.98 8.25" fill="#c8af75"/><polygon points="4.78 8.25 8.39 4.42 8.39 4.63 4.98 8.25 4.78 8.25" fill="#c9b076"/><polygon points="4.58 8.25 8.39 4.21 8.39 4.42 4.78 8.25 4.58 8.25" fill="#c9b177"/><polygon points="4.38 8.25 8.39 4 8.39 4.21 4.58 8.25 4.38 8.25" fill="#cab278"/><polygon points="4.18 8.25 8.39 3.79 8.39 4 4.38 8.25 4.18 8.25" fill="#cbb379"/><polygon points="3.98 8.25 8.39 3.58 8.39 3.79 4.18 8.25 3.98 8.25" fill="#cbb47a"/><polygon points="3.79 8.25 8.39 3.37 8.39 3.58 3.98 8.25 3.79 8.25" fill="#ccb67a"/><polygon points="3.59 8.25 8.29 3.25 8.39 3.25 8.39 3.37 3.79 8.25 3.59 8.25" fill="#ccb77b"/><polygon points="3.39 8.25 8.1 3.25 8.29 3.25 3.59 8.25 3.39 8.25" fill="#cdb87c"/><polygon points="3.19 8.25 7.9 3.25 8.1 3.25 3.39 8.25 3.19 8.25" fill="#ceb97d"/><polygon points="2.99 8.25 7.7 3.25 7.9 3.25 3.19 8.25 2.99 8.25" fill="#ceba7e"/><polygon points="2.79 8.25 7.5 3.25 7.7 3.25 2.99 8.25 2.79 8.25" fill="#cfbb7f"/><polygon points="2.6 8.25 7.3 3.25 7.5 3.25 2.79 8.25 2.6 8.25" fill="#cfbc80"/><polygon points="2.4 8.25 7.1 3.25 7.3 3.25 2.6 8.25 2.4 8.25" fill="#d0bd80"/><polygon points="2.2 8.24 6.91 3.25 7.1 3.25 2.4 8.25 2.2 8.25 2.2 8.24" fill="#d1be81"/><polygon points="2.2 8.03 6.71 3.25 6.91 3.25 2.2 8.24 2.2 8.03" fill="#d1bf82"/><polygon points="2.2 7.82 6.51 3.25 6.71 3.25 2.2 8.03 2.2 7.82" fill="#d2c083"/><polygon points="2.2 7.61 6.31 3.25 6.51 3.25 2.2 7.82 2.2 7.61" fill="#d2c184"/><polygon points="2.2 7.4 6.11 3.25 6.31 3.25 2.2 7.61 2.2 7.4" fill="#d3c285"/><polygon points="2.2 7.19 5.91 3.25 6.11 3.25 2.2 7.4 2.2 7.19" fill="#d3c386"/><polygon points="2.2 6.98 5.71 3.25 5.91 3.25 2.2 7.19 2.2 6.98" fill="#d4c486"/><polygon points="2.2 6.77 5.52 3.25 5.71 3.25 2.2 6.98 2.2 6.77" fill="#d5c587"/><polygon points="2.2 6.56 5.32 3.25 5.52 3.25 2.2 6.77 2.2 6.56" fill="#d5c688"/><polygon points="2.2 6.35 5.12 3.25 5.32 3.25 2.2 6.56 2.2 6.35" fill="#d6c789"/><polygon points="2.2 6.14 4.92 3.25 5.12 3.25 2.2 6.35 2.2 6.14" fill="#d6c88a"/><polygon points="2.2 5.93 4.72 3.25 4.92 3.25 2.2 6.14 2.2 5.93" fill="#d7c98b"/><polygon points="2.2 5.72 4.53 3.25 4.72 3.25 2.2 5.93 2.2 5.72" fill="#d8ca8c"/><polygon points="2.2 5.51 4.33 3.25 4.53 3.25 2.2 5.72 2.2 5.51" fill="#d8cb8c"/><polygon points="2.2 5.3 4.13 3.25 4.33 3.25 2.2 5.51 2.2 5.3" fill="#d9cc8d"/><polygon points="2.2 5.09 3.93 3.25 4.13 3.25 2.2 5.3 2.2 5.09" fill="#d9cd8e"/><polygon points="2.2 4.88 3.73 3.25 3.93 3.25 2.2 5.09 2.2 4.88" fill="#dace8f"/><polygon points="3.73 3.25 2.2 4.88 2.2 3.25 3.73 3.25" fill="#dace8f"/></g></svg>