<svg xmlns="http://www.w3.org/2000/svg" width="8.74" height="9.82" viewBox="0 0 8.74 9.82"><title>Ресурс 6</title><path d="M1.79,0A6.09,6.09,0,0,0,.9,7.48C3.36,11.9,8.74,8.69,8.74,8.69Z" fill="#f49419"/><path d="M1.61,6.58c1.77,3.17,5.14,2.16,6.64,1.5L1.91.15A5.69,5.69,0,0,0,1.61,6.58Z" fill="#fff"/><path d="M2,1a5.62,5.62,0,0,0-.61,2.82L4.45,3.7Z" fill="#f49419"/><path d="M7.64,7.83a5.69,5.69,0,0,1-2.88.26l.52-3Z" fill="#f49419"/><path d="M4.7,4.23l-3,.16S1.5,6.36,4,7.69Z" fill="#f49419"/></svg>