<?xml version="1.0" encoding="utf-8"?>
<!-- Generator: Adobe Illustrator 24.0.1, SVG Export Plug-In . SVG Version: 6.00 Build 0)  -->
<svg version="1.1" id="Слой_1" xmlns="http://www.w3.org/2000/svg" xmlns:xlink="http://www.w3.org/1999/xlink" x="0px" y="0px"
	 viewBox="0 0 14.1 10" style="enable-background:new 0 0 14.1 10;" xml:space="preserve">
<style type="text/css">
	.st0{clip-path:url(#SVGID_2_);}
	.st1{fill:#C1B300;}
	.st2{fill:#C2B300;}
	.st3{fill:#C3B300;}
	.st4{fill:#C4B300;}
	.st5{fill:#C5B300;}
	.st6{fill:#C6B300;}
	.st7{fill:#C7B300;}
	.st8{fill:#C8B300;}
	.st9{fill:#C9B300;}
	.st10{fill:#CAB300;}
	.st11{fill:#CBB300;}
	.st12{fill:#CCB300;}
	.st13{fill:#CDB300;}
	.st14{fill:#CEB300;}
	.st15{fill:#CFB300;}
	.st16{fill:#D0B300;}
	.st17{fill:#D1B300;}
	.st18{fill:#D2B300;}
	.st19{fill:#D3B300;}
	.st20{fill:#D4B300;}
	.st21{fill:#D5B300;}
	.st22{fill:#D6B300;}
	.st23{fill:#D7B300;}
	.st24{fill:#D9B300;}
	.st25{fill:#DAB300;}
	.st26{fill:#DBB300;}
	.st27{fill:#DCB300;}
	.st28{fill:#DDB300;}
	.st29{fill:#DEB300;}
	.st30{fill:#E0B300;}
	.st31{fill:#E1B300;}
	.st32{fill:#E2B300;}
	.st33{fill:#E3B300;}
	.st34{fill:#E5B300;}
	.st35{fill:#E6B300;}
	.st36{fill:#E7B300;}
	.st37{fill:#E9B300;}
	.st38{fill:#EAB300;}
	.st39{fill:#EBB300;}
	.st40{fill:#EDB300;}
	.st41{fill:#EEB300;}
	.st42{fill:#F0B300;}
	.st43{fill:#F1B300;}
	.st44{fill:#F3B300;}
	.st45{fill:#F4B300;}
	.st46{fill:#F6B300;}
	.st47{fill:#F7B300;}
	.st48{fill:#F9B300;}
	.st49{fill:#FAB300;}
	.st50{fill:#FCB300;}
	.st51{fill:#FDB300;}
	.st52{fill:#FFB300;}
	.st53{fill:#FFB402;}
	.st54{fill:#FFB404;}
	.st55{fill:#FFB505;}
	.st56{fill:#FFB507;}
	.st57{fill:#FFB609;}
	.st58{fill:#FFB70A;}
	.st59{fill:#FEB70C;}
	.st60{fill:#FEB80E;}
	.st61{fill:#FEB910;}
	.st62{fill:#FEB911;}
	.st63{fill:#FEBA13;}
	.st64{fill:#FEBA15;}
	.st65{fill:#FEBB16;}
	.st66{fill:#FEBB18;}
	.st67{fill:#FEBC1A;}
	.st68{fill:#FEBD1B;}
	.st69{fill:#FEBD1D;}
	.st70{fill:#FEBE1F;}
	.st71{fill:#FEBE20;}
	.st72{fill:#FEBF22;}
	.st73{fill:#FDC023;}
	.st74{fill:#FDC025;}
	.st75{fill:#FDC126;}
	.st76{fill:#FDC128;}
	.st77{fill:#FDC22A;}
	.st78{fill:#FDC22B;}
	.st79{fill:#FDC32D;}
	.st80{fill:#FDC32E;}
	.st81{fill:#FDC430;}
	.st82{fill:#FDC431;}
	.st83{fill:#FDC533;}
	.st84{fill:#FDC634;}
	.st85{fill:#FDC636;}
	.st86{fill:#FDC737;}
	.st87{fill:#FDC739;}
	.st88{fill:#FCC83A;}
	.st89{fill:#FCC83C;}
	.st90{fill:#FCC93D;}
	.st91{fill:#FCC93F;}
	.st92{fill:#FCCA40;}
	.st93{fill:#FCCA41;}
	.st94{fill:#FCCB43;}
	.st95{fill:#FCCB44;}
	.st96{fill:#FCCC46;}
	.st97{fill:#FCCC47;}
	.st98{fill:#FCCD48;}
	.st99{fill:#FCCD4A;}
	.st100{fill:#FCCE4B;}
	.st101{fill:#FCCE4C;}
	.st102{fill:#FCCF4E;}
	.st103{fill:#FCCF4F;}
	.st104{fill:#FCCF50;}
	.st105{fill:#FBD052;}
	.st106{fill:#FBD053;}
	.st107{fill:#FBD154;}
	.st108{fill:#FBD156;}
	.st109{fill:#FBD257;}
	.st110{fill:#FBD258;}
	.st111{fill:#FBD359;}
	.st112{fill:#FBD35B;}
	.st113{fill:#FBD45C;}
	.st114{fill:#FBD45D;}
	.st115{fill:#FBD45E;}
	.st116{fill:#FBD560;}
	.st117{fill:#FBD561;}
	.st118{fill:#FBD662;}
	.st119{fill:#FBD663;}
	.st120{fill:#FBD664;}
	.st121{fill:#FBD765;}
	.st122{fill:#FBD767;}
	.st123{fill:#FAD868;}
	.st124{fill:#FAD869;}
	.st125{fill:#FAD96A;}
	.st126{fill:#FAD96B;}
	.st127{fill:#FAD96C;}
	.st128{fill:#FADA6D;}
	.st129{fill:#FADA6E;}
	.st130{fill:#FADA6F;}
	.st131{fill:#FADB70;}
	.st132{fill:#FADB71;}
	.st133{fill:#FADC73;}
	.st134{fill:#FADC74;}
	.st135{fill:#FADC75;}
	.st136{fill:#FADD76;}
	.st137{fill:#FADD77;}
	.st138{fill:#FADD78;}
	.st139{fill:#FADE79;}
	.st140{fill:#FADE7A;}
	.st141{fill:#FADF7B;}
	.st142{fill:#FADF7C;}
	.st143{fill:#FADF7D;}
	.st144{fill:#FAE07E;}
	.st145{fill:#F9E07F;}
	.st146{fill:#F9E080;}
	.st147{fill:#F9E181;}
	.st148{fill:#F9E182;}
	.st149{fill:#F9E183;}
	.st150{fill:#F9E284;}
	.st151{fill:#F9E285;}
	.st152{fill:#F9E286;}
	.st153{fill:#F9E387;}
	.st154{fill:#F9E388;}
	.st155{fill:#F9E489;}
	.st156{fill:#F9E48A;}
	.st157{fill:#F9E48B;}
	.st158{fill:#F9E58C;}
	.st159{fill:#F9E58D;}
	.st160{fill:#F9E58E;}
	.st161{fill:#F9E68F;}
	.st162{fill:#F9E690;}
	.st163{fill:#F9E691;}
	.st164{fill:#F9E792;}
	.st165{fill:#F9E793;}
	.st166{fill:#F9E794;}
	.st167{fill:#F9E895;}
	.st168{fill:#F8E896;}
	.st169{fill:#F8E897;}
	.st170{fill:#F8E998;}
	.st171{fill:#F8E999;}
	.st172{fill:#F8E99A;}
	.st173{fill:#F8EA9A;}
	.st174{fill:#F8EA9B;}
	.st175{fill:#F8EA9C;}
	.st176{fill:#F8EB9D;}
	.st177{fill:#F8EB9E;}
	.st178{fill:#F8EB9F;}
	.st179{fill:#F8EBA0;}
	.st180{fill:#F8ECA0;}
	.st181{fill:#F8ECA1;}
	.st182{clip-path:url(#SVGID_4_);}
	.st183{fill:#DC8000;}
	.st184{fill:#DB7F00;}
	.st185{fill:#DA7F00;}
	.st186{fill:#D97E00;}
	.st187{fill:#D87E00;}
	.st188{fill:#D77D00;}
	.st189{fill:#D67C00;}
	.st190{fill:#D57C00;}
	.st191{fill:#D47B00;}
	.st192{fill:#D37B00;}
	.st193{fill:#D27A00;}
	.st194{fill:#D17900;}
	.st195{fill:#D07900;}
	.st196{fill:#CF7800;}
	.st197{fill:#CE7800;}
	.st198{fill:#CD7700;}
	.st199{fill:#CC7600;}
	.st200{fill:#CB7600;}
	.st201{fill:#CA7500;}
	.st202{fill:#C97500;}
	.st203{fill:#C87400;}
	.st204{fill:#C77300;}
	.st205{fill:#C67300;}
	.st206{fill:#C57200;}
	.st207{fill:#C47200;}
	.st208{fill:#C37100;}
	.st209{fill:#C17000;}
	.st210{fill:#C07000;}
	.st211{fill:#BF6F00;}
	.st212{fill:#BE6F00;}
	.st213{fill:#BD6E00;}
	.st214{fill:#BC6D00;}
	.st215{fill:#BB6D00;}
	.st216{fill:#BA6C00;}
	.st217{fill:#B96C00;}
	.st218{fill:#B86B00;}
	.st219{fill:#B76A00;}
	.st220{fill:#B66A00;}
	.st221{fill:#B56900;}
	.st222{fill:#B46900;}
	.st223{fill:#B36800;}
	.st224{fill:#B26700;}
	.st225{fill:#B16700;}
	.st226{fill:#B06600;}
	.st227{fill:#AF6600;}
	.st228{fill:#AE6500;}
	.st229{fill:#AD6400;}
	.st230{fill:#AC6400;}
	.st231{fill:#AB6300;}
	.st232{fill:#AA6300;}
	.st233{fill:#A96200;}
	.st234{opacity:0.5;}
	.st235{fill:#FFA200;}
</style>
<title>Ресурс 12</title>
<g>
	<defs>
		<path id="SVGID_1_" d="M0.1,3.1L6.9,10L14,3.4c-1.8-2.1-4.4-3.2-7.1-3.1C4.3,0.4,1.9,1.4,0.1,3.1z"/>
	</defs>
	<clipPath id="SVGID_2_">
		<use xlink:href="#SVGID_1_"  style="overflow:visible;"/>
	</clipPath>
	<g class="st0">
		<rect x="0.1" y="0.1" class="st1" width="13.9" height="9.9"/>
		<ellipse class="st1" cx="6.9" cy="9.9" rx="9.2" ry="9.2"/>
		<ellipse class="st1" cx="6.9" cy="9.9" rx="9.2" ry="9.2"/>
		<ellipse class="st1" cx="6.9" cy="9.9" rx="9.2" ry="9.2"/>
		<ellipse class="st2" cx="6.9" cy="9.9" rx="9.2" ry="9.2"/>
		<ellipse class="st2" cx="6.9" cy="9.9" rx="9.2" ry="9.2"/>
		<ellipse class="st2" cx="6.9" cy="9.9" rx="9.2" ry="9.2"/>
		<ellipse class="st3" cx="6.9" cy="9.9" rx="9.2" ry="9.1"/>
		<ellipse class="st3" cx="6.9" cy="9.9" rx="9.1" ry="9.1"/>
		<ellipse class="st4" cx="6.9" cy="9.9" rx="9.1" ry="9.1"/>
		<ellipse class="st4" cx="6.9" cy="9.9" rx="9.1" ry="9.1"/>
		<ellipse class="st5" cx="6.9" cy="9.9" rx="9.1" ry="9.1"/>
		<ellipse class="st5" cx="6.9" cy="9.9" rx="9.1" ry="9.1"/>
		<ellipse class="st6" cx="6.9" cy="9.9" rx="9.1" ry="9.1"/>
		<ellipse class="st6" cx="6.9" cy="9.9" rx="9.1" ry="9.1"/>
		<ellipse class="st7" cx="6.9" cy="9.9" rx="9.1" ry="9"/>
		<ellipse class="st8" cx="6.9" cy="9.9" rx="9" ry="9"/>
		<ellipse class="st9" cx="6.9" cy="9.9" rx="9" ry="9"/>
		<ellipse class="st9" cx="6.9" cy="9.9" rx="9" ry="9"/>
		<ellipse class="st10" cx="6.9" cy="9.9" rx="9" ry="9"/>
		<ellipse class="st11" cx="6.9" cy="9.9" rx="9" ry="9"/>
		<ellipse class="st12" cx="6.9" cy="9.9" rx="9" ry="9"/>
		<ellipse class="st13" cx="6.9" cy="9.9" rx="9" ry="9"/>
		<ellipse class="st13" cx="6.9" cy="9.9" rx="8.9" ry="9"/>
		<ellipse class="st14" cx="6.9" cy="9.9" rx="8.9" ry="8.9"/>
		<ellipse class="st15" cx="6.9" cy="9.9" rx="8.9" ry="8.9"/>
		<ellipse class="st16" cx="6.9" cy="9.9" rx="8.9" ry="8.9"/>
		<ellipse class="st17" cx="6.9" cy="9.9" rx="8.9" ry="8.9"/>
		<ellipse class="st18" cx="6.9" cy="9.9" rx="8.9" ry="8.9"/>
		<ellipse class="st19" cx="6.9" cy="9.9" rx="8.9" ry="8.9"/>
		<ellipse class="st20" cx="6.9" cy="9.9" rx="8.9" ry="8.9"/>
		<ellipse class="st21" cx="6.9" cy="9.9" rx="8.9" ry="8.8"/>
		<ellipse class="st22" cx="6.9" cy="9.9" rx="8.8" ry="8.8"/>
		<ellipse class="st23" cx="6.9" cy="9.9" rx="8.8" ry="8.8"/>
		<ellipse class="st24" cx="6.9" cy="9.9" rx="8.8" ry="8.8"/>
		<ellipse class="st25" cx="6.9" cy="9.9" rx="8.8" ry="8.8"/>
		<ellipse class="st26" cx="6.9" cy="9.9" rx="8.8" ry="8.8"/>
		<ellipse class="st27" cx="6.9" cy="9.9" rx="8.8" ry="8.8"/>
		<ellipse class="st28" cx="6.9" cy="9.9" rx="8.8" ry="8.8"/>
		<ellipse class="st29" cx="6.9" cy="9.9" rx="8.7" ry="8.7"/>
		<ellipse class="st30" cx="6.9" cy="9.9" rx="8.7" ry="8.7"/>
		<ellipse class="st31" cx="6.9" cy="9.9" rx="8.7" ry="8.7"/>
		<ellipse class="st32" cx="6.9" cy="9.9" rx="8.7" ry="8.7"/>
		<ellipse class="st33" cx="6.9" cy="9.9" rx="8.7" ry="8.7"/>
		<ellipse class="st34" cx="6.9" cy="9.9" rx="8.7" ry="8.7"/>
		<ellipse class="st35" cx="6.9" cy="9.9" rx="8.7" ry="8.7"/>
		<ellipse class="st36" cx="6.9" cy="9.9" rx="8.6" ry="8.6"/>
		<ellipse class="st37" cx="6.9" cy="9.9" rx="8.6" ry="8.6"/>
		<ellipse class="st38" cx="6.9" cy="9.9" rx="8.6" ry="8.6"/>
		<ellipse class="st39" cx="6.9" cy="9.9" rx="8.6" ry="8.6"/>
		<ellipse class="st40" cx="6.9" cy="9.9" rx="8.6" ry="8.6"/>
		<ellipse class="st41" cx="6.9" cy="9.9" rx="8.6" ry="8.6"/>
		<ellipse class="st42" cx="6.9" cy="9.9" rx="8.6" ry="8.6"/>
		<ellipse class="st43" cx="6.9" cy="9.9" rx="8.6" ry="8.5"/>
		<ellipse class="st44" cx="6.9" cy="9.9" rx="8.6" ry="8.5"/>
		<ellipse class="st45" cx="6.9" cy="9.9" rx="8.5" ry="8.5"/>
		<ellipse class="st46" cx="6.9" cy="9.9" rx="8.5" ry="8.5"/>
		<ellipse class="st47" cx="6.9" cy="9.9" rx="8.5" ry="8.5"/>
		<ellipse class="st48" cx="6.9" cy="9.9" rx="8.5" ry="8.5"/>
		<ellipse class="st49" cx="6.9" cy="9.9" rx="8.5" ry="8.5"/>
		<ellipse class="st50" cx="6.9" cy="9.9" rx="8.5" ry="8.5"/>
		<ellipse class="st51" cx="6.9" cy="9.9" rx="8.4" ry="8.5"/>
		<ellipse class="st52" cx="6.9" cy="9.9" rx="8.4" ry="8.4"/>
		<ellipse class="st52" cx="6.9" cy="9.9" rx="8.4" ry="8.4"/>
		<ellipse class="st53" cx="6.9" cy="9.9" rx="8.4" ry="8.4"/>
		<ellipse class="st54" cx="6.9" cy="9.9" rx="8.3" ry="8.3"/>
		<ellipse class="st55" cx="6.9" cy="9.9" rx="8.3" ry="8.3"/>
		<ellipse class="st56" cx="6.9" cy="9.9" rx="8.2" ry="8.2"/>
		<ellipse class="st57" cx="6.9" cy="9.9" rx="8.2" ry="8.2"/>
		<ellipse class="st58" cx="6.9" cy="9.9" rx="8.1" ry="8.1"/>
		<ellipse class="st59" cx="6.9" cy="9.9" rx="8.1" ry="8.1"/>
		<ellipse class="st60" cx="6.9" cy="9.9" rx="8" ry="8"/>
		<ellipse class="st61" cx="6.9" cy="9.9" rx="8" ry="8"/>
		<ellipse class="st62" cx="6.9" cy="9.9" rx="7.9" ry="7.9"/>
		<ellipse class="st63" cx="6.9" cy="9.9" rx="7.9" ry="7.9"/>
		<ellipse class="st64" cx="6.9" cy="9.9" rx="7.8" ry="7.8"/>
		<ellipse class="st65" cx="6.9" cy="9.9" rx="7.8" ry="7.7"/>
		<ellipse class="st66" cx="6.9" cy="9.9" rx="7.7" ry="7.7"/>
		<ellipse class="st67" cx="6.9" cy="9.9" rx="7.6" ry="7.6"/>
		<ellipse class="st68" cx="6.9" cy="9.9" rx="7.6" ry="7.6"/>
		<ellipse class="st69" cx="6.9" cy="9.9" rx="7.5" ry="7.5"/>
		<ellipse class="st70" cx="6.9" cy="9.9" rx="7.5" ry="7.5"/>
		<ellipse class="st71" cx="6.9" cy="9.9" rx="7.4" ry="7.4"/>
		<ellipse class="st72" cx="6.9" cy="9.9" rx="7.4" ry="7.4"/>
		<ellipse class="st73" cx="6.9" cy="9.9" rx="7.3" ry="7.3"/>
		<ellipse class="st74" cx="6.9" cy="9.9" rx="7.3" ry="7.3"/>
		<ellipse class="st75" cx="6.9" cy="9.9" rx="7.2" ry="7.2"/>
		<ellipse class="st76" cx="6.9" cy="9.9" rx="7.2" ry="7.2"/>
		<ellipse class="st77" cx="6.9" cy="9.9" rx="7.1" ry="7.1"/>
		<ellipse class="st78" cx="6.9" cy="9.9" rx="7.1" ry="7.1"/>
		<ellipse class="st79" cx="6.9" cy="9.9" rx="7" ry="7"/>
		<ellipse class="st80" cx="6.9" cy="9.9" rx="7" ry="7"/>
		<ellipse class="st81" cx="6.9" cy="9.9" rx="6.9" ry="6.9"/>
		<ellipse class="st82" cx="6.9" cy="9.9" rx="6.9" ry="6.9"/>
		<ellipse class="st83" cx="6.9" cy="9.9" rx="6.8" ry="6.8"/>
		<ellipse class="st84" cx="6.9" cy="9.9" rx="6.8" ry="6.8"/>
		<ellipse class="st85" cx="6.9" cy="9.9" rx="6.7" ry="6.7"/>
		<ellipse class="st86" cx="6.9" cy="9.9" rx="6.6" ry="6.6"/>
		<ellipse class="st87" cx="6.9" cy="9.9" rx="6.6" ry="6.6"/>
		<ellipse class="st88" cx="6.9" cy="9.9" rx="6.5" ry="6.5"/>
		<ellipse class="st89" cx="6.9" cy="9.9" rx="6.5" ry="6.5"/>
		<ellipse class="st90" cx="6.9" cy="9.9" rx="6.4" ry="6.4"/>
		<ellipse class="st91" cx="6.9" cy="9.9" rx="6.4" ry="6.4"/>
		<ellipse class="st92" cx="6.9" cy="9.9" rx="6.3" ry="6.3"/>
		<ellipse class="st93" cx="6.9" cy="9.9" rx="6.3" ry="6.3"/>
		<ellipse class="st94" cx="6.9" cy="9.9" rx="6.2" ry="6.2"/>
		<ellipse class="st95" cx="6.9" cy="9.9" rx="6.2" ry="6.2"/>
		<circle class="st96" cx="6.9" cy="9.9" r="6.1"/>
		<circle class="st97" cx="6.9" cy="9.9" r="6.1"/>
		<circle class="st98" cx="6.9" cy="9.9" r="6"/>
		<circle class="st99" cx="6.9" cy="9.9" r="6"/>
		<circle class="st100" cx="6.9" cy="9.9" r="5.9"/>
		<circle class="st101" cx="6.9" cy="9.9" r="5.9"/>
		<circle class="st102" cx="6.9" cy="9.9" r="5.8"/>
		<circle class="st103" cx="6.9" cy="9.9" r="5.8"/>
		<circle class="st104" cx="6.9" cy="9.9" r="5.7"/>
		<circle class="st105" cx="6.9" cy="9.9" r="5.6"/>
		<circle class="st106" cx="6.9" cy="9.9" r="5.6"/>
		<circle class="st107" cx="6.9" cy="9.9" r="5.6"/>
		<circle class="st108" cx="6.9" cy="9.9" r="5.5"/>
		<circle class="st109" cx="6.9" cy="9.9" r="5.4"/>
		<circle class="st110" cx="6.9" cy="9.9" r="5.4"/>
		<circle class="st111" cx="6.9" cy="9.9" r="5.3"/>
		<circle class="st112" cx="6.9" cy="9.9" r="5.3"/>
		<circle class="st113" cx="6.9" cy="9.9" r="5.2"/>
		<circle class="st114" cx="6.9" cy="9.9" r="5.2"/>
		<circle class="st115" cx="6.9" cy="9.9" r="5.1"/>
		<circle class="st116" cx="6.9" cy="9.9" r="5.1"/>
		<circle class="st117" cx="6.9" cy="9.9" r="5"/>
		<circle class="st118" cx="6.9" cy="9.9" r="5"/>
		<circle class="st119" cx="6.9" cy="9.9" r="4.9"/>
		<circle class="st120" cx="6.9" cy="9.9" r="4.9"/>
		<circle class="st121" cx="6.9" cy="9.9" r="4.8"/>
		<circle class="st122" cx="6.9" cy="9.9" r="4.8"/>
		<circle class="st123" cx="6.9" cy="9.9" r="4.7"/>
		<circle class="st124" cx="6.9" cy="9.9" r="4.7"/>
		<circle class="st125" cx="6.9" cy="9.9" r="4.6"/>
		<circle class="st126" cx="6.9" cy="9.9" r="4.6"/>
		<circle class="st127" cx="6.9" cy="9.9" r="4.5"/>
		<circle class="st128" cx="6.9" cy="9.9" r="4.4"/>
		<circle class="st129" cx="6.9" cy="9.9" r="4.4"/>
		<circle class="st130" cx="6.9" cy="9.9" r="4.3"/>
		<circle class="st131" cx="6.9" cy="9.9" r="4.3"/>
		<circle class="st132" cx="6.9" cy="9.9" r="4.2"/>
		<circle class="st133" cx="6.9" cy="9.9" r="4.2"/>
		<circle class="st134" cx="6.9" cy="9.9" r="4.1"/>
		<circle class="st135" cx="6.9" cy="9.9" r="4.1"/>
		<circle class="st136" cx="6.9" cy="9.9" r="4"/>
		<circle class="st137" cx="6.9" cy="9.9" r="4"/>
		<circle class="st138" cx="6.9" cy="9.9" r="3.9"/>
		<circle class="st139" cx="6.9" cy="9.9" r="3.9"/>
		<circle class="st140" cx="6.9" cy="9.9" r="3.8"/>
		<circle class="st140" cx="6.9" cy="9.9" r="3.8"/>
		<circle class="st141" cx="6.9" cy="9.9" r="3.7"/>
		<circle class="st142" cx="6.9" cy="9.9" r="3.7"/>
		<circle class="st143" cx="6.9" cy="9.9" r="3.6"/>
		<circle class="st144" cx="6.9" cy="9.9" r="3.6"/>
		<circle class="st145" cx="6.9" cy="9.9" r="3.5"/>
		<circle class="st146" cx="6.9" cy="9.9" r="3.5"/>
		<circle class="st147" cx="6.9" cy="9.9" r="3.4"/>
		<circle class="st148" cx="6.9" cy="9.9" r="3.4"/>
		<circle class="st149" cx="6.9" cy="9.9" r="3.3"/>
		<circle class="st150" cx="6.9" cy="9.9" r="3.3"/>
		<circle class="st150" cx="6.9" cy="9.9" r="3.2"/>
		<circle class="st151" cx="6.9" cy="9.9" r="3.1"/>
		<circle class="st152" cx="6.9" cy="9.9" r="3.1"/>
		<circle class="st153" cx="6.9" cy="9.9" r="3"/>
		<circle class="st154" cx="6.9" cy="9.9" r="3"/>
		<circle class="st154" cx="6.9" cy="9.9" r="2.9"/>
		<circle class="st155" cx="6.9" cy="9.9" r="2.9"/>
		<circle class="st156" cx="6.9" cy="9.9" r="2.8"/>
		<circle class="st157" cx="6.9" cy="9.9" r="2.8"/>
		<circle class="st157" cx="6.9" cy="9.9" r="2.7"/>
		<circle class="st158" cx="6.9" cy="9.9" r="2.7"/>
		<circle class="st159" cx="6.9" cy="9.9" r="2.6"/>
		<circle class="st160" cx="6.9" cy="9.9" r="2.6"/>
		<circle class="st160" cx="6.9" cy="9.9" r="2.5"/>
		<circle class="st161" cx="6.9" cy="9.9" r="2.5"/>
		<circle class="st162" cx="6.9" cy="9.9" r="2.4"/>
		<circle class="st162" cx="6.9" cy="9.9" r="2.4"/>
		<circle class="st163" cx="6.9" cy="9.9" r="2.3"/>
		<circle class="st164" cx="6.9" cy="9.9" r="2.3"/>
		<circle class="st164" cx="6.9" cy="9.9" r="2.2"/>
		<circle class="st165" cx="6.9" cy="9.9" r="2.1"/>
		<circle class="st166" cx="6.9" cy="9.9" r="2.1"/>
		<circle class="st166" cx="6.9" cy="9.9" r="2"/>
		<circle class="st167" cx="6.9" cy="9.9" r="2"/>
		<circle class="st167" cx="6.9" cy="9.9" r="1.9"/>
		<circle class="st168" cx="6.9" cy="9.9" r="1.9"/>
		<circle class="st168" cx="6.9" cy="9.9" r="1.8"/>
		<circle class="st169" cx="6.9" cy="9.9" r="1.8"/>
		<circle class="st170" cx="6.9" cy="9.9" r="1.7"/>
		<circle class="st170" cx="6.9" cy="9.9" r="1.7"/>
		<circle class="st171" cx="6.9" cy="9.9" r="1.6"/>
		<circle class="st171" cx="6.9" cy="9.9" r="1.6"/>
		<circle class="st172" cx="6.9" cy="9.9" r="1.5"/>
		<circle class="st173" cx="6.9" cy="9.9" r="1.5"/>
		<circle class="st173" cx="6.9" cy="9.9" r="1.4"/>
		<circle class="st174" cx="6.9" cy="9.9" r="1.4"/>
		<circle class="st174" cx="6.9" cy="9.9" r="1.3"/>
		<circle class="st175" cx="6.9" cy="9.9" r="1.3"/>
		<circle class="st175" cx="6.9" cy="9.9" r="1.2"/>
		<circle class="st175" cx="6.9" cy="9.9" r="1.1"/>
		<circle class="st176" cx="6.9" cy="9.9" r="1.1"/>
		<circle class="st176" cx="6.9" cy="9.9" r="1.1"/>
		<circle class="st177" cx="6.9" cy="9.9" r="1"/>
		<circle class="st177" cx="6.9" cy="9.9" r="0.9"/>
		<circle class="st177" cx="6.9" cy="9.9" r="0.9"/>
		<circle class="st178" cx="6.9" cy="9.9" r="0.8"/>
		<circle class="st178" cx="6.9" cy="9.9" r="0.8"/>
		<circle class="st178" cx="6.9" cy="9.9" r="0.7"/>
		<circle class="st178" cx="6.9" cy="9.9" r="0.7"/>
		<circle class="st179" cx="6.9" cy="9.9" r="0.6"/>
		<circle class="st180" cx="6.9" cy="9.9" r="0.6"/>
		<circle class="st180" cx="6.9" cy="9.9" r="0.5"/>
		<circle class="st180" cx="6.9" cy="9.9" r="0.5"/>
		<circle class="st180" cx="6.9" cy="9.9" r="0.4"/>
		<circle class="st181" cx="6.9" cy="9.9" r="0.4"/>
		<circle class="st181" cx="6.9" cy="9.9" r="0.3"/>
		<circle class="st181" cx="6.9" cy="9.9" r="0.3"/>
		<circle class="st181" cx="6.9" cy="9.9" r="0.2"/>
		<path class="st181" d="M6.9,9.7c0.1,0,0.2,0.1,0.2,0.2C7.1,9.9,7,10,6.9,10C6.9,10,6.8,10,6.8,9.9C6.8,9.8,6.8,9.7,6.9,9.7
			C6.9,9.7,6.9,9.7,6.9,9.7z"/>
		<path class="st181" d="M6.9,9.8C7,9.8,7,9.8,6.9,9.8C7,9.9,7,10,6.9,10c0,0,0,0,0,0c0,0-0.1,0-0.1-0.1C6.8,9.8,6.8,9.8,6.9,9.8
			C6.9,9.8,6.9,9.8,6.9,9.8z"/>
		<path class="st181" d="M6.9,9.8C6.9,9.8,7,9.8,6.9,9.8 M6.9,9.8C6.9,9.8,6.9,9.8,6.9,9.8L6.9,9.8z"/>
	</g>
</g>
<g>
	<defs>
		<path id="SVGID_3_" d="M13.9,3.6c-0.1,0-0.2,0-0.2-0.1c-0.2-0.3-0.4-0.6-0.7-0.8h-0.1V2.6c-0.1-0.5-0.9-0.7-1.2-0.7h-0.1V1.8
			c-0.2-0.4-1.1-0.6-1.4-0.7h-0.1L10,0.9C9.6,0.4,8.4,0.5,7.9,0.5H7.8L7.8,0.5c-0.2-0.2-1.5,0-2.6,0.3H5.2l-0.1,0
			C4.8,0.6,3.8,1,3.3,1.3H3.3H3.2C2.6,1.2,1.8,1.9,1.6,2.2l0,0H1.5C1,2.4,0.6,2.7,0.4,3.2c-0.1,0.1-0.2,0.1-0.3,0l0,0
			C0,3.1,0,3.1,0,3c0.3-0.5,0.8-0.9,1.3-1.1c0.5-0.6,1.2-0.9,1.9-1c0.3-0.2,1.4-0.7,2-0.6C5.8,0.2,7.4-0.2,8,0.1
			c0.8-0.1,1.6,0,2.3,0.5c0.6,0.1,1.2,0.4,1.6,0.8c0.3,0.1,1.2,0.3,1.4,0.9c0.4,0.2,0.7,0.5,0.9,0.9C14.2,3.4,14.1,3.5,13.9,3.6
			C14,3.6,14,3.6,13.9,3.6L13.9,3.6z"/>
	</defs>
	<clipPath id="SVGID_4_">
		<use xlink:href="#SVGID_3_"  style="overflow:visible;"/>
	</clipPath>
	<g class="st182">
		<polygon class="st183" points="0,2.6 0,3.6 0,3.6 		"/>
		<polygon class="st183" points="0,0.3 0.1,3.6 0,3.6 0,2.6 		"/>
		<polygon class="st184" points="0.1,-0.2 0.3,3.6 0.1,3.6 0,0.3 0,-0.2 		"/>
		<polygon class="st185" points="0.2,-0.2 0.4,3.6 0.3,3.6 0.1,-0.2 		"/>
		<polygon class="st186" points="0.3,-0.2 0.5,3.6 0.4,3.6 0.2,-0.2 		"/>
		<polygon class="st187" points="0.4,-0.2 0.6,3.6 0.5,3.6 0.3,-0.2 		"/>
		<polygon class="st188" points="0.5,-0.2 0.7,3.6 0.6,3.6 0.4,-0.2 		"/>
		<polygon class="st189" points="0.7,-0.2 0.9,3.6 0.7,3.6 0.5,-0.2 		"/>
		<polygon class="st190" points="0.8,-0.2 1,3.6 0.9,3.6 0.7,-0.2 		"/>
		<polygon class="st191" points="0.9,-0.2 1.1,3.6 1,3.6 0.8,-0.2 		"/>
		<polygon class="st192" points="1,-0.2 1.2,3.6 1.1,3.6 0.9,-0.2 		"/>
		<polygon class="st193" points="1.1,-0.2 1.3,3.6 1.2,3.6 1,-0.2 		"/>
		<polygon class="st194" points="1.2,-0.2 1.4,3.6 1.3,3.6 1.1,-0.2 		"/>
		<polygon class="st195" points="1.4,-0.2 1.6,3.6 1.4,3.6 1.2,-0.2 		"/>
		<polygon class="st196" points="1.5,-0.2 1.7,3.6 1.6,3.6 1.4,-0.2 		"/>
		<polygon class="st197" points="1.6,-0.2 1.8,3.6 1.7,3.6 1.5,-0.2 		"/>
		<polygon class="st198" points="1.7,-0.2 1.9,3.6 1.8,3.6 1.6,-0.2 		"/>
		<polygon class="st199" points="1.8,-0.2 2,3.6 1.9,3.6 1.7,-0.2 		"/>
		<polygon class="st200" points="2,-0.2 2.1,3.6 2,3.6 1.8,-0.2 		"/>
		<polygon class="st201" points="2.1,-0.2 2.3,3.6 2.1,3.6 2,-0.2 		"/>
		<polygon class="st202" points="2.2,-0.2 2.4,3.6 2.3,3.6 2.1,-0.2 		"/>
		<polygon class="st203" points="2.3,-0.2 2.5,3.6 2.4,3.6 2.2,-0.2 		"/>
		<polygon class="st204" points="2.4,-0.2 2.6,3.6 2.5,3.6 2.3,-0.2 		"/>
		<polygon class="st205" points="2.5,-0.2 2.7,3.6 2.6,3.6 2.4,-0.2 		"/>
		<polygon class="st206" points="2.7,-0.2 2.9,3.6 2.7,3.6 2.5,-0.2 		"/>
		<polygon class="st207" points="2.8,-0.2 3,3.6 2.9,3.6 2.7,-0.2 		"/>
		<polygon class="st208" points="2.9,-0.2 3.1,3.6 3,3.6 2.8,-0.2 		"/>
		<polygon class="st209" points="3,-0.2 3.2,3.6 3.1,3.6 2.9,-0.2 		"/>
		<polygon class="st210" points="3.1,-0.2 3.3,3.6 3.2,3.6 3,-0.2 		"/>
		<polygon class="st211" points="3.2,-0.2 3.4,3.6 3.3,3.6 3.1,-0.2 		"/>
		<polygon class="st212" points="3.4,-0.2 3.6,3.6 3.4,3.6 3.2,-0.2 		"/>
		<polygon class="st213" points="3.5,-0.2 3.7,3.6 3.6,3.6 3.4,-0.2 		"/>
		<polygon class="st214" points="3.6,-0.2 3.8,3.6 3.7,3.6 3.5,-0.2 		"/>
		<polygon class="st215" points="3.7,-0.2 3.9,3.6 3.8,3.6 3.6,-0.2 		"/>
		<polygon class="st216" points="3.8,-0.2 4,3.6 3.9,3.6 3.7,-0.2 		"/>
		<polygon class="st217" points="4,-0.2 4.1,3.6 4,3.6 3.8,-0.2 		"/>
		<polygon class="st218" points="4.1,-0.2 4.3,3.6 4.1,3.6 4,-0.2 		"/>
		<polygon class="st219" points="4.2,-0.2 4.4,3.6 4.3,3.6 4.1,-0.2 		"/>
		<polygon class="st220" points="4.3,-0.2 4.5,3.6 4.4,3.6 4.2,-0.2 		"/>
		<polygon class="st221" points="4.4,-0.2 4.6,3.6 4.5,3.6 4.3,-0.2 		"/>
		<polygon class="st222" points="4.5,-0.2 4.7,3.6 4.6,3.6 4.4,-0.2 		"/>
		<polygon class="st223" points="4.7,-0.2 4.9,3.6 4.7,3.6 4.5,-0.2 		"/>
		<polygon class="st224" points="4.8,-0.2 5,3.6 4.9,3.6 4.7,-0.2 		"/>
		<polygon class="st225" points="4.9,-0.2 5.1,3.6 5,3.6 4.8,-0.2 		"/>
		<polygon class="st226" points="5,-0.2 5.2,3.6 5.1,3.6 4.9,-0.2 		"/>
		<polygon class="st227" points="5.1,-0.2 5.3,3.6 5.2,3.6 5,-0.2 		"/>
		<polygon class="st228" points="5.2,-0.2 5.4,3.6 5.3,3.6 5.1,-0.2 		"/>
		<polygon class="st229" points="5.4,-0.2 5.6,3.6 5.4,3.6 5.2,-0.2 		"/>
		<polygon class="st230" points="5.5,-0.2 5.7,3.6 5.6,3.6 5.4,-0.2 		"/>
		<polygon class="st231" points="5.6,-0.2 5.8,3.6 5.7,3.6 5.5,-0.2 		"/>
		<polygon class="st232" points="5.7,-0.2 5.9,3.6 5.8,3.6 5.6,-0.2 		"/>
		<polygon class="st233" points="5.8,-0.2 6,3.6 5.9,3.6 5.7,-0.2 		"/>
		<polygon class="st233" points="5.9,-0.2 6.1,3.6 6,3.6 5.8,-0.2 		"/>
		<polygon class="st232" points="6,-0.2 6.2,3.6 6.1,3.6 5.9,-0.2 		"/>
		<polygon class="st231" points="6,-0.2 6.2,3.6 6.2,3.6 6,-0.2 		"/>
		<polygon class="st230" points="6.1,-0.2 6.3,3.6 6.2,3.6 6,-0.2 		"/>
		<polygon class="st229" points="6.1,-0.2 6.3,3.6 6.3,3.6 6.1,-0.2 		"/>
		<polygon class="st228" points="6.2,-0.2 6.4,3.6 6.3,3.6 6.1,-0.2 		"/>
		<polygon class="st227" points="6.3,-0.2 6.5,3.6 6.4,3.6 6.2,-0.2 		"/>
		<polygon class="st226" points="6.3,-0.2 6.5,3.6 6.5,3.6 6.3,-0.2 		"/>
		<polygon class="st225" points="6.4,-0.2 6.6,3.6 6.5,3.6 6.3,-0.2 		"/>
		<polygon class="st224" points="6.5,-0.2 6.7,3.6 6.6,3.6 6.4,-0.2 		"/>
		<polygon class="st223" points="6.5,-0.2 6.7,3.6 6.7,3.6 6.5,-0.2 		"/>
		<polygon class="st222" points="6.6,-0.2 6.8,3.6 6.7,3.6 6.5,-0.2 		"/>
		<polygon class="st221" points="6.6,-0.2 6.8,3.6 6.8,3.6 6.6,-0.2 		"/>
		<polygon class="st220" points="6.7,-0.2 6.9,3.6 6.8,3.6 6.6,-0.2 		"/>
		<polygon class="st219" points="6.8,-0.2 7,3.6 6.9,3.6 6.7,-0.2 		"/>
		<polygon class="st218" points="6.8,-0.2 7,3.6 7,3.6 6.8,-0.2 		"/>
		<polygon class="st217" points="6.9,-0.2 7.1,3.6 7,3.6 6.8,-0.2 		"/>
		<polygon class="st216" points="7,-0.2 7.1,3.6 7.1,3.6 6.9,-0.2 		"/>
		<polygon class="st215" points="7,-0.2 7.2,3.6 7.1,3.6 7,-0.2 		"/>
		<polygon class="st214" points="7.1,-0.2 7.3,3.6 7.2,3.6 7,-0.2 		"/>
		<polygon class="st213" points="7.1,-0.2 7.3,3.6 7.3,3.6 7.1,-0.2 		"/>
		<polygon class="st212" points="7.2,-0.2 7.4,3.6 7.3,3.6 7.1,-0.2 		"/>
		<polygon class="st211" points="7.3,-0.2 7.5,3.6 7.4,3.6 7.2,-0.2 		"/>
		<polygon class="st210" points="7.3,-0.2 7.5,3.6 7.5,3.6 7.3,-0.2 		"/>
		<polygon class="st209" points="7.4,-0.2 7.6,3.6 7.5,3.6 7.3,-0.2 		"/>
		<polygon class="st208" points="7.4,-0.2 7.6,3.6 7.6,3.6 7.4,-0.2 		"/>
		<polygon class="st207" points="7.5,-0.2 7.7,3.6 7.6,3.6 7.4,-0.2 		"/>
		<polygon class="st206" points="7.6,-0.2 7.8,3.6 7.7,3.6 7.5,-0.2 		"/>
		<polygon class="st205" points="7.6,-0.2 7.8,3.6 7.8,3.6 7.6,-0.2 		"/>
		<polygon class="st204" points="7.7,-0.2 7.9,3.6 7.8,3.6 7.6,-0.2 		"/>
		<polygon class="st203" points="7.8,-0.2 8,3.6 7.9,3.6 7.7,-0.2 		"/>
		<polygon class="st202" points="7.8,-0.2 8,3.6 8,3.6 7.8,-0.2 		"/>
		<polygon class="st201" points="7.9,-0.2 8.1,3.6 8,3.6 7.8,-0.2 		"/>
		<polygon class="st200" points="7.9,-0.2 8.1,3.6 8.1,3.6 7.9,-0.2 		"/>
		<polygon class="st199" points="8,-0.2 8.2,3.6 8.1,3.6 7.9,-0.2 		"/>
		<polygon class="st198" points="8.1,-0.2 8.3,3.6 8.2,3.6 8,-0.2 		"/>
		<polygon class="st197" points="8.1,-0.2 8.3,3.6 8.3,3.6 8.1,-0.2 		"/>
		<polygon class="st196" points="8.2,-0.2 8.4,3.6 8.3,3.6 8.1,-0.2 		"/>
		<polygon class="st195" points="8.3,-0.2 8.5,3.6 8.4,3.6 8.2,-0.2 		"/>
		<polygon class="st194" points="8.3,-0.2 8.5,3.6 8.5,3.6 8.3,-0.2 		"/>
		<polygon class="st193" points="8.4,-0.2 8.6,3.6 8.5,3.6 8.3,-0.2 		"/>
		<polygon class="st192" points="8.4,-0.2 8.6,3.6 8.6,3.6 8.4,-0.2 		"/>
		<polygon class="st191" points="8.5,-0.2 8.7,3.6 8.6,3.6 8.4,-0.2 		"/>
		<polygon class="st190" points="8.6,-0.2 8.8,3.6 8.7,3.6 8.5,-0.2 		"/>
		<polygon class="st189" points="8.6,-0.2 8.8,3.6 8.8,3.6 8.6,-0.2 		"/>
		<polygon class="st188" points="8.7,-0.2 8.9,3.6 8.8,3.6 8.6,-0.2 		"/>
		<polygon class="st187" points="8.8,-0.2 9,3.6 8.9,3.6 8.7,-0.2 		"/>
		<polygon class="st186" points="8.8,-0.2 9,3.6 9,3.6 8.8,-0.2 		"/>
		<polygon class="st185" points="8.9,-0.2 9.1,3.6 9,3.6 8.8,-0.2 		"/>
		<polygon class="st184" points="8.9,-0.2 9.1,3.6 9.1,3.6 8.9,-0.2 		"/>
		<polygon class="st183" points="9,-0.2 9.2,3.6 9.1,3.6 8.9,-0.2 		"/>
		<polygon class="st183" points="9,-0.2 9.2,3.6 9.2,3.6 9,-0.2 		"/>
		<polygon class="st184" points="9,-0.2 9.2,3.6 9.2,3.6 9,-0.2 		"/>
		<polygon class="st185" points="9.1,-0.2 9.3,3.6 9.2,3.6 9,-0.2 		"/>
		<polygon class="st186" points="9.1,-0.2 9.3,3.6 9.3,3.6 9.1,-0.2 		"/>
		<polygon class="st187" points="9.1,-0.2 9.3,3.6 9.3,3.6 9.1,-0.2 		"/>
		<polygon class="st188" points="9.1,-0.2 9.3,3.6 9.3,3.6 9.1,-0.2 		"/>
		<polygon class="st189" points="9.1,-0.2 9.3,3.6 9.3,3.6 9.1,-0.2 		"/>
		<polygon class="st190" points="9.2,-0.2 9.4,3.6 9.3,3.6 9.1,-0.2 		"/>
		<polygon class="st191" points="9.2,-0.2 9.4,3.6 9.4,3.6 9.2,-0.2 		"/>
		<polygon class="st192" points="9.2,-0.2 9.4,3.6 9.4,3.6 9.2,-0.2 		"/>
		<polygon class="st193" points="9.2,-0.2 9.4,3.6 9.4,3.6 9.2,-0.2 		"/>
		<polygon class="st194" points="9.3,-0.2 9.5,3.6 9.4,3.6 9.2,-0.2 		"/>
		<polygon class="st195" points="9.3,-0.2 9.5,3.6 9.5,3.6 9.3,-0.2 		"/>
		<polygon class="st196" points="9.3,-0.2 9.5,3.6 9.5,3.6 9.3,-0.2 		"/>
		<polygon class="st197" points="9.3,-0.2 9.5,3.6 9.5,3.6 9.3,-0.2 		"/>
		<polygon class="st198" points="9.3,-0.2 9.5,3.6 9.5,3.6 9.3,-0.2 		"/>
		<polygon class="st199" points="9.4,-0.2 9.6,3.6 9.5,3.6 9.3,-0.2 		"/>
		<polygon class="st200" points="9.4,-0.2 9.6,3.6 9.6,3.6 9.4,-0.2 		"/>
		<polygon class="st201" points="9.4,-0.2 9.6,3.6 9.6,3.6 9.4,-0.2 		"/>
		<polygon class="st202" points="9.4,-0.2 9.6,3.6 9.6,3.6 9.4,-0.2 		"/>
		<polygon class="st203" points="9.4,-0.2 9.6,3.6 9.6,3.6 9.4,-0.2 		"/>
		<polygon class="st204" points="9.5,-0.2 9.7,3.6 9.6,3.6 9.4,-0.2 		"/>
		<polygon class="st205" points="9.5,-0.2 9.7,3.6 9.7,3.6 9.5,-0.2 		"/>
		<polygon class="st206" points="9.5,-0.2 9.7,3.6 9.7,3.6 9.5,-0.2 		"/>
		<polygon class="st207" points="9.5,-0.2 9.7,3.6 9.7,3.6 9.5,-0.2 		"/>
		<polygon class="st208" points="9.6,-0.2 9.7,3.6 9.7,3.6 9.5,-0.2 		"/>
		<polygon class="st209" points="9.6,-0.2 9.8,3.6 9.7,3.6 9.6,-0.2 		"/>
		<polygon class="st210" points="9.6,-0.2 9.8,3.6 9.8,3.6 9.6,-0.2 		"/>
		<polygon class="st211" points="9.6,-0.2 9.8,3.6 9.8,3.6 9.6,-0.2 		"/>
		<polygon class="st212" points="9.6,-0.2 9.8,3.6 9.8,3.6 9.6,-0.2 		"/>
		<polygon class="st213" points="9.7,-0.2 9.9,3.6 9.8,3.6 9.6,-0.2 		"/>
		<polygon class="st214" points="9.7,-0.2 9.9,3.6 9.9,3.6 9.7,-0.2 		"/>
		<polygon class="st215" points="9.7,-0.2 9.9,3.6 9.9,3.6 9.7,-0.2 		"/>
		<polygon class="st216" points="9.7,-0.2 9.9,3.6 9.9,3.6 9.7,-0.2 		"/>
		<polygon class="st217" points="9.7,-0.2 9.9,3.6 9.9,3.6 9.7,-0.2 		"/>
		<polygon class="st218" points="9.8,-0.2 10,3.6 9.9,3.6 9.7,-0.2 		"/>
		<polygon class="st219" points="9.8,-0.2 10,3.6 10,3.6 9.8,-0.2 		"/>
		<polygon class="st220" points="9.8,-0.2 10,3.6 10,3.6 9.8,-0.2 		"/>
		<polygon class="st221" points="9.8,-0.2 10,3.6 10,3.6 9.8,-0.2 		"/>
		<polygon class="st222" points="9.8,-0.2 10,3.6 10,3.6 9.8,-0.2 		"/>
		<polygon class="st223" points="9.9,-0.2 10.1,3.6 10,3.6 9.8,-0.2 		"/>
		<polygon class="st224" points="9.9,-0.2 10.1,3.6 10.1,3.6 9.9,-0.2 		"/>
		<polygon class="st225" points="9.9,-0.2 10.1,3.6 10.1,3.6 9.9,-0.2 		"/>
		<polygon class="st226" points="9.9,-0.2 10.1,3.6 10.1,3.6 9.9,-0.2 		"/>
		<polygon class="st227" points="10,-0.2 10.2,3.6 10.1,3.6 9.9,-0.2 		"/>
		<polygon class="st228" points="10,-0.2 10.2,3.6 10.2,3.6 10,-0.2 		"/>
		<polygon class="st229" points="10,-0.2 10.2,3.6 10.2,3.6 10,-0.2 		"/>
		<polygon class="st230" points="10,-0.2 10.2,3.6 10.2,3.6 10,-0.2 		"/>
		<polygon class="st231" points="10,-0.2 10.2,3.6 10.2,3.6 10,-0.2 		"/>
		<polygon class="st232" points="10.1,-0.2 10.3,3.6 10.2,3.6 10,-0.2 		"/>
		<polygon class="st233" points="10.1,-0.2 10.3,3.6 10.3,3.6 10.1,-0.2 		"/>
		<polygon class="st233" points="10.1,-0.2 10.3,3.6 10.3,3.6 10.1,-0.2 		"/>
		<polygon class="st232" points="10.1,-0.2 10.3,3.6 10.3,3.6 10.1,-0.2 		"/>
		<polygon class="st231" points="10.2,-0.2 10.4,3.6 10.3,3.6 10.1,-0.2 		"/>
		<polygon class="st230" points="10.2,-0.2 10.4,3.6 10.4,3.6 10.2,-0.2 		"/>
		<polygon class="st229" points="10.2,-0.2 10.4,3.6 10.4,3.6 10.2,-0.2 		"/>
		<polygon class="st228" points="10.3,-0.2 10.5,3.6 10.4,3.6 10.2,-0.2 		"/>
		<polygon class="st227" points="10.3,-0.2 10.5,3.6 10.5,3.6 10.3,-0.2 		"/>
		<polygon class="st226" points="10.3,-0.2 10.5,3.6 10.5,3.6 10.3,-0.2 		"/>
		<polygon class="st225" points="10.3,-0.2 10.5,3.6 10.5,3.6 10.3,-0.2 		"/>
		<polygon class="st224" points="10.4,-0.2 10.6,3.6 10.5,3.6 10.3,-0.2 		"/>
		<polygon class="st223" points="10.4,-0.2 10.6,3.6 10.6,3.6 10.4,-0.2 		"/>
		<polygon class="st222" points="10.4,-0.2 10.6,3.6 10.6,3.6 10.4,-0.2 		"/>
		<polygon class="st221" points="10.5,-0.2 10.6,3.6 10.6,3.6 10.4,-0.2 		"/>
		<polygon class="st220" points="10.5,-0.2 10.7,3.6 10.6,3.6 10.5,-0.2 		"/>
		<polygon class="st219" points="10.5,-0.2 10.7,3.6 10.7,3.6 10.5,-0.2 		"/>
		<polygon class="st218" points="10.5,-0.2 10.7,3.6 10.7,3.6 10.5,-0.2 		"/>
		<polygon class="st217" points="10.6,-0.2 10.8,3.6 10.7,3.6 10.5,-0.2 		"/>
		<polygon class="st216" points="10.6,-0.2 10.8,3.6 10.8,3.6 10.6,-0.2 		"/>
		<polygon class="st215" points="10.6,-0.2 10.8,3.6 10.8,3.6 10.6,-0.2 		"/>
		<polygon class="st214" points="10.7,-0.2 10.8,3.6 10.8,3.6 10.6,-0.2 		"/>
		<polygon class="st213" points="10.7,-0.2 10.9,3.6 10.8,3.6 10.7,-0.2 		"/>
		<polygon class="st212" points="10.7,-0.2 10.9,3.6 10.9,3.6 10.7,-0.2 		"/>
		<polygon class="st211" points="10.7,-0.2 10.9,3.6 10.9,3.6 10.7,-0.2 		"/>
		<polygon class="st210" points="10.8,-0.2 11,3.6 10.9,3.6 10.7,-0.2 		"/>
		<polygon class="st209" points="10.8,-0.2 11,3.6 11,3.6 10.8,-0.2 		"/>
		<polygon class="st208" points="10.8,-0.2 11,3.6 11,3.6 10.8,-0.2 		"/>
		<polygon class="st207" points="10.9,-0.2 11,3.6 11,3.6 10.8,-0.2 		"/>
		<polygon class="st206" points="10.9,-0.2 11.1,3.6 11,3.6 10.9,-0.2 		"/>
		<polygon class="st205" points="10.9,-0.2 11.1,3.6 11.1,3.6 10.9,-0.2 		"/>
		<polygon class="st204" points="10.9,-0.2 11.1,3.6 11.1,3.6 10.9,-0.2 		"/>
		<polygon class="st203" points="11,-0.2 11.2,3.6 11.1,3.6 10.9,-0.2 		"/>
		<polygon class="st202" points="11,-0.2 11.2,3.6 11.2,3.6 11,-0.2 		"/>
		<polygon class="st201" points="11,-0.2 11.2,3.6 11.2,3.6 11,-0.2 		"/>
		<polygon class="st200" points="11.1,-0.2 11.2,3.6 11.2,3.6 11,-0.2 		"/>
		<polygon class="st199" points="11.1,-0.2 11.3,3.6 11.2,3.6 11.1,-0.2 		"/>
		<polygon class="st198" points="11.1,-0.2 11.3,3.6 11.3,3.6 11.1,-0.2 		"/>
		<polygon class="st197" points="11.1,-0.2 11.3,3.6 11.3,3.6 11.1,-0.2 		"/>
		<polygon class="st196" points="11.2,-0.2 11.4,3.6 11.3,3.6 11.1,-0.2 		"/>
		<polygon class="st195" points="11.2,-0.2 11.4,3.6 11.4,3.6 11.2,-0.2 		"/>
		<polygon class="st194" points="11.2,-0.2 11.4,3.6 11.4,3.6 11.2,-0.2 		"/>
		<polygon class="st193" points="11.2,-0.2 11.4,3.6 11.4,3.6 11.2,-0.2 		"/>
		<polygon class="st192" points="11.3,-0.2 11.5,3.6 11.4,3.6 11.2,-0.2 		"/>
		<polygon class="st191" points="11.3,-0.2 11.5,3.6 11.5,3.6 11.3,-0.2 		"/>
		<polygon class="st190" points="11.3,-0.2 11.5,3.6 11.5,3.6 11.3,-0.2 		"/>
		<polygon class="st189" points="11.4,-0.2 11.6,3.6 11.5,3.6 11.3,-0.2 		"/>
		<polygon class="st188" points="11.4,-0.2 11.6,3.6 11.6,3.6 11.4,-0.2 		"/>
		<polygon class="st187" points="11.4,-0.2 11.6,3.6 11.6,3.6 11.4,-0.2 		"/>
		<polygon class="st186" points="11.4,-0.2 11.6,3.6 11.6,3.6 11.4,-0.2 		"/>
		<polygon class="st185" points="11.5,-0.2 11.7,3.6 11.6,3.6 11.4,-0.2 		"/>
		<polygon class="st184" points="11.5,-0.2 11.7,3.6 11.7,3.6 11.5,-0.2 		"/>
		<polygon class="st183" points="11.5,-0.2 11.7,3.6 11.7,3.6 11.5,-0.2 		"/>
		<polygon class="st183" points="11.6,-0.2 11.8,3.6 11.7,3.6 11.5,-0.2 		"/>
		<polygon class="st184" points="11.6,-0.2 11.8,3.6 11.8,3.6 11.6,-0.2 		"/>
		<polygon class="st185" points="11.6,-0.2 11.8,3.6 11.8,3.6 11.6,-0.2 		"/>
		<polygon class="st186" points="11.7,-0.2 11.9,3.6 11.8,3.6 11.6,-0.2 		"/>
		<polygon class="st187" points="11.7,-0.2 11.9,3.6 11.9,3.6 11.7,-0.2 		"/>
		<polygon class="st188" points="11.7,-0.2 11.9,3.6 11.9,3.6 11.7,-0.2 		"/>
		<polygon class="st189" points="11.8,-0.2 12,3.6 11.9,3.6 11.7,-0.2 		"/>
		<polygon class="st190" points="11.8,-0.2 12,3.6 12,3.6 11.8,-0.2 		"/>
		<polygon class="st191" points="11.8,-0.2 12,3.6 12,3.6 11.8,-0.2 		"/>
		<polygon class="st192" points="11.9,-0.2 12.1,3.6 12,3.6 11.8,-0.2 		"/>
		<polygon class="st193" points="11.9,-0.2 12.1,3.6 12.1,3.6 11.9,-0.2 		"/>
		<polygon class="st194" points="11.9,-0.2 12.1,3.6 12.1,3.6 11.9,-0.2 		"/>
		<polygon class="st195" points="12,-0.2 12.2,3.6 12.1,3.6 11.9,-0.2 		"/>
		<polygon class="st196" points="12,-0.2 12.2,3.6 12.2,3.6 12,-0.2 		"/>
		<polygon class="st197" points="12.1,-0.2 12.2,3.6 12.2,3.6 12,-0.2 		"/>
		<polygon class="st198" points="12.1,-0.2 12.3,3.6 12.2,3.6 12.1,-0.2 		"/>
		<polygon class="st199" points="12.1,-0.2 12.3,3.6 12.3,3.6 12.1,-0.2 		"/>
		<polygon class="st200" points="12.2,-0.2 12.3,3.6 12.3,3.6 12.1,-0.2 		"/>
		<polygon class="st201" points="12.2,-0.2 12.4,3.6 12.3,3.6 12.2,-0.2 		"/>
		<polygon class="st202" points="12.2,-0.2 12.4,3.6 12.4,3.6 12.2,-0.2 		"/>
		<polygon class="st203" points="12.3,-0.2 12.5,3.6 12.4,3.6 12.2,-0.2 		"/>
		<polygon class="st204" points="12.3,-0.2 12.5,3.6 12.5,3.6 12.3,-0.2 		"/>
		<polygon class="st205" points="12.3,-0.2 12.5,3.6 12.5,3.6 12.3,-0.2 		"/>
		<polygon class="st206" points="12.4,-0.2 12.6,3.6 12.5,3.6 12.3,-0.2 		"/>
		<polygon class="st207" points="12.4,-0.2 12.6,3.6 12.6,3.6 12.4,-0.2 		"/>
		<polygon class="st208" points="12.4,-0.2 12.6,3.6 12.6,3.6 12.4,-0.2 		"/>
		<polygon class="st209" points="12.5,-0.2 12.7,3.6 12.6,3.6 12.4,-0.2 		"/>
		<polygon class="st210" points="12.5,-0.2 12.7,3.6 12.7,3.6 12.5,-0.2 		"/>
		<polygon class="st211" points="12.5,-0.2 12.7,3.6 12.7,3.6 12.5,-0.2 		"/>
		<polygon class="st212" points="12.6,-0.2 12.8,3.6 12.7,3.6 12.5,-0.2 		"/>
		<polygon class="st213" points="12.6,-0.2 12.8,3.6 12.8,3.6 12.6,-0.2 		"/>
		<polygon class="st214" points="12.6,-0.2 12.8,3.6 12.8,3.6 12.6,-0.2 		"/>
		<polygon class="st215" points="12.7,-0.2 12.9,3.6 12.8,3.6 12.6,-0.2 		"/>
		<polygon class="st216" points="12.7,-0.2 12.9,3.6 12.9,3.6 12.7,-0.2 		"/>
		<polygon class="st217" points="12.7,-0.2 12.9,3.6 12.9,3.6 12.7,-0.2 		"/>
		<polygon class="st218" points="12.8,-0.2 13,3.6 12.9,3.6 12.7,-0.2 		"/>
		<polygon class="st219" points="12.8,-0.2 13,3.6 13,3.6 12.8,-0.2 		"/>
		<polygon class="st220" points="12.8,-0.2 13,3.6 13,3.6 12.8,-0.2 		"/>
		<polygon class="st221" points="12.9,-0.2 13.1,3.6 13,3.6 12.8,-0.2 		"/>
		<polygon class="st222" points="12.9,-0.2 13.1,3.6 13.1,3.6 12.9,-0.2 		"/>
		<polygon class="st223" points="12.9,-0.2 13.1,3.6 13.1,3.6 12.9,-0.2 		"/>
		<polygon class="st224" points="13,-0.2 13.2,3.6 13.1,3.6 12.9,-0.2 		"/>
		<polygon class="st225" points="13,-0.2 13.2,3.6 13.2,3.6 13,-0.2 		"/>
		<polygon class="st226" points="13,-0.2 13.2,3.6 13.2,3.6 13,-0.2 		"/>
		<polygon class="st227" points="13.1,-0.2 13.3,3.6 13.2,3.6 13,-0.2 		"/>
		<polygon class="st228" points="13.1,-0.2 13.3,3.6 13.3,3.6 13.1,-0.2 		"/>
		<polygon class="st229" points="13.1,-0.2 13.3,3.6 13.3,3.6 13.1,-0.2 		"/>
		<polygon class="st230" points="13.2,-0.2 13.4,3.6 13.3,3.6 13.1,-0.2 		"/>
		<polygon class="st231" points="13.2,-0.2 13.4,3.6 13.4,3.6 13.2,-0.2 		"/>
		<polygon class="st232" points="13.3,-0.2 13.4,3.6 13.4,3.6 13.2,-0.2 		"/>
		<polygon class="st233" points="13.3,-0.2 13.5,3.6 13.4,3.6 13.3,-0.2 		"/>
		<polygon class="st233" points="13.5,3.6 13.3,-0.2 14.1,-0.2 14.1,3.6 		"/>
	</g>
</g>
<g class="st234">
	<path class="st235" d="M3.4,3.3l3.2,5.3L4.4,2.8C4.3,2.5,4,2.4,3.7,2.5c0,0,0,0-0.1,0l0,0C3.3,2.6,3.2,3,3.4,3.3
		C3.4,3.3,3.4,3.3,3.4,3.3z"/>
</g>
<g class="st234">
	<path class="st235" d="M9.9,3.1L7.3,8.7l3.6-5.1C11.1,3.4,11,3,10.8,2.8c0,0,0,0-0.1,0l0,0C10.4,2.6,10.1,2.7,9.9,3.1
		C9.9,3,9.9,3,9.9,3.1z"/>
</g>
<g class="st234">
	<path class="st235" d="M6.5,2.4l0.4,6.2l0.7-6.2c0-0.3-0.2-0.6-0.5-0.6c0,0-0.1,0-0.1,0l0,0C6.7,1.8,6.4,2,6.5,2.4
		C6.5,2.4,6.5,2.4,6.5,2.4z"/>
</g>
</svg>
