<svg xmlns="http://www.w3.org/2000/svg" width="9.2" height="10.23" viewBox="0 0 9.2 10.23"><title>Ресурс 7</title><g style="isolation:isolate"><path d="M9.2,6.3a.17.17,0,0,1-.1.18L.23,10.22a.17.17,0,0,1-.17,0A.24.24,0,0,1,0,10.09V10L1.59.14A.17.17,0,0,1,1.65,0a.31.31,0,0,1,.13,0C1.84,0,8.17,1.09,9.2,6.29Z" fill="#ff1a39"/><g opacity="0.2" style="mix-blend-mode:overlay"><path d="M9.2,6.3a.17.17,0,0,1-.1.18L.23,10.22a.17.17,0,0,1-.17,0A.24.24,0,0,1,0,10.09V10L1.59.14A.17.17,0,0,1,1.65,0a.31.31,0,0,1,.13,0C1.84,0,8.17,1.09,9.2,6.29Z" fill="#ff1a39"/></g><path d="M9.2,6.3a.17.17,0,0,1-.1.18l-.61.26a.17.17,0,0,1-.14,0,.22.22,0,0,1-.09-.1C6.91,2.54,2.47,1.31,1.59,1.11A.18.18,0,0,1,1.46,1v0L1.59.14A.17.17,0,0,1,1.65,0a.31.31,0,0,1,.13,0C1.84,0,8.17,1.09,9.2,6.29Z" fill="#00ce00"/><path d="M1.18,8.29s-.09-1.27.56-1S1.18,8.29,1.18,8.29Z"/><path d="M2.94,5.42s-.09-1.27.56-1S2.94,5.42,2.94,5.42Z"/><path d="M2.59,7.12s.32-1.23.86-.8S2.59,7.12,2.59,7.12Z"/><path d="M4.47,5.29s.31-1.24.86-.81S4.47,5.29,4.47,5.29Z"/><path d="M2.36,4s-.64-1.1.05-1.18S2.36,4,2.36,4Z"/><path d="M4.45,6.77s.32-1.23.87-.81S4.45,6.77,4.45,6.77Z"/><path d="M2.41,8.46s.23-.91.64-.59S2.41,8.46,2.41,8.46Z"/><path d="M5.94,6.67s.53-.77.8-.34S5.94,6.67,5.94,6.67Z"/><path d="M1.76,6.3s-.46-.82.05-.87S1.76,6.3,1.76,6.3Z"/></g></svg>