<svg xmlns="http://www.w3.org/2000/svg" width="13.44" height="11.66" viewBox="0 0 13.44 11.66"><title>Ресурс 26</title><path d="M6.51,5.38,4.44,3.75A.91.91,0,0,1,4.28,2.6C4.79,1.77,5.69.77,6,.13S7.42,1,8.55,2,6.51,5.38,6.51,5.38Z" fill="#3ea911"/><path d="M7,11.66,5,10.12A.88.88,0,0,1,4.84,9,26.49,26.49,0,0,0,6.43,6.69c.22-.53,1.38.82,2.45,1.81S7,11.66,7,11.66Z" fill="#3ea911"/><path d="M13.44,5.94,11.2,8.23a1.11,1.11,0,0,1-1.4,0A35.84,35.84,0,0,0,7,5.92c-.65-.36,1.24-1.65,2.65-2.87S13.44,5.94,13.44,5.94Z" fill="#3ea911"/><path d="M0,6.63,1.82,4A1.12,1.12,0,0,1,3.2,3.73c1,.56,2.31,1.57,3.11,1.85S5.37,7.42,4.19,8.86,0,6.63,0,6.63Z" fill="#3ea911"/></svg>