<svg xmlns="http://www.w3.org/2000/svg" width="10.54" height="15.63" viewBox="0 0 10.54 15.63"><title>Ресурс 21</title><path d="M2.74.39A34.63,34.63,0,0,1,4.81,7l.57-.59A32.33,32.33,0,0,0,3.46,0C3.22.14,3,.27,2.74.39Z" fill="#5ab012"/><path d="M4.2,6.09c-.07-1-1.07-1.15-1.89-1.24A5.94,5.94,0,0,1,1,4.72a6.67,6.67,0,0,1-1-.58c.86.57.67,1.41,1.31,2.17a5,5,0,0,0,3.05.58c.4-.14-.48-.83-.09-.8C4.27,6.15,4.22,6.06,4.2,6.09Z" fill="#5ab012"/><path d="M4.89,6c1.19.5,1.67-.79,1.43-1.81C6.14,3.41,5.16,3,5.55,2c-.27.76-.86,1.06-1.26,1.7A1.67,1.67,0,0,0,5.35,6.18Z" fill="#5ab012"/><path d="M6.13,6c0-.32-.11-1.69,2-2C8.73,4,10,3.85,10.37,3.3a.81.81,0,0,1-.31.92A30.08,30.08,0,0,1,7.45,6.15C7,6.39,6.2,6,6.13,6Z" fill="#5ab012"/><path d="M4.6,6.26a4.53,4.53,0,0,1,2.56-.15C8.21,6.5,9.49,6.68,9.69,9s-1.88,5.43-2.76,5.57-5.58-.39-5-3.76S1.68,6.88,4.6,6.26Z" fill="#252628"/><path d="M1.76,11.75A.81.81,0,0,0,2.43,13a1.14,1.14,0,0,0,.46,0,.65.65,0,0,0-.11.41,1.15,1.15,0,0,0,1.37.85,1,1,0,0,0,.3-.12.83.83,0,0,0,0,.31A1.21,1.21,0,0,0,6,15.09.91.91,0,0,0,6.17,15a.88.88,0,0,0,1.26.55.88.88,0,0,0,.31-1.1,1,1,0,0,0,.48-.1.79.79,0,0,0,.43-1,.87.87,0,0,0,.46-.07A1,1,0,0,0,9.75,12c.94.05,1-1.13.42-1.49A.92.92,0,0,0,10,9a1.17,1.17,0,0,0,.28-1.28,1,1,0,0,0-1-.51l-.09,0a1,1,0,0,0,.13-1,1.1,1.1,0,0,0-1-.51.69.69,0,0,0-.49.26,1.27,1.27,0,0,0-.13.19,1.09,1.09,0,0,0-.21-.7,1,1,0,0,0-.87-.3A1,1,0,0,0,6,5.65a.85.85,0,0,0-.09.22.68.68,0,0,0,0-.2,1.21,1.21,0,0,0-.23-.51.89.89,0,0,0-1-.3,1,1,0,0,0-.48.36,1.06,1.06,0,0,0-.22,1,1.1,1.1,0,0,0-.71-.27.84.84,0,0,0-.74.63,1,1,0,0,0,0,.63.7.7,0,0,0-.91,0,.76.76,0,0,0-.41.51.85.85,0,0,0,.63,1.11A.79.79,0,0,0,1.3,10a.86.86,0,0,0,.28.33A.83.83,0,0,0,1.76,11.75Zm2-1.31v0h0a.67.67,0,0,0,0-.52.82.82,0,0,0,.54.12.67.67,0,0,0-.06.12c-.23.56,0,1.2.68,1.19l.23,0a1.42,1.42,0,0,0,.07.22,1,1,0,0,0-.94-.15A.86.86,0,0,0,3.73,10.44Zm1.84,1.8a1.25,1.25,0,0,0-.14-.5h0a.9.9,0,0,0,.36.22A.78.78,0,0,0,5.57,12.24Zm.92-.3a.61.61,0,0,0,.31-.3.71.71,0,0,0,.53.38.86.86,0,0,0,.56,0,1.5,1.5,0,0,0,0,.22,1.27,1.27,0,0,0,0,.2.63.63,0,0,0-.68.14l.21,0a.42.42,0,0,0-.18.11A1.09,1.09,0,0,0,6.49,11.94ZM9.08,9.11l.09,0a1.17,1.17,0,0,0-.35.8h0l-.13,0a1,1,0,0,0-.09-.69.84.84,0,0,0,.11-.3A.82.82,0,0,0,9.08,9.11ZM5.92,7.32l0,0h0Zm-3,1.83ZM2.69,10.8h.06l0,.07h0Zm0,.62,0,0v0Zm-.4-2.76.14-.08s0,.07,0,.11A.57.57,0,0,0,2.32,8.66Zm1,.56a1.06,1.06,0,0,0,.26,0,.66.66,0,0,0,0,.2A1.05,1.05,0,0,0,3.27,9.22ZM3.7,7.61l.12-.09a.75.75,0,0,0,.05.26l-.08-.09h0l0,0Zm.61.66a1,1,0,0,0,.7.05.55.55,0,0,0,.32.23,1,1,0,0,0-.08,1.08h0a.43.43,0,0,0-.18-.06s0,0,0-.05a1,1,0,0,0-.27-.89.58.58,0,0,0-.76-.13A1.15,1.15,0,0,0,4,8,1,1,0,0,0,4.31,8.27Zm2.51,2.67-.08-.16h.18A1.4,1.4,0,0,0,6.82,10.94Zm0-1.75h.1a.41.41,0,0,0-.11,0Zm.7,1,.13.12.09.05a.67.67,0,0,0-.28,0Zm.47.28H8Zm-.46-.06h-.1a.08.08,0,0,0,0-.05Zm-1.73,0a1.33,1.33,0,0,0-.28-.64.77.77,0,0,0,.58.1.76.76,0,0,0,.07.47,1,1,0,0,0-.33,0H6ZM7.14,8.13a1.13,1.13,0,0,0-.28,1H6.79a.71.71,0,0,0-.43-.89l0,0,.28,0-.28,0A.39.39,0,0,0,6.45,8,1.39,1.39,0,0,0,7.14,8.13ZM8.31,11.3v0l0,0Zm-5.53.23-.12-.06,0,0h.06A.3.3,0,0,0,2.78,11.53Zm-.67-1.18.1,0s0,0,0,.08Zm.81-2.68a.69.69,0,0,0-.13.11,1,1,0,0,0-.06-.23A.76.76,0,0,0,2.92,7.67ZM4.09,6.49a.74.74,0,0,0,.13.12l-.09.11A1.57,1.57,0,0,0,4.09,6.49Zm1.78-.37a.81.81,0,0,0,.25.65A1.2,1.2,0,0,0,6,7.11a.5.5,0,0,0,0,.12,1.22,1.22,0,0,0-.34-.11.9.9,0,0,0-.3-.4A1,1,0,0,0,5.87,6.12Zm1.74.36a1,1,0,0,0,0,.29.86.86,0,0,0-.14-.13A.65.65,0,0,0,7.61,6.48Zm1.21,1a1.19,1.19,0,0,0-.3.59.7.7,0,0,0-.74-.26h0a.72.72,0,0,0,.11-.65.78.78,0,0,0,.24.2A.93.93,0,0,0,8.82,7.46ZM6.27,14.05a1.1,1.1,0,0,0-.14-.21.92.92,0,0,0,.44,0A1,1,0,0,0,7,13.69a.94.94,0,0,0,.07.22,2.7,2.7,0,0,0-.75,0L6.7,14A.58.58,0,0,0,6.27,14.05Zm-1.49-.51.12-.08-.13.11a.75.75,0,0,0-.06-.32l-.07-.12a.69.69,0,0,0,.81-.32,1.31,1.31,0,0,0,.18.61C5.3,13.24,5,13.23,4.78,13.54ZM3.4,12.62l.41,0a.79.79,0,0,0-.54.08.78.78,0,0,0,0-.22,1.06,1.06,0,0,0-.15-.56l.13.05a1.15,1.15,0,0,0,.61,0,1.2,1.2,0,0,0,.16.73A1.54,1.54,0,0,0,3.4,12.62ZM1.58,10.33h0Z" fill="#07080a"/><path d="M4.06,7.26c0,.19.26.32.53.28s.48-.2.46-.39-.26-.31-.53-.28S4,7.08,4.06,7.26Z" fill="#707b96"/><path d="M2.77,8.4a.32.32,0,0,0,.44,0c.16-.12.23-.3.15-.41a.32.32,0,0,0-.44,0C2.76,8.11,2.69,8.29,2.77,8.4Z" fill="#707b96"/><path d="M1.36,7.82A.34.34,0,0,0,1.82,8,.35.35,0,0,0,2,7.51a.35.35,0,0,0-.47-.13A.33.33,0,0,0,1.36,7.82Z" fill="#707b96"/><path d="M4.33,5.51c.06.14.28.17.5.08s.36-.27.3-.4-.27-.17-.5-.08S4.28,5.38,4.33,5.51Z" fill="#707b96"/><path d="M6.31,5.61c0,.17.15.34.39.39s.47-.06.5-.23-.14-.34-.39-.38S6.34,5.44,6.31,5.61Z" fill="#707b96"/><path d="M8.09,6.29c0,.16.19.3.45.32S9,6.52,9,6.36s-.18-.3-.44-.32S8.1,6.13,8.09,6.29Z" fill="#707b96"/><path d="M2.78,6.58a.36.36,0,0,0,.49.1.36.36,0,0,0,.23-.44A.36.36,0,0,0,3,6.14.36.36,0,0,0,2.78,6.58Z" fill="#707b96"/><path d="M5.51,7.76a.25.25,0,0,0,.29.18A.25.25,0,0,0,6,7.7a.26.26,0,0,0-.29-.18C5.61,7.54,5.5,7.65,5.51,7.76Z" fill="#707b96"/><path d="M6.54,7.25c0,.19.21.34.48.34s.49-.15.49-.33S7.29,6.93,7,6.93,6.54,7.07,6.54,7.25Z" fill="#707b96"/><path d="M9.15,7.8c0,.17.14.33.37.37S10,8.11,10,8s-.14-.33-.37-.37S9.18,7.64,9.15,7.8Z" fill="#707b96"/><path d="M7.25,8.71c.08.14.31.16.51,0s.31-.32.23-.46-.31-.16-.51-.05S7.18,8.57,7.25,8.71Z" fill="#707b96"/><path d="M5.51,9a.31.31,0,0,0,.36.22c.18,0,.32-.16.3-.3S6,8.65,5.81,8.67A.31.31,0,0,0,5.51,9Z" fill="#707b96"/><path d="M4,9a.27.27,0,0,0,.37.07.27.27,0,0,0,.18-.33.28.28,0,0,0-.37-.07A.28.28,0,0,0,4,9Z" fill="#707b96"/><path d="M1.41,9.44a.29.29,0,0,0,.38.08A.27.27,0,0,0,2,9.18a.27.27,0,0,0-.37-.07A.28.28,0,0,0,1.41,9.44Z" fill="#707b96"/><path d="M9.66,9.58a.32.32,0,0,0,.28.34.32.32,0,0,0,.38-.22.34.34,0,0,0-.66-.12Z" fill="#707b96"/><path d="M9.68,11.14a.27.27,0,0,0,.31.23.26.26,0,1,0-.06-.52A.27.27,0,0,0,9.68,11.14Z" fill="#707b96"/><path d="M9,12a.26.26,0,0,0,.15.33.26.26,0,0,0,.36-.08.27.27,0,0,0-.16-.33A.25.25,0,0,0,9,12Z" fill="#707b96"/><path d="M7.72,13.15c0,.14.06.29.23.35a.3.3,0,0,0,.39-.14c.05-.14-.06-.29-.23-.35A.3.3,0,0,0,7.72,13.15Z" fill="#707b96"/><path d="M6.21,12.47a.35.35,0,0,0,.66.22.31.31,0,0,0-.25-.37A.31.31,0,0,0,6.21,12.47Z" fill="#707b96"/><path d="M7.47,11.13a.26.26,0,0,0,.3.23.26.26,0,1,0-.3-.23Z" fill="#707b96"/><path d="M6.54,10a.24.24,0,0,0,.29.2.26.26,0,0,0,.25-.27.27.27,0,0,0-.54.07Z" fill="#707b96"/><path d="M7.86,9.75A.29.29,0,0,0,8.2,10c.16,0,.29-.15.27-.28a.28.28,0,0,0-.33-.22A.29.29,0,0,0,7.86,9.75Z" fill="#707b96"/><path d="M5.4,11.14a.26.26,0,0,0,.31.19A.26.26,0,0,0,6,11.07a.29.29,0,0,0-.56.07Z" fill="#707b96"/><path d="M4.45,10.44a.26.26,0,0,0,.37.06.25.25,0,1,0-.24-.42A.28.28,0,0,0,4.45,10.44Z" fill="#707b96"/><path d="M3.12,11.09a.26.26,0,0,0,.3.24.27.27,0,0,0,.25-.3.27.27,0,0,0-.31-.24A.27.27,0,0,0,3.12,11.09Z" fill="#707b96"/><path d="M2.51,9.77a.21.21,0,0,0,.25.17A.21.21,0,0,0,3,9.72a.21.21,0,0,0-.25-.17A.2.2,0,0,0,2.51,9.77Z" fill="#707b96"/><path d="M1.4,10.87a.25.25,0,0,0,.26.22.25.25,0,0,0-.06-.49A.25.25,0,0,0,1.4,10.87Z" fill="#707b96"/><path d="M1.84,12.15a.24.24,0,0,0,.3.12A.22.22,0,1,0,2,11.86.24.24,0,0,0,1.84,12.15Z" fill="#707b96"/><path d="M4.07,12c0,.13.16.21.34.19s.29-.14.28-.26a.29.29,0,0,0-.34-.2C4.18,11.77,4.05,11.89,4.07,12Z" fill="#707b96"/><path d="M3.47,13a.28.28,0,0,0-.39.08.27.27,0,0,0,0,.39.28.28,0,0,0,.39-.07A.28.28,0,0,0,3.47,13Z" fill="#707b96"/><path d="M4.68,14.26a.27.27,0,0,0,.38,0,.28.28,0,0,0,.12-.37.29.29,0,0,0-.39,0A.27.27,0,0,0,4.68,14.26Z" fill="#707b96"/><path d="M6.88,14.43c0,.14.08.29.26.35s.38,0,.42-.14-.08-.29-.27-.34S6.92,14.3,6.88,14.43Z" fill="#707b96"/></svg>