<svg xmlns="http://www.w3.org/2000/svg" xmlns:xlink="http://www.w3.org/1999/xlink" width="10.17" height="11.61" viewBox="0 0 10.17 11.61"><defs><clipPath id="a" transform="translate(0 0.44)"><circle cx="5.13" cy="4.54" r="4.54" fill="none"/></clipPath></defs><title>Ресурс 22</title><g clip-path="url(#a)"><polygon points="10.12 2.03 4.17 0 10.12 0 10.12 2.03" fill="#466cb4"/><polygon points="10.12 2.13 3.88 0 4.17 0 10.12 2.03 10.12 2.13" fill="#466cb4"/><polygon points="10.12 2.22 3.6 0 3.88 0 10.12 2.13 10.12 2.22" fill="#466bb3"/><polygon points="10.12 2.32 3.31 0 3.6 0 10.12 2.22 10.12 2.32" fill="#456bb2"/><polygon points="10.12 2.42 3.03 0 3.31 0 10.12 2.32 10.12 2.42" fill="#456ab1"/><polygon points="10.12 2.52 2.75 0 3.03 0 10.12 2.42 10.12 2.52" fill="#4469b0"/><polygon points="10.12 2.61 2.46 0 2.75 0 10.12 2.52 10.12 2.61" fill="#4469af"/><polygon points="10.12 2.71 2.18 0 2.46 0 10.12 2.61 10.12 2.71" fill="#4468ae"/><polygon points="10.12 2.81 1.89 0 2.18 0 10.12 2.71 10.12 2.81" fill="#4367ad"/><polygon points="10.12 2.9 1.61 0 1.89 0 10.12 2.81 10.12 2.9" fill="#4367ac"/><polygon points="10.12 3 1.32 0 1.61 0 10.12 2.9 10.12 3" fill="#4266ab"/><polygon points="10.12 3.1 1.04 0 1.32 0 10.12 3 10.12 3.1" fill="#4265aa"/><polygon points="10.12 3.2 0.75 0 1.04 0 10.12 3.1 10.12 3.2" fill="#4165a9"/><polygon points="10.12 3.29 0.47 0 0.75 0 10.12 3.2 10.12 3.29" fill="#4164a8"/><polygon points="10.12 3.39 0.18 0 0.47 0 10.12 3.29 10.12 3.39" fill="#4163a7"/><polygon points="10.12 3.49 0.15 0.09 0.15 0 0.18 0 10.12 3.39 10.12 3.49" fill="#4062a6"/><polygon points="10.12 3.58 0.15 0.18 0.15 0.09 10.12 3.49 10.12 3.58" fill="#4062a5"/><polygon points="10.12 3.68 0.15 0.28 0.15 0.18 10.12 3.58 10.12 3.68" fill="#3f61a4"/><polygon points="10.12 3.78 0.15 0.38 0.15 0.28 10.12 3.68 10.12 3.78" fill="#3f60a3"/><polygon points="10.12 3.88 0.15 0.47 0.15 0.38 10.12 3.78 10.12 3.88" fill="#3f60a2"/><polygon points="10.12 3.97 0.15 0.57 0.15 0.47 10.12 3.88 10.12 3.97" fill="#3e5fa1"/><polygon points="10.12 4.07 0.15 0.67 0.15 0.57 10.12 3.97 10.12 4.07" fill="#3e5ea0"/><polygon points="10.12 4.17 0.15 0.77 0.15 0.67 10.12 4.07 10.12 4.17" fill="#3d5e9f"/><polygon points="10.12 4.26 0.15 0.86 0.15 0.77 10.12 4.17 10.12 4.26" fill="#3d5d9e"/><polygon points="10.12 4.36 0.15 0.96 0.15 0.86 10.12 4.26 10.12 4.36" fill="#3c5c9d"/><polygon points="10.12 4.46 0.15 1.06 0.15 0.96 10.12 4.36 10.12 4.46" fill="#3c5c9c"/><polygon points="10.12 4.56 0.15 1.15 0.15 1.06 10.12 4.46 10.12 4.56" fill="#3c5b9b"/><polygon points="10.12 4.65 0.15 1.25 0.15 1.15 10.12 4.56 10.12 4.65" fill="#3b5a9a"/><polygon points="10.12 4.75 0.15 1.35 0.15 1.25 10.12 4.65 10.12 4.75" fill="#3b5a99"/><polygon points="10.12 4.85 0.15 1.45 0.15 1.35 10.12 4.75 10.12 4.85" fill="#3a5998"/><polygon points="10.12 4.95 0.15 1.54 0.15 1.45 10.12 4.85 10.12 4.95" fill="#3a5897"/><polygon points="10.12 5.04 0.15 1.64 0.15 1.54 10.12 4.95 10.12 5.04" fill="#3a5896"/><polygon points="10.12 5.14 0.15 1.74 0.15 1.64 10.12 5.04 10.12 5.14" fill="#395795"/><polygon points="10.12 5.24 0.15 1.83 0.15 1.74 10.12 5.14 10.12 5.24" fill="#395694"/><polygon points="10.12 5.33 0.15 1.93 0.15 1.83 10.12 5.24 10.12 5.33" fill="#385693"/><polygon points="10.12 5.43 0.15 2.03 0.15 1.93 10.12 5.33 10.12 5.43" fill="#385592"/><polygon points="10.12 5.53 0.15 2.13 0.15 2.03 10.12 5.43 10.12 5.53" fill="#375491"/><polygon points="10.12 5.63 0.15 2.22 0.15 2.13 10.12 5.53 10.12 5.63" fill="#375490"/><polygon points="10.12 5.72 0.15 2.32 0.15 2.22 10.12 5.63 10.12 5.72" fill="#37538f"/><polygon points="10.12 5.82 0.15 2.42 0.15 2.32 10.12 5.72 10.12 5.82" fill="#36528e"/><polygon points="10.12 5.92 0.15 2.52 0.15 2.42 10.12 5.82 10.12 5.92" fill="#36528d"/><polygon points="10.12 6.01 0.15 2.61 0.15 2.52 10.12 5.92 10.12 6.01" fill="#35518c"/><polygon points="10.12 6.11 0.15 2.71 0.15 2.61 10.12 6.01 10.12 6.11" fill="#35508b"/><polygon points="10.12 6.21 0.15 2.81 0.15 2.71 10.12 6.11 10.12 6.21" fill="#354f8a"/><polygon points="10.12 6.31 0.15 2.9 0.15 2.81 10.12 6.21 10.12 6.31" fill="#344f89"/><polygon points="10.12 6.4 0.15 3 0.15 2.9 10.12 6.31 10.12 6.4" fill="#344e88"/><polygon points="10.12 6.5 0.15 3.1 0.15 3 10.12 6.4 10.12 6.5" fill="#334d87"/><polygon points="10.12 6.6 0.15 3.2 0.15 3.1 10.12 6.5 10.12 6.6" fill="#334d86"/><polygon points="10.12 6.7 0.15 3.29 0.15 3.2 10.12 6.6 10.12 6.7" fill="#324c85"/><polygon points="10.12 6.79 0.15 3.39 0.15 3.29 10.12 6.7 10.12 6.79" fill="#324b84"/><polygon points="10.12 6.89 0.15 3.49 0.15 3.39 10.12 6.79 10.12 6.89" fill="#324b83"/><polygon points="10.12 6.99 0.15 3.58 0.15 3.49 10.12 6.89 10.12 6.99" fill="#314a82"/><polygon points="10.12 7.08 0.15 3.68 0.15 3.58 10.12 6.99 10.12 7.08" fill="#314981"/><polygon points="10.12 7.18 0.15 3.78 0.15 3.68 10.12 7.08 10.12 7.18" fill="#304980"/><polygon points="10.12 7.28 0.15 3.88 0.15 3.78 10.12 7.18 10.12 7.28" fill="#30487f"/><polygon points="10.12 7.38 0.15 3.97 0.15 3.88 10.12 7.28 10.12 7.38" fill="#30477d"/><polygon points="10.12 7.47 0.15 4.07 0.15 3.97 10.12 7.38 10.12 7.47" fill="#2f477c"/><polygon points="10.12 7.57 0.15 4.17 0.15 4.07 10.12 7.47 10.12 7.57" fill="#2f467b"/><polygon points="10.12 7.67 0.15 4.26 0.15 4.17 10.12 7.57 10.12 7.67" fill="#2e457a"/><polygon points="10.12 7.76 0.15 4.36 0.15 4.26 10.12 7.67 10.12 7.76" fill="#2e4579"/><polygon points="10.12 7.86 0.15 4.46 0.15 4.36 10.12 7.76 10.12 7.86" fill="#2e4478"/><polygon points="10.12 7.96 0.15 4.56 0.15 4.46 10.12 7.86 10.12 7.96" fill="#2d4377"/><polygon points="10.12 8.06 0.15 4.65 0.15 4.56 10.12 7.96 10.12 8.06" fill="#2d4376"/><polygon points="10.12 8.15 0.15 4.75 0.15 4.65 10.12 8.06 10.12 8.15" fill="#2c4275"/><polygon points="10.12 8.25 0.15 4.85 0.15 4.75 10.12 8.15 10.12 8.25" fill="#2c4174"/><polygon points="10.12 8.35 0.15 4.95 0.15 4.85 10.12 8.25 10.12 8.35" fill="#2b4173"/><polygon points="10.12 8.45 0.15 5.04 0.15 4.95 10.12 8.35 10.12 8.45" fill="#2b4072"/><polygon points="10.12 8.54 0.15 5.14 0.15 5.04 10.12 8.45 10.12 8.54" fill="#2b3f71"/><polygon points="10.12 8.64 0.15 5.24 0.15 5.14 10.12 8.54 10.12 8.64" fill="#2a3e70"/><polygon points="10.12 8.74 0.15 5.33 0.15 5.24 10.12 8.64 10.12 8.74" fill="#2a3e6f"/><polygon points="10.12 8.83 0.15 5.43 0.15 5.33 10.12 8.74 10.12 8.83" fill="#293d6e"/><polygon points="10.12 8.93 0.15 5.53 0.15 5.43 10.12 8.83 10.12 8.93" fill="#293c6d"/><polygon points="10.12 9.03 0.15 5.63 0.15 5.53 10.12 8.93 10.12 9.03" fill="#293c6c"/><polygon points="10.12 9.13 0.15 5.72 0.15 5.63 10.12 9.03 10.12 9.13" fill="#283b6b"/><polygon points="10.12 9.22 0.15 5.82 0.15 5.72 10.12 9.13 10.12 9.22" fill="#283a6a"/><polygon points="10.12 9.32 0.15 5.92 0.15 5.82 10.12 9.22 10.12 9.32" fill="#273a69"/><polygon points="10.12 9.42 0.15 6.01 0.15 5.92 10.12 9.32 10.12 9.42" fill="#273968"/><polygon points="10.12 9.51 0.15 6.11 0.15 6.01 10.12 9.42 10.12 9.51" fill="#263867"/><polygon points="10.12 9.61 0.15 6.21 0.15 6.11 10.12 9.51 10.12 9.61" fill="#263866"/><polygon points="10.12 9.71 0.15 6.31 0.15 6.21 10.12 9.61 10.12 9.71" fill="#263765"/><polygon points="10.12 9.81 0.15 6.4 0.15 6.31 10.12 9.71 10.12 9.81" fill="#253664"/><polygon points="10.12 9.9 0.15 6.5 0.15 6.4 10.12 9.81 10.12 9.9" fill="#253663"/><polygon points="10.01 9.96 0.15 6.6 0.15 6.5 10.12 9.9 10.12 9.96 10.01 9.96" fill="#243562"/><polygon points="9.73 9.96 0.15 6.7 0.15 6.6 10.01 9.96 9.73 9.96" fill="#243461"/><polygon points="9.44 9.96 0.15 6.79 0.15 6.7 9.73 9.96 9.44 9.96" fill="#243460"/><polygon points="9.16 9.96 0.15 6.89 0.15 6.79 9.44 9.96 9.16 9.96" fill="#23335f"/><polygon points="8.87 9.96 0.15 6.99 0.15 6.89 9.16 9.96 8.87 9.96" fill="#23325e"/><polygon points="8.59 9.96 0.15 7.08 0.15 6.99 8.87 9.96 8.59 9.96" fill="#22325d"/><polygon points="8.3 9.96 0.15 7.18 0.15 7.08 8.59 9.96 8.3 9.96" fill="#22315c"/><polygon points="8.02 9.96 0.15 7.28 0.15 7.18 8.3 9.96 8.02 9.96" fill="#21305b"/><polygon points="7.73 9.96 0.15 7.38 0.15 7.28 8.02 9.96 7.73 9.96" fill="#21305a"/><polygon points="7.45 9.96 0.15 7.47 0.15 7.38 7.73 9.96 7.45 9.96" fill="#212f59"/><polygon points="7.16 9.96 0.15 7.57 0.15 7.47 7.45 9.96 7.16 9.96" fill="#202e58"/><polygon points="6.88 9.96 0.15 7.67 0.15 7.57 7.16 9.96 6.88 9.96" fill="#202e57"/><polygon points="6.59 9.96 0.15 7.76 0.15 7.67 6.88 9.96 6.59 9.96" fill="#1f2d56"/><polygon points="6.31 9.96 0.15 7.86 0.15 7.76 6.59 9.96 6.31 9.96" fill="#1f2c55"/><polygon points="6.02 9.96 0.15 7.96 0.15 7.86 6.31 9.96 6.02 9.96" fill="#1f2b54"/><polygon points="5.74 9.96 0.15 8.06 0.15 7.96 6.02 9.96 5.74 9.96" fill="#1e2b53"/><polygon points="5.45 9.96 0.15 8.15 0.15 8.06 5.74 9.96 5.45 9.96" fill="#1e2a52"/><polygon points="5.17 9.96 0.15 8.25 0.15 8.15 5.45 9.96 5.17 9.96" fill="#1d2951"/><polygon points="4.88 9.96 0.15 8.35 0.15 8.25 5.17 9.96 4.88 9.96" fill="#1d2950"/><polygon points="4.6 9.96 0.15 8.44 0.15 8.35 4.88 9.96 4.6 9.96" fill="#1c284f"/><polygon points="4.32 9.96 0.15 8.54 0.15 8.44 4.6 9.96 4.32 9.96" fill="#1c274e"/><polygon points="4.03 9.96 0.15 8.64 0.15 8.54 4.32 9.96 4.03 9.96" fill="#1c274d"/><polygon points="3.75 9.96 0.15 8.74 0.15 8.64 4.03 9.96 3.75 9.96" fill="#1b264c"/><polygon points="3.46 9.96 0.15 8.83 0.15 8.74 3.75 9.96 3.46 9.96" fill="#1b254b"/><polygon points="3.17 9.96 0.15 8.93 0.15 8.83 3.46 9.96 3.17 9.96" fill="#1a254a"/><polygon points="2.89 9.96 0.15 9.03 0.15 8.93 3.17 9.96 2.89 9.96" fill="#1a2449"/><polygon points="0.15 9.03 2.89 9.96 0.15 9.96 0.15 9.03" fill="#1a2449"/></g><path d="M0,8.36s6,6.32,10.17,0Z" transform="translate(0 0.44)" fill="#5ab012"/><path d="M0,8.4s6-6.32,10.17,0Z" transform="translate(0 0.44)" fill="#5ab012"/></svg>