<svg xmlns="http://www.w3.org/2000/svg" width="8.92" height="11.4" viewBox="0 0 8.92 11.4"><title>Ресурс 15</title><path d="M4.92.48s-.07,2.16-.09,2.39A4.72,4.72,0,0,0,5.06,5.2c.86,1.94.13,3.89-.45,5.8h.11c2.1,0,3.8-2.36,3.8-5.26S6.93.62,4.92.48Z" fill="#594221"/><path d="M4.72,11.4H4.58l-.5-.05.29-.92C4.91,8.67,5.43,7,4.69,5.36a5.05,5.05,0,0,1-.26-2.53c0-.18.07-1.69.09-2.19L3.89,0,5,.08c2.23.17,4,2.65,4,5.66S7,11.4,4.72,11.4ZM5.32.94c0,.8-.09,2-.09,2A4.45,4.45,0,0,0,5.42,5c.84,1.88.3,3.72-.26,5.51,1.7-.35,3-2.37,3-4.81S6.92,1.36,5.32.94Z" fill="#fff"/><path d="M4.36,4.52c0-.1-.05-.2-.07-.3a6.44,6.44,0,0,1,0-1.52L4.43.48a4.2,4.2,0,0,0-.95.09A2.77,2.77,0,0,0,2.54,1,4.34,4.34,0,0,0,1.42,2.14a6.44,6.44,0,0,0-1,3.6C.4,7.9,1.51,10.72,4,11a.23.23,0,0,0,.16,0,.2.2,0,0,0,.06-.13c.41-1.5,1-3.11.69-4.68C4.75,5.6,4.5,5.07,4.36,4.52Z" fill="#594221"/><path d="M4,11.4h-.1C1.35,11.1,0,8.33,0,5.74A7,7,0,0,1,1.09,1.91,5,5,0,0,1,2.31.67,3.56,3.56,0,0,1,3.38.18s1-.25,1.31,0l.15.13L4.68,2.73a5.6,5.6,0,0,0,0,1.42,1.72,1.72,0,0,0,0,.26h0A6.18,6.18,0,0,0,5,5.15a7.49,7.49,0,0,1,.28.92,8.22,8.22,0,0,1-.48,4.16c-.07.24-.14.48-.2.72a.68.68,0,0,1-.21.34A.57.57,0,0,1,4,11.4ZM4,.89c-.18,0-.37,0-.43.07a2.35,2.35,0,0,0-.81.37,4,4,0,0,0-1,1A6.17,6.17,0,0,0,.8,5.74c0,1.7.83,4.47,3.05,4.84.06-.2.11-.38.17-.57a7.84,7.84,0,0,0,.47-3.77c-.07-.28-.17-.55-.26-.83S4,4.89,4,4.63s-.05-.23-.07-.35a6.68,6.68,0,0,1,0-1.61Z" fill="#fff"/></svg>