<svg xmlns="http://www.w3.org/2000/svg" width="10.54" height="10.54" viewBox="0 0 10.54 10.54"><title>Ресурс 16</title><circle cx="5.27" cy="5.27" r="5.27" fill="#3ea911"/><circle cx="5.27" cy="5.27" r="4.8" fill="#e1ecb9"/><ellipse cx="4.58" cy="3.18" rx="0.49" ry="1.23" fill="#b5e99c"/><path d="M4.58,4.5C4.26,4.5,4,3.93,4,3.18s.25-1.31.57-1.31.58.57.58,1.31S4.91,4.5,4.58,4.5ZM4.58,2c-.19,0-.4.47-.4,1.14s.21,1.15.4,1.15S5,3.86,5,3.18,4.78,2,4.58,2Z" fill="#3ea911"/><ellipse cx="3.27" cy="5.15" rx="1.23" ry="0.49" transform="translate(-0.43 0.3) rotate(-4.88)" fill="#b5e99c"/><path d="M3.06,5.73a2.57,2.57,0,0,1-.65-.08C2.14,5.57,2,5.43,2,5.26s.12-.33.37-.45a2.47,2.47,0,0,1,.88-.23h0a2.61,2.61,0,0,1,.91.07c.28.09.44.22.45.39s-.12.33-.37.46a2.76,2.76,0,0,1-.89.22Zm.18-1A2.4,2.4,0,0,0,2.41,5c-.18.09-.29.21-.28.3s.13.18.33.24a2.27,2.27,0,0,0,.85.07,2.29,2.29,0,0,0,.82-.21c.19-.09.29-.2.29-.3s-.13-.18-.33-.24a2.5,2.5,0,0,0-.85-.07Z" fill="#3ea911"/><ellipse cx="7.54" cy="5.64" rx="0.49" ry="1.23" transform="translate(1.04 12.45) rotate(-83.16)" fill="#b5e99c"/><path d="M7.83,6.23a2.17,2.17,0,0,1-.36,0c-.75-.09-1.28-.4-1.24-.72s.19-.3.46-.38a2.68,2.68,0,0,1,.91,0h0c.75.09,1.28.4,1.24.73,0,.16-.19.3-.46.37A2.32,2.32,0,0,1,7.83,6.23Zm-.59-1a2,2,0,0,0-.51.06c-.2.06-.32.14-.33.24s.42.46,1.09.54a2.35,2.35,0,0,0,.85,0c.2,0,.32-.14.33-.23s-.41-.46-1.09-.54h0A2,2,0,0,0,7.24,5.21Z" fill="#3ea911"/><ellipse cx="4.29" cy="6.73" rx="1" ry="0.49" transform="translate(-3.02 9.93) rotate(-81.11)" fill="#b5e99c"/><path d="M4.17,7.81h0c-.31,0-.49-.56-.4-1.16A1.76,1.76,0,0,1,4,5.93a.5.5,0,0,1,.47-.27c.16,0,.29.17.36.4a1.72,1.72,0,0,1,0,.76C4.77,7.39,4.47,7.81,4.17,7.81Zm.24-2a.42.42,0,0,0-.29.2,1.66,1.66,0,0,0-.23.65c-.09.53.07.94.26,1s.46-.31.55-.85h0a1.52,1.52,0,0,0,0-.68c-.06-.17-.14-.28-.24-.29Z" fill="#3ea911"/><ellipse cx="5.77" cy="3.62" rx="1" ry="0.49" transform="matrix(0.15, -0.99, 0.99, 0.15, 1.3, 8.76)" fill="#b5e99c"/><path d="M5.65,4.69H5.6c-.32-.05-.49-.56-.4-1.16a1.62,1.62,0,0,1,.27-.71c.14-.2.3-.3.46-.27s.3.16.37.4a1.73,1.73,0,0,1,0,.76C6.24,4.28,6,4.69,5.65,4.69Zm.23-2a.38.38,0,0,0-.28.2,1.61,1.61,0,0,0-.24.64c-.08.54.07,1,.26,1s.47-.31.55-.85h0a1.56,1.56,0,0,0,0-.69c0-.16-.13-.27-.23-.28Z" fill="#3ea911"/><ellipse cx="5.77" cy="7.39" rx="0.49" ry="1" transform="translate(-2.65 3.27) rotate(-25.98)" fill="#b5e99c"/><path d="M6.09,8.4c-.27,0-.61-.3-.84-.76a1.84,1.84,0,0,1-.19-.74.5.5,0,0,1,.23-.49.51.51,0,0,1,.53.12,1.68,1.68,0,0,1,.46.6c.27.55.25,1.09,0,1.23A.33.33,0,0,1,6.09,8.4ZM5.44,6.54l-.08,0c-.08,0-.13.16-.13.34a1.62,1.62,0,0,0,.17.67c.24.48.6.73.77.64s.2-.51,0-1h0a1.63,1.63,0,0,0-.42-.55A.48.48,0,0,0,5.44,6.54Z" fill="#3ea911"/><ellipse cx="7" cy="6.89" rx="0.49" ry="0.81" transform="translate(-1.8 11.25) rotate(-70.97)" fill="#b5e99c"/><path d="M7.24,7.51a1.31,1.31,0,0,1-.43-.08C6.33,7.27,6,6.9,6.15,6.6a.48.48,0,0,1,.4-.31,1.16,1.16,0,0,1,.63.06,1.28,1.28,0,0,1,.54.34.5.5,0,0,1,.12.49.48.48,0,0,1-.4.3A.64.64,0,0,1,7.24,7.51ZM6.75,6.43l-.17,0a.35.35,0,0,0-.28.2c-.07.21.19.5.56.62a1,1,0,0,0,.55.05.36.36,0,0,0,.28-.19.35.35,0,0,0-.1-.33,1.09,1.09,0,0,0-.46-.3h0A1.33,1.33,0,0,0,6.75,6.43Z" fill="#3ea911"/><ellipse cx="3.23" cy="3.94" rx="0.49" ry="0.81" transform="translate(-1.55 5.7) rotate(-70.97)" fill="#b5e99c"/><path d="M3.47,4.56A1.31,1.31,0,0,1,3,4.48c-.48-.16-.77-.53-.66-.83a.49.49,0,0,1,.4-.31,1.16,1.16,0,0,1,.63.06A1.21,1.21,0,0,1,4,3.75a.48.48,0,0,1,.12.48.51.51,0,0,1-.4.31ZM3,3.49H2.81a.35.35,0,0,0-.28.2c-.07.21.19.5.56.63a1.18,1.18,0,0,0,.55,0,.39.39,0,0,0,.28-.2.35.35,0,0,0-.1-.33,1.09,1.09,0,0,0-.46-.3h0A1.31,1.31,0,0,0,3,3.49Z" fill="#3ea911"/><ellipse cx="7.16" cy="4.27" rx="0.81" ry="0.49" transform="translate(-1.12 5.21) rotate(-37.31)" fill="#b5e99c"/><path d="M6.84,5a.46.46,0,0,1-.39-.17.51.51,0,0,1,0-.5,1.34,1.34,0,0,1,.4-.5,1.22,1.22,0,0,1,.59-.25.49.49,0,0,1,.47.16c.2.26,0,.7-.36,1A1.16,1.16,0,0,1,6.84,5Zm.64-1.26H7.42a1.09,1.09,0,0,0-.51.22h0a1,1,0,0,0-.34.43.34.34,0,0,0,0,.34c.13.18.51.12.83-.12s.47-.59.33-.77A.3.3,0,0,0,7.48,3.72Z" fill="#3ea911"/><ellipse cx="3.06" cy="6.56" rx="0.81" ry="0.49" transform="translate(-3.35 3.2) rotate(-37.31)" fill="#b5e99c"/><path d="M2.74,7.27a.45.45,0,0,1-.39-.17.48.48,0,0,1,0-.5,1.22,1.22,0,0,1,.39-.5,1.26,1.26,0,0,1,.59-.25A.49.49,0,0,1,3.77,6c.2.25,0,.69-.36,1A1.14,1.14,0,0,1,2.74,7.27ZM3.39,6H3.32a1,1,0,0,0-.51.21h0a1.12,1.12,0,0,0-.34.43.34.34,0,0,0,0,.34c.13.18.51.13.83-.11s.47-.6.33-.77A.3.3,0,0,0,3.39,6Z" fill="#3ea911"/></svg>