<svg xmlns="http://www.w3.org/2000/svg" width="9.23" height="11.64" viewBox="0 0 9.23 11.64"><title>Ресурс 21</title><path d="M8.83,7A4.22,4.22,0,1,1,.4,7C.4,4.69,4,.4,4.61.4S8.83,4.69,8.83,7Z" fill="#60452f"/><path d="M4.61,11.64A4.62,4.62,0,0,1,0,7C0,4.57,3.68,0,4.61,0S9.23,4.57,9.23,7A4.62,4.62,0,0,1,4.61,11.64ZM4.61.82C3.92,1.25.8,5,.8,7A3.82,3.82,0,1,0,8.43,7C8.43,5,5.31,1.25,4.61.82Z" fill="#fff"/><ellipse cx="2.45" cy="5.45" rx="1.54" ry="0.73" transform="translate(-3.52 5.77) rotate(-68.97)" fill="#fff"/></svg>