<svg xmlns="http://www.w3.org/2000/svg" xmlns:xlink="http://www.w3.org/1999/xlink" width="10.57" height="11.9" viewBox="0 0 10.57 11.9"><defs><clipPath id="a" transform="translate(1.55 0)"><path d="M1.79,0A6.09,6.09,0,0,0,.9,7.48C3.36,11.9,8.74,8.69,8.74,8.69Z" fill="none"/></clipPath><clipPath id="b" transform="translate(1.55 0)"><path d="M2,1a5.62,5.62,0,0,0-.61,2.82L4.45,3.7Z" fill="none"/></clipPath><clipPath id="c" transform="translate(1.55 0)"><path d="M7.64,7.83a5.69,5.69,0,0,1-2.88.26l.52-3Z" fill="none"/></clipPath><clipPath id="d" transform="translate(1.55 0)"><path d="M4.7,4.23l-3,.16S1.5,6.36,4,7.69Z" fill="none"/></clipPath></defs><title>Ресурс 36</title><g clip-path="url(#a)"><rect width="10.29" height="11.9" fill="#c93223"/><circle cx="5.92" cy="4.91" r="4.65" fill="#c93223"/><circle cx="5.92" cy="4.91" r="4.59" fill="#ca3324"/><circle cx="5.92" cy="4.91" r="4.52" fill="#cb3524"/><circle cx="5.92" cy="4.91" r="4.46" fill="#cb3625"/><circle cx="5.92" cy="4.91" r="4.4" fill="#cc3726"/><circle cx="5.92" cy="4.91" r="4.33" fill="#cd3926"/><circle cx="5.92" cy="4.91" r="4.27" fill="#ce3a27"/><circle cx="5.92" cy="4.91" r="4.21" fill="#cf3b27"/><circle cx="5.92" cy="4.91" r="4.15" fill="#d03c28"/><circle cx="5.92" cy="4.91" r="4.08" fill="#d03e29"/><circle cx="5.92" cy="4.91" r="4.02" fill="#d13f29"/><circle cx="5.92" cy="4.91" r="3.96" fill="#d2402a"/><circle cx="5.92" cy="4.91" r="3.89" fill="#d3422a"/><circle cx="5.92" cy="4.91" r="3.83" fill="#d3432b"/><circle cx="5.92" cy="4.91" r="3.77" fill="#d4442c"/><circle cx="5.92" cy="4.91" r="3.71" fill="#d5452c"/><circle cx="5.92" cy="4.91" r="3.64" fill="#d6472d"/><circle cx="5.92" cy="4.91" r="3.58" fill="#d7482d"/><circle cx="5.92" cy="4.91" r="3.52" fill="#d7492e"/><circle cx="5.92" cy="4.91" r="3.45" fill="#d84a2e"/><circle cx="5.92" cy="4.91" r="3.39" fill="#d94b2f"/><circle cx="5.92" cy="4.91" r="3.33" fill="#da4d30"/><circle cx="5.92" cy="4.91" r="3.27" fill="#da4e30"/><circle cx="5.92" cy="4.91" r="3.2" fill="#db4f31"/><circle cx="5.92" cy="4.91" r="3.14" fill="#dc5031"/><circle cx="5.92" cy="4.91" r="3.08" fill="#dd5132"/><circle cx="5.92" cy="4.91" r="3.01" fill="#dd5332"/><circle cx="5.92" cy="4.91" r="2.95" fill="#de5433"/><circle cx="5.92" cy="4.91" r="2.89" fill="#df5533"/><circle cx="5.92" cy="4.91" r="2.83" fill="#df5634"/><circle cx="5.92" cy="4.91" r="2.76" fill="#e05735"/><circle cx="5.92" cy="4.91" r="2.7" fill="#e15835"/><circle cx="5.92" cy="4.91" r="2.64" fill="#e15936"/><circle cx="5.92" cy="4.91" r="2.57" fill="#e25a36"/><circle cx="5.92" cy="4.91" r="2.51" fill="#e35c37"/><circle cx="5.92" cy="4.91" r="2.45" fill="#e45d37"/><circle cx="5.92" cy="4.91" r="2.39" fill="#e45e38"/><circle cx="5.92" cy="4.91" r="2.32" fill="#e55f38"/><circle cx="5.92" cy="4.91" r="2.26" fill="#e66039"/><circle cx="5.92" cy="4.91" r="2.2" fill="#e66139"/><circle cx="5.92" cy="4.91" r="2.13" fill="#e7623a"/><circle cx="5.92" cy="4.91" r="2.07" fill="#e7633a"/><circle cx="5.92" cy="4.91" r="2.01" fill="#e8643b"/><circle cx="5.92" cy="4.91" r="1.95" fill="#e9653b"/><circle cx="5.92" cy="4.91" r="1.88" fill="#e9663c"/><circle cx="5.92" cy="4.91" r="1.82" fill="#ea673c"/><circle cx="5.92" cy="4.91" r="1.76" fill="#eb683d"/><circle cx="5.92" cy="4.91" r="1.7" fill="#eb693d"/><circle cx="5.92" cy="4.91" r="1.63" fill="#ec6a3d"/><circle cx="5.92" cy="4.91" r="1.57" fill="#ec6b3e"/><circle cx="5.92" cy="4.91" r="1.51" fill="#ed6c3e"/><circle cx="5.92" cy="4.91" r="1.44" fill="#ee6d3f"/><circle cx="5.92" cy="4.91" r="1.38" fill="#ee6e3f"/><circle cx="5.92" cy="4.91" r="1.32" fill="#ef6f40"/><circle cx="5.92" cy="4.91" r="1.26" fill="#ef6f40"/><circle cx="5.92" cy="4.91" r="1.19" fill="#f07040"/><circle cx="5.92" cy="4.91" r="1.13" fill="#f07141"/><circle cx="5.92" cy="4.91" r="1.07" fill="#f17241"/><circle cx="5.92" cy="4.91" r="1" fill="#f17342"/><circle cx="5.92" cy="4.91" r="0.94" fill="#f27442"/><circle cx="5.92" cy="4.91" r="0.88" fill="#f27442"/><circle cx="5.92" cy="4.91" r="0.82" fill="#f37543"/><circle cx="5.92" cy="4.91" r="0.75" fill="#f37643"/><circle cx="5.92" cy="4.91" r="0.69" fill="#f47743"/><circle cx="5.92" cy="4.91" r="0.63" fill="#f47744"/><circle cx="5.92" cy="4.91" r="0.57" fill="#f47844"/><circle cx="5.92" cy="4.91" r="0.5" fill="#f57944"/><circle cx="5.92" cy="4.91" r="0.44" fill="#f57945"/><circle cx="5.92" cy="4.91" r="0.38" fill="#f67a45"/><circle cx="5.92" cy="4.91" r="0.31" fill="#f67a45"/><circle cx="4.37" cy="4.91" r="0.25" transform="translate(1.01 9.27) rotate(-89.93)" fill="#f67b45"/><circle cx="5.92" cy="4.91" r="0.19" fill="#f77b46"/><circle cx="5.92" cy="4.91" r="0.13" fill="#f77c46"/><path d="M4.43,4.91A.06.06,0,0,1,4.37,5a.07.07,0,0,1-.07-.06s0-.06.07-.06A.06.06,0,0,1,4.43,4.91Z" transform="translate(1.55 0)" fill="#f77c46"/></g><path d="M1.61,6.58c1.77,3.17,5.14,2.16,6.64,1.5L1.91.15A5.69,5.69,0,0,0,1.61,6.58Z" transform="translate(1.55 0)" fill="#fff"/><g clip-path="url(#b)"><rect x="2.7" y="1.03" width="3.3" height="2.82" fill="#c93223"/><circle cx="4.45" cy="2.44" r="1.48" fill="#c93223"/><circle cx="4.45" cy="2.44" r="1.46" fill="#ca3324"/><circle cx="4.45" cy="2.44" r="1.44" fill="#cb3524"/><circle cx="4.45" cy="2.44" r="1.42" fill="#cb3625"/><circle cx="4.45" cy="2.44" r="1.4" fill="#cc3726"/><circle cx="4.45" cy="2.44" r="1.38" fill="#cd3926"/><circle cx="4.45" cy="2.44" r="1.36" fill="#ce3a27"/><circle cx="4.45" cy="2.44" r="1.34" fill="#cf3b27"/><circle cx="4.45" cy="2.44" r="1.32" fill="#d03c28"/><circle cx="4.45" cy="2.44" r="1.3" fill="#d03e29"/><circle cx="4.45" cy="2.44" r="1.28" fill="#d13f29"/><circle cx="4.45" cy="2.44" r="1.26" fill="#d2402a"/><circle cx="4.45" cy="2.44" r="1.24" fill="#d3422a"/><circle cx="4.45" cy="2.44" r="1.22" fill="#d3432b"/><circle cx="4.45" cy="2.44" r="1.2" fill="#d4442c"/><circle cx="4.45" cy="2.44" r="1.18" fill="#d5452c"/><circle cx="4.45" cy="2.44" r="1.16" fill="#d6472d"/><circle cx="4.45" cy="2.44" r="1.14" fill="#d7482d"/><circle cx="4.45" cy="2.44" r="1.12" fill="#d7492e"/><circle cx="4.45" cy="2.44" r="1.1" fill="#d84a2e"/><circle cx="4.45" cy="2.44" r="1.08" fill="#d94b2f"/><circle cx="4.45" cy="2.44" r="1.06" fill="#da4d30"/><circle cx="4.45" cy="2.44" r="1.04" fill="#da4e30"/><circle cx="4.45" cy="2.44" r="1.02" fill="#db4f31"/><circle cx="4.45" cy="2.44" r="1" fill="#dc5031"/><circle cx="4.45" cy="2.44" r="0.98" fill="#dd5132"/><circle cx="4.45" cy="2.44" r="0.96" fill="#dd5332"/><circle cx="4.45" cy="2.44" r="0.94" fill="#de5433"/><circle cx="4.45" cy="2.44" r="0.92" fill="#df5533"/><circle cx="4.45" cy="2.44" r="0.9" fill="#df5634"/><circle cx="4.45" cy="2.44" r="0.88" fill="#e05735"/><circle cx="4.45" cy="2.44" r="0.86" fill="#e15835"/><circle cx="4.45" cy="2.44" r="0.84" fill="#e15936"/><circle cx="4.45" cy="2.44" r="0.82" fill="#e25a36"/><circle cx="4.45" cy="2.44" r="0.8" fill="#e35c37"/><circle cx="4.45" cy="2.44" r="0.78" fill="#e45d37"/><circle cx="4.45" cy="2.44" r="0.76" fill="#e45e38"/><circle cx="4.45" cy="2.44" r="0.74" fill="#e55f38"/><circle cx="4.45" cy="2.44" r="0.72" fill="#e66039"/><circle cx="4.45" cy="2.44" r="0.7" fill="#e66139"/><circle cx="4.45" cy="2.44" r="0.68" fill="#e7623a"/><circle cx="4.45" cy="2.44" r="0.66" fill="#e7633a"/><circle cx="4.45" cy="2.44" r="0.64" fill="#e8643b"/><circle cx="4.45" cy="2.44" r="0.62" fill="#e9653b"/><circle cx="4.45" cy="2.44" r="0.6" fill="#e9663c"/><circle cx="4.45" cy="2.44" r="0.58" fill="#ea673c"/><circle cx="4.45" cy="2.44" r="0.56" fill="#eb683d"/><circle cx="4.45" cy="2.44" r="0.54" fill="#eb693d"/><circle cx="4.45" cy="2.44" r="0.52" fill="#ec6a3d"/><circle cx="4.45" cy="2.44" r="0.5" fill="#ec6b3e"/><circle cx="4.45" cy="2.44" r="0.48" fill="#ed6c3e"/><circle cx="4.45" cy="2.44" r="0.46" fill="#ee6d3f"/><circle cx="4.45" cy="2.44" r="0.44" fill="#ee6e3f"/><circle cx="4.45" cy="2.44" r="0.42" fill="#ef6f40"/><circle cx="4.45" cy="2.44" r="0.4" fill="#ef6f40"/><circle cx="4.45" cy="2.44" r="0.38" fill="#f07040"/><circle cx="4.45" cy="2.44" r="0.36" fill="#f07141"/><circle cx="4.45" cy="2.44" r="0.34" fill="#f17241"/><circle cx="4.45" cy="2.44" r="0.32" fill="#f17342"/><circle cx="4.45" cy="2.44" r="0.3" fill="#f27442"/><circle cx="2.9" cy="2.44" r="0.28" transform="translate(2.01 5.33) rotate(-89.94)" fill="#f27442"/><circle cx="4.45" cy="2.44" r="0.26" fill="#f37543"/><circle cx="4.45" cy="2.44" r="0.24" fill="#f37643"/><circle cx="4.45" cy="2.44" r="0.22" fill="#f47743"/><circle cx="4.45" cy="2.44" r="0.2" fill="#f47744"/><circle cx="2.9" cy="2.44" r="0.18" transform="translate(2.01 5.33) rotate(-89.9)" fill="#f47844"/><circle cx="2.9" cy="2.44" r="0.16" transform="translate(2.01 5.33) rotate(-89.89)" fill="#f57944"/><circle cx="4.45" cy="2.44" r="0.14" fill="#f57945"/><circle cx="4.45" cy="2.44" r="0.12" fill="#f67a45"/><circle cx="4.45" cy="2.44" r="0.1" fill="#f67a45"/><path d="M3,2.44a.09.09,0,0,1-.08.08.08.08,0,0,1-.08-.08.07.07,0,0,1,.08-.08A.08.08,0,0,1,3,2.44Z" transform="translate(1.55 0)" fill="#f67b45"/><path d="M3,2.44a.06.06,0,0,1-.06.06.06.06,0,0,1,0-.12A.06.06,0,0,1,3,2.44Z" transform="translate(1.55 0)" fill="#f77b46"/><path d="M2.94,2.44a0,0,0,0,1,0,0,0,0,0,0,1,0-.08A0,0,0,0,1,2.94,2.44Z" transform="translate(1.55 0)" fill="#f77c46"/><circle cx="4.45" cy="2.44" r="0.02" fill="#f77c46"/></g><g clip-path="url(#c)"><rect x="6.31" y="5.07" width="2.88" height="3.39" fill="#c93223"/><circle cx="7.75" cy="6.64" r="1.5" fill="#c93223"/><circle cx="7.75" cy="6.64" r="1.48" fill="#ca3324"/><circle cx="7.75" cy="6.64" r="1.46" fill="#cb3524"/><circle cx="7.75" cy="6.64" r="1.44" fill="#cb3625"/><circle cx="7.75" cy="6.64" r="1.42" fill="#cc3726"/><circle cx="7.75" cy="6.64" r="1.4" fill="#cd3926"/><circle cx="7.75" cy="6.64" r="1.38" fill="#ce3a27"/><circle cx="7.75" cy="6.64" r="1.36" fill="#cf3b27"/><circle cx="7.75" cy="6.64" r="1.34" fill="#d03c28"/><circle cx="7.75" cy="6.64" r="1.32" fill="#d03e29"/><circle cx="7.75" cy="6.64" r="1.3" fill="#d13f29"/><circle cx="7.75" cy="6.64" r="1.28" fill="#d2402a"/><circle cx="7.75" cy="6.64" r="1.26" fill="#d3422a"/><circle cx="7.75" cy="6.64" r="1.24" fill="#d3432b"/><circle cx="7.75" cy="6.64" r="1.22" fill="#d4442c"/><circle cx="7.75" cy="6.64" r="1.2" fill="#d5452c"/><circle cx="7.75" cy="6.64" r="1.18" fill="#d6472d"/><circle cx="7.75" cy="6.64" r="1.16" fill="#d7482d"/><circle cx="7.75" cy="6.64" r="1.14" fill="#d7492e"/><circle cx="7.75" cy="6.64" r="1.12" fill="#d84a2e"/><circle cx="7.75" cy="6.64" r="1.1" fill="#d94b2f"/><circle cx="7.75" cy="6.64" r="1.08" fill="#da4d30"/><circle cx="7.75" cy="6.64" r="1.06" fill="#da4e30"/><circle cx="7.75" cy="6.64" r="1.04" fill="#db4f31"/><circle cx="7.75" cy="6.64" r="1.02" fill="#dc5031"/><circle cx="7.75" cy="6.64" r="1" fill="#dd5132"/><circle cx="7.75" cy="6.64" r="0.98" fill="#dd5332"/><circle cx="7.75" cy="6.64" r="0.96" fill="#de5433"/><circle cx="7.75" cy="6.64" r="0.93" fill="#df5533"/><circle cx="7.75" cy="6.64" r="0.91" fill="#df5634"/><circle cx="7.75" cy="6.64" r="0.89" fill="#e05735"/><circle cx="7.75" cy="6.64" r="0.87" fill="#e15835"/><circle cx="7.75" cy="6.64" r="0.85" fill="#e15936"/><circle cx="7.75" cy="6.64" r="0.83" fill="#e25a36"/><circle cx="7.75" cy="6.64" r="0.81" fill="#e35c37"/><circle cx="7.75" cy="6.64" r="0.79" fill="#e45d37"/><circle cx="7.75" cy="6.64" r="0.77" fill="#e45e38"/><circle cx="7.75" cy="6.64" r="0.75" fill="#e55f38"/><circle cx="7.75" cy="6.64" r="0.73" fill="#e66039"/><circle cx="7.75" cy="6.64" r="0.71" fill="#e66139"/><circle cx="7.75" cy="6.64" r="0.69" fill="#e7623a"/><circle cx="7.75" cy="6.64" r="0.67" fill="#e7633a"/><circle cx="7.75" cy="6.64" r="0.65" fill="#e8643b"/><circle cx="7.75" cy="6.64" r="0.63" fill="#e9653b"/><circle cx="7.75" cy="6.64" r="0.61" fill="#e9663c"/><circle cx="7.75" cy="6.64" r="0.59" fill="#ea673c"/><circle cx="7.75" cy="6.64" r="0.57" fill="#eb683d"/><circle cx="7.75" cy="6.64" r="0.55" fill="#eb693d"/><circle cx="7.75" cy="6.64" r="0.53" fill="#ec6a3d"/><circle cx="7.75" cy="6.64" r="0.51" fill="#ec6b3e"/><circle cx="7.75" cy="6.64" r="0.49" fill="#ed6c3e"/><circle cx="7.75" cy="6.64" r="0.47" fill="#ee6d3f"/><circle cx="7.75" cy="6.64" r="0.45" fill="#ee6e3f"/><circle cx="7.75" cy="6.64" r="0.43" fill="#ef6f40"/><circle cx="7.75" cy="6.64" r="0.41" fill="#ef6f40"/><circle cx="7.75" cy="6.64" r="0.39" fill="#f07040"/><circle cx="7.75" cy="6.64" r="0.37" fill="#f07141"/><circle cx="7.75" cy="6.64" r="0.35" fill="#f17241"/><circle cx="7.75" cy="6.64" r="0.33" fill="#f17342"/><circle cx="7.75" cy="6.64" r="0.3" fill="#f27442"/><circle cx="7.75" cy="6.64" r="0.28" fill="#f27442"/><circle cx="6.2" cy="6.64" r="0.26" transform="translate(1.11 12.83) rotate(-89.94)" fill="#f37543"/><circle cx="6.2" cy="6.64" r="0.24" transform="translate(1.11 12.83) rotate(-89.93)" fill="#f37643"/><circle cx="6.2" cy="6.64" r="0.22" transform="translate(1.11 12.83) rotate(-89.92)" fill="#f47743"/><circle cx="7.75" cy="6.64" r="0.2" fill="#f47744"/><circle cx="7.75" cy="6.64" r="0.18" fill="#f47844"/><circle cx="6.2" cy="6.64" r="0.16" transform="translate(1.1 12.82) rotate(-89.89)" fill="#f57944"/><circle cx="6.2" cy="6.64" r="0.14" transform="translate(1.1 12.82) rotate(-89.88)" fill="#f57945"/><circle cx="6.2" cy="6.64" r="0.12" transform="translate(1.1 12.82) rotate(-89.86)" fill="#f67a45"/><circle cx="7.75" cy="6.64" r="0.1" fill="#f67a45"/><circle cx="7.75" cy="6.64" r="0.08" fill="#f67b45"/><path d="M6.26,6.64a.06.06,0,0,1-.06.06.06.06,0,1,1,0-.12A.06.06,0,0,1,6.26,6.64Z" transform="translate(1.55 0)" fill="#f77b46"/><path d="M6.24,6.64a0,0,0,0,1-.08,0,0,0,0,0,1,.08,0A0,0,0,0,1,6.24,6.64Z" transform="translate(1.55 0)" fill="#f77c46"/><path d="M6.22,6.64a0,0,0,0,1,0,0,0,0,0,0,1,0,0l0,0Z" transform="translate(1.55 0)" fill="#f77c46"/></g><g clip-path="url(#d)"><rect x="3.05" y="4.23" width="3.2" height="3.46" fill="#c93223"/><circle cx="4.75" cy="5.96" r="1.62" fill="#c93223"/><circle cx="4.75" cy="5.96" r="1.6" fill="#ca3324"/><circle cx="4.75" cy="5.96" r="1.57" fill="#cb3524"/><circle cx="4.75" cy="5.96" r="1.55" fill="#cb3625"/><circle cx="4.75" cy="5.96" r="1.53" fill="#cc3726"/><circle cx="4.75" cy="5.96" r="1.51" fill="#cd3926"/><circle cx="4.75" cy="5.96" r="1.49" fill="#ce3a27"/><circle cx="4.75" cy="5.96" r="1.46" fill="#cf3b27"/><circle cx="4.75" cy="5.96" r="1.44" fill="#d03c28"/><circle cx="4.75" cy="5.96" r="1.42" fill="#d03e29"/><circle cx="4.75" cy="5.96" r="1.4" fill="#d13f29"/><circle cx="4.75" cy="5.96" r="1.38" fill="#d2402a"/><circle cx="4.75" cy="5.96" r="1.36" fill="#d3422a"/><circle cx="4.75" cy="5.96" r="1.33" fill="#d3432b"/><circle cx="4.75" cy="5.96" r="1.31" fill="#d4442c"/><circle cx="4.75" cy="5.96" r="1.29" fill="#d5452c"/><circle cx="4.75" cy="5.96" r="1.27" fill="#d6472d"/><circle cx="4.75" cy="5.96" r="1.25" fill="#d7482d"/><circle cx="4.75" cy="5.96" r="1.22" fill="#d7492e"/><circle cx="4.75" cy="5.96" r="1.2" fill="#d84a2e"/><circle cx="4.75" cy="5.96" r="1.18" fill="#d94b2f"/><circle cx="4.75" cy="5.96" r="1.16" fill="#da4d30"/><circle cx="4.75" cy="5.96" r="1.14" fill="#da4e30"/><circle cx="4.75" cy="5.96" r="1.12" fill="#db4f31"/><circle cx="4.75" cy="5.96" r="1.09" fill="#dc5031"/><circle cx="4.75" cy="5.96" r="1.07" fill="#dd5132"/><circle cx="4.75" cy="5.96" r="1.05" fill="#dd5332"/><circle cx="4.75" cy="5.96" r="1.03" fill="#de5433"/><circle cx="4.75" cy="5.96" r="1.01" fill="#df5533"/><circle cx="4.75" cy="5.96" r="0.98" fill="#df5634"/><circle cx="4.75" cy="5.96" r="0.96" fill="#e05735"/><circle cx="4.75" cy="5.96" r="0.94" fill="#e15835"/><circle cx="4.75" cy="5.96" r="0.92" fill="#e15936"/><circle cx="4.75" cy="5.96" r="0.9" fill="#e25a36"/><circle cx="4.75" cy="5.96" r="0.87" fill="#e35c37"/><circle cx="4.75" cy="5.96" r="0.85" fill="#e45d37"/><circle cx="4.75" cy="5.96" r="0.83" fill="#e45e38"/><circle cx="4.75" cy="5.96" r="0.81" fill="#e55f38"/><circle cx="4.75" cy="5.96" r="0.79" fill="#e66039"/><circle cx="4.75" cy="5.96" r="0.77" fill="#e66139"/><circle cx="4.75" cy="5.96" r="0.74" fill="#e7623a"/><circle cx="4.75" cy="5.96" r="0.72" fill="#e7633a"/><circle cx="4.75" cy="5.96" r="0.7" fill="#e8643b"/><circle cx="4.75" cy="5.96" r="0.68" fill="#e9653b"/><circle cx="4.75" cy="5.96" r="0.66" fill="#e9663c"/><circle cx="4.75" cy="5.96" r="0.63" fill="#ea673c"/><circle cx="4.75" cy="5.96" r="0.61" fill="#eb683d"/><circle cx="4.75" cy="5.96" r="0.59" fill="#eb693d"/><circle cx="4.75" cy="5.96" r="0.57" fill="#ec6a3d"/><circle cx="4.75" cy="5.96" r="0.55" fill="#ec6b3e"/><circle cx="4.75" cy="5.96" r="0.52" fill="#ed6c3e"/><circle cx="4.75" cy="5.96" r="0.5" fill="#ee6d3f"/><circle cx="4.75" cy="5.96" r="0.48" fill="#ee6e3f"/><circle cx="4.75" cy="5.96" r="0.46" fill="#ef6f40"/><circle cx="4.75" cy="5.96" r="0.44" fill="#ef6f40"/><circle cx="4.75" cy="5.96" r="0.42" fill="#f07040"/><circle cx="4.75" cy="5.96" r="0.39" fill="#f07141"/><circle cx="4.75" cy="5.96" r="0.37" fill="#f17241"/><circle cx="4.75" cy="5.96" r="0.35" fill="#f17342"/><circle cx="4.75" cy="5.96" r="0.33" fill="#f27442"/><circle cx="4.75" cy="5.96" r="0.31" fill="#f27442"/><circle cx="3.2" cy="5.96" r="0.28" transform="translate(-1.21 9.15) rotate(-89.94)" fill="#f37543"/><circle cx="4.75" cy="5.96" r="0.26" fill="#f37643"/><circle cx="4.75" cy="5.96" r="0.24" fill="#f47743"/><circle cx="4.75" cy="5.96" r="0.22" fill="#f47744"/><circle cx="4.75" cy="5.96" r="0.2" fill="#f47844"/><circle cx="4.75" cy="5.96" r="0.17" fill="#f57944"/><circle cx="4.75" cy="5.96" r="0.15" fill="#f57945"/><circle cx="4.75" cy="5.96" r="0.13" fill="#f67a45"/><circle cx="4.75" cy="5.96" r="0.11" fill="#f67a45"/><circle cx="4.75" cy="5.96" r="0.09" fill="#f67b45"/><circle cx="4.75" cy="5.96" r="0.07" fill="#f77b46"/><circle cx="4.75" cy="5.96" r="0.04" fill="#f77c46"/><circle cx="4.75" cy="5.96" r="0.02" fill="#f77c46"/></g></svg>