<svg xmlns="http://www.w3.org/2000/svg" width="10.59" height="10.58" viewBox="0 0 10.59 10.58"><title>Ресурс 18</title><path d="M10.59,5.29A5.3,5.3,0,1,1,5.29,0,5.29,5.29,0,0,1,10.59,5.29Z" fill="#f0e000"/><path d="M9.89,5.29A4.6,4.6,0,1,1,5.29.7,4.59,4.59,0,0,1,9.89,5.29Z" fill="#fff"/><path d="M9.33,4.92A4,4,0,0,0,8.5,2.81L6.39,4.92Z" fill="#f0e000"/><path d="M8,2.31H8a4,4,0,0,0-2.32-1V4.62Z" fill="#f0e000"/><path d="M8.49,7.78a4.07,4.07,0,0,0,.85-2.17h-3Z" fill="#f0e000"/><path d="M5.72,6V9.32a4.06,4.06,0,0,0,2.3-1Z" fill="#f0e000"/><path d="M5,4.32V1.25A4,4,0,0,0,2.8,2.1Z" fill="#f0e000"/><path d="M2.3,2.56a4,4,0,0,0-1,2.36H4.66Z" fill="#f0e000"/><path d="M4.73,5.61H1.25A4,4,0,0,0,2.31,8Z" fill="#f0e000"/><path d="M2.82,8.49A4,4,0,0,0,5,9.33v-3Z" fill="#f0e000"/></svg>