<svg xmlns="http://www.w3.org/2000/svg" width="10.66" height="13.1" viewBox="0 0 10.66 13.1"><title>Ресурс 23</title><path d="M8.58,5.47a.17.17,0,0,0,0-.17l-.05-.07c-.17-.15-.7-.29-2.28-.11h0l.5.17a6.81,6.81,0,0,0,1.4.31,2.41,2.41,0,0,0,.35,0S8.55,5.54,8.58,5.47Z" fill="none"/><path d="M6.24,5.12c1.58-.18,2.11,0,2.28.11l.05.07a.17.17,0,0,1,0,.17c0,.07-.09.09-.09.1l.27-.07a1.51,1.51,0,0,0,.74-.6,1.67,1.67,0,0,0,.16-.38A1.32,1.32,0,0,0,8.86,4a7.08,7.08,0,0,0-2.75-.19,7.5,7.5,0,0,0-2,.47,2.12,2.12,0,0,0,.49.32A7.13,7.13,0,0,0,6.24,5.12Z" fill="#f3ffdb"/><path d="M3.42,2.89a4,4,0,0,1,1.13-.6,15.19,15.19,0,0,1,5.91-.78c.25,0,.29-1.48,0-1.49A14.53,14.53,0,0,0,4.29.91,2.93,2.93,0,0,0,2.63,2.34a2.82,2.82,0,0,0,.45.85A2.43,2.43,0,0,1,3.42,2.89Z" fill="#f3ffdb"/><path d="M.33,12.74a4.39,4.39,0,0,1,.92-2.26,2.31,2.31,0,0,1,1.41-.71h.07a2.81,2.81,0,0,1-.61-.58,2.4,2.4,0,0,1-.33-.61C.63,9.25.27,10.69,0,12a2.07,2.07,0,0,0,0,1C.2,13.3.32,12.83.33,12.74Z" fill="#f3ffdb"/><path d="M2.73,9.76l.47.32a2.56,2.56,0,0,0,1.53.55c.72-.08.79-1.16.71-1.7a1.16,1.16,0,0,0-.14-.4,1.26,1.26,0,0,1-.14.33h0a.71.71,0,0,1-.33.27c-.68.26-1.76-.62-2.06-.88l-.08-.08h0L2.48,8,2.29,7.8h0a1.24,1.24,0,0,1-.14-.18l0,0A1.62,1.62,0,0,1,2,7.39l0-.07V7.27a3.87,3.87,0,0,1-.21-.87h0a3.62,3.62,0,0,0,0,2.16,2.4,2.4,0,0,0,.33.61A2.81,2.81,0,0,0,2.73,9.76Z" fill="#5bad32"/><path d="M4,5.83a7.52,7.52,0,0,0,4,.92c.6,0,1.42,0,1.7-.65,0,0,0-.09,0-.13a2.16,2.16,0,0,0-.05-1.4l0-.05a1.67,1.67,0,0,1-.16.38,1.51,1.51,0,0,1-.74.6l-.27.07a2.41,2.41,0,0,1-.35,0,6.81,6.81,0,0,1-1.4-.31l-.5-.17h0a7.13,7.13,0,0,1-1.63-.49,2.12,2.12,0,0,1-.49-.32,5.88,5.88,0,0,1-1-1.12,2.82,2.82,0,0,1-.45-.85.88.88,0,0,1,0,.15,2.74,2.74,0,0,0,.33,2.43,2.69,2.69,0,0,0,.27.32A4.64,4.64,0,0,0,4,5.83Z" fill="#5bad32"/><path d="M2,7.32l0,.07H2a.8.8,0,0,1,.08-.16,2.56,2.56,0,0,1,.62-.69A4.6,4.6,0,0,1,4,5.83a4.64,4.64,0,0,1-.79-.59,2.69,2.69,0,0,1-.27-.32A2.88,2.88,0,0,0,1.8,6.29l0,.11A3.87,3.87,0,0,0,2,7.27Z" fill="#f3ffdb"/><path d="M2.29,7.8h0l-.14-.18A1.24,1.24,0,0,0,2.29,7.8Z" fill="#f9f9f7"/><path d="M2.76,8.26c.3.26,1.38,1.14,2.06.88a.71.71,0,0,0,.33-.27h0a1.26,1.26,0,0,0,.14-.33l0,0a1,1,0,0,0-.75-.32,6.14,6.14,0,0,0-1.42.05H3l-.27,0-.09-.08h0Z" fill="#f3ffdb"/></svg>