<svg xmlns="http://www.w3.org/2000/svg" width="12.97" height="7" viewBox="0 0 12.97 7"><title>Ресурс 11</title><ellipse cx="4.79" cy="6.27" rx="0.73" ry="0.21" transform="translate(-3.07 5.56) rotate(-47.5)" fill="#fff"/><ellipse cx="5.17" cy="6.33" rx="0.73" ry="0.21" transform="translate(-2.99 5.87) rotate(-47.5)" fill="#fff"/><ellipse cx="5.81" cy="5.24" rx="0.73" ry="0.21" transform="translate(-1.98 5.98) rotate(-47.5)" fill="#fff"/><ellipse cx="6.21" cy="6.27" rx="0.24" ry="0.65" transform="translate(-2.31 8.59) rotate(-60.5)" fill="#fff"/><ellipse cx="4.79" cy="5.49" rx="0.22" ry="0.69" transform="translate(-2.5 5.57) rotate(-49.57)" fill="#fff"/><ellipse cx="5.51" cy="6.33" rx="0.22" ry="0.69" transform="translate(-2.88 6.42) rotate(-49.57)" fill="#fff"/><ellipse cx="6.16" cy="5.65" rx="0.22" ry="0.69" transform="translate(-2.14 6.67) rotate(-49.57)" fill="#fff"/><ellipse cx="5.34" cy="5.16" rx="0.22" ry="0.69" transform="translate(-2.06 5.88) rotate(-49.57)" fill="#fff"/><ellipse cx="4.4" cy="5.98" rx="0.22" ry="0.69" transform="translate(-3.01 5.45) rotate(-49.57)" fill="#fff"/><ellipse cx="6.9" cy="6.39" rx="0.73" ry="0.21" transform="translate(-2.47 7.16) rotate(-47.5)" fill="#fff"/><ellipse cx="7.28" cy="6.45" rx="0.73" ry="0.21" transform="translate(-2.39 7.46) rotate(-47.5)" fill="#fff"/><ellipse cx="7.92" cy="5.36" rx="0.73" ry="0.21" transform="translate(-1.38 7.58) rotate(-47.5)" fill="#fff"/><ellipse cx="8.32" cy="6.39" rx="0.24" ry="0.65" transform="translate(-1.34 10.48) rotate(-60.5)" fill="#fff"/><ellipse cx="6.9" cy="5.61" rx="0.22" ry="0.69" transform="translate(-1.85 7.22) rotate(-49.57)" fill="#fff"/><ellipse cx="7.62" cy="6.45" rx="0.22" ry="0.69" transform="translate(-2.23 8.06) rotate(-49.57)" fill="#fff"/><ellipse cx="8.27" cy="5.77" rx="0.22" ry="0.69" transform="translate(-1.48 8.32) rotate(-49.57)" fill="#fff"/><ellipse cx="7.44" cy="5.28" rx="0.22" ry="0.69" transform="translate(-1.4 7.52) rotate(-49.57)" fill="#fff"/><ellipse cx="6.51" cy="6.1" rx="0.22" ry="0.69" transform="translate(-2.35 7.1) rotate(-49.57)" fill="#fff"/><ellipse cx="0.93" cy="6.19" rx="0.73" ry="0.21" transform="translate(-4.26 2.7) rotate(-47.5)" fill="#fff"/><ellipse cx="1.32" cy="6.25" rx="0.73" ry="0.21" transform="translate(-4.18 3) rotate(-47.5)" fill="#fff"/><ellipse cx="1.96" cy="5.16" rx="0.73" ry="0.21" transform="translate(-3.17 3.12) rotate(-47.5)" fill="#fff"/><ellipse cx="2.35" cy="6.19" rx="0.24" ry="0.65" transform="translate(-4.2 5.19) rotate(-60.5)" fill="#fff"/><ellipse cx="0.93" cy="5.42" rx="0.22" ry="0.69" transform="translate(-3.8 2.61) rotate(-49.57)" fill="#fff"/><ellipse cx="1.66" cy="6.25" rx="0.22" ry="0.69" transform="translate(-4.18 3.46) rotate(-49.57)" fill="#fff"/><ellipse cx="2.3" cy="5.57" rx="0.22" ry="0.69" transform="translate(-3.43 3.71) rotate(-49.57)" fill="#fff"/><ellipse cx="1.48" cy="5.09" rx="0.22" ry="0.69" transform="translate(-3.35 2.92) rotate(-49.57)" fill="#fff"/><ellipse cx="0.55" cy="5.9" rx="0.22" ry="0.69" transform="translate(-4.3 2.49) rotate(-49.57)" fill="#fff"/><ellipse cx="3.04" cy="6.31" rx="0.73" ry="0.21" transform="translate(-3.67 4.29) rotate(-47.5)" fill="#fff"/><ellipse cx="3.43" cy="6.37" rx="0.73" ry="0.21" transform="translate(-3.58 4.59) rotate(-47.5)" fill="#fff"/><ellipse cx="4.06" cy="5.28" rx="0.73" ry="0.21" transform="translate(-2.58 4.71) rotate(-47.5)" fill="#fff"/><ellipse cx="4.46" cy="6.31" rx="0.24" ry="0.65" transform="translate(-3.23 7.09) rotate(-60.5)" fill="#fff"/><ellipse cx="3.04" cy="5.53" rx="0.22" ry="0.69" transform="translate(-3.14 4.26) rotate(-49.57)" fill="#fff"/><ellipse cx="3.76" cy="6.37" rx="0.22" ry="0.69" transform="translate(-3.52 5.1) rotate(-49.57)" fill="#fff"/><ellipse cx="4.41" cy="5.69" rx="0.22" ry="0.69" transform="translate(-2.78 5.36) rotate(-49.57)" fill="#fff"/><ellipse cx="3.59" cy="5.2" rx="0.22" ry="0.69" transform="translate(-2.7 4.56) rotate(-49.57)" fill="#fff"/><ellipse cx="2.65" cy="6.02" rx="0.22" ry="0.69" transform="translate(-3.65 4.14) rotate(-49.57)" fill="#fff"/><ellipse cx="10.7" cy="6.23" rx="0.73" ry="0.21" transform="translate(-1.12 9.91) rotate(-47.5)" fill="#fff"/><ellipse cx="11.09" cy="6.29" rx="0.73" ry="0.21" transform="translate(-1.04 10.22) rotate(-47.5)" fill="#fff"/><ellipse cx="11.72" cy="5.2" rx="0.73" ry="0.21" transform="translate(-0.03 10.33) rotate(-47.5)" fill="#fff"/><ellipse cx="12.12" cy="6.23" rx="0.24" ry="0.65" transform="translate(0.73 13.72) rotate(-60.5)" fill="#fff"/><ellipse cx="10.7" cy="5.46" rx="0.22" ry="0.69" transform="translate(-0.39 10.06) rotate(-49.57)" fill="#fff"/><ellipse cx="11.42" cy="6.29" rx="0.22" ry="0.69" transform="translate(-0.77 10.91) rotate(-49.57)" fill="#fff"/><ellipse cx="12.07" cy="5.61" rx="0.22" ry="0.69" transform="translate(-0.03 11.16) rotate(-49.57)" fill="#fff"/><ellipse cx="11.25" cy="5.13" rx="0.22" ry="0.69" transform="translate(0.05 10.36) rotate(-49.57)" fill="#fff"/><ellipse cx="10.31" cy="5.94" rx="0.22" ry="0.69" transform="translate(-0.9 9.94) rotate(-49.57)" fill="#fff"/><ellipse cx="12.42" cy="6.06" rx="0.22" ry="0.69" transform="translate(-0.25 11.58) rotate(-49.57)" fill="#fff"/><ellipse cx="6.85" cy="6.16" rx="0.73" ry="0.21" transform="translate(-2.32 7.04) rotate(-47.5)" fill="#fff"/><ellipse cx="7.23" cy="6.21" rx="0.73" ry="0.21" transform="translate(-2.23 7.35) rotate(-47.5)" fill="#fff"/><ellipse cx="7.87" cy="5.13" rx="0.73" ry="0.21" transform="translate(-1.23 7.46) rotate(-47.5)" fill="#fff"/><ellipse cx="8.27" cy="6.16" rx="0.24" ry="0.65" transform="translate(-1.16 10.32) rotate(-60.5)" fill="#fff"/><ellipse cx="6.85" cy="5.38" rx="0.22" ry="0.69" transform="translate(-1.69 7.1) rotate(-49.57)" fill="#fff"/><ellipse cx="7.57" cy="6.21" rx="0.22" ry="0.69" transform="translate(-2.07 7.94) rotate(-49.57)" fill="#fff"/><ellipse cx="8.22" cy="5.53" rx="0.22" ry="0.69" transform="translate(-1.32 8.2) rotate(-49.57)" fill="#fff"/><ellipse cx="7.39" cy="5.05" rx="0.22" ry="0.69" transform="translate(-1.24 7.4) rotate(-49.57)" fill="#fff"/><ellipse cx="6.46" cy="5.86" rx="0.22" ry="0.69" transform="translate(-2.19 6.98) rotate(-49.57)" fill="#fff"/><ellipse cx="8.95" cy="6.27" rx="0.73" ry="0.21" transform="translate(-1.72 8.64) rotate(-47.5)" fill="#fff"/><ellipse cx="9.34" cy="6.33" rx="0.73" ry="0.21" transform="translate(-1.64 8.94) rotate(-47.5)" fill="#fff"/><ellipse cx="9.98" cy="5.24" rx="0.73" ry="0.21" transform="translate(-0.63 9.06) rotate(-47.5)" fill="#fff"/><ellipse cx="10.38" cy="6.27" rx="0.24" ry="0.65" transform="translate(-0.19 12.21) rotate(-60.5)" fill="#fff"/><ellipse cx="8.95" cy="5.49" rx="0.22" ry="0.69" transform="translate(-1.04 8.75) rotate(-49.57)" fill="#fff"/><ellipse cx="9.68" cy="6.33" rx="0.22" ry="0.69" transform="translate(-1.42 9.59) rotate(-49.57)" fill="#fff"/><ellipse cx="10.33" cy="5.65" rx="0.22" ry="0.69" transform="translate(-0.67 9.85) rotate(-49.57)" fill="#fff"/><ellipse cx="9.5" cy="5.16" rx="0.22" ry="0.69" transform="translate(-0.51 1.07) rotate(-6.29)" fill="#fff"/><ellipse cx="3.01" cy="4.9" rx="0.22" ry="0.69" transform="translate(-0.52 0.36) rotate(-6.29)" fill="#fff"/><ellipse cx="5.17" cy="5.16" rx="0.22" ry="0.69" transform="translate(-0.53 0.6) rotate(-6.29)" fill="#fff"/><ellipse cx="8.57" cy="5.98" rx="0.22" ry="0.69" transform="translate(-1.54 8.62) rotate(-49.57)" fill="#fff"/><ellipse cx="6.49" cy="4.58" rx="0.73" ry="0.21" transform="translate(-1.27 6.27) rotate(-47.5)" fill="#fff"/><ellipse cx="6.88" cy="4.64" rx="0.73" ry="0.21" transform="translate(-1.19 6.58) rotate(-47.5)" fill="#fff"/><ellipse cx="7.51" cy="3.55" rx="0.73" ry="0.21" transform="translate(-0.18 6.69) rotate(-47.5)" fill="#fff"/><ellipse cx="7.91" cy="4.58" rx="0.24" ry="0.65" transform="translate(0.03 9.21) rotate(-60.5)" fill="#fff"/><ellipse cx="6.49" cy="3.8" rx="0.22" ry="0.69" transform="translate(-0.61 6.28) rotate(-49.57)" fill="#fff"/><ellipse cx="7.22" cy="4.64" rx="0.22" ry="0.69" transform="translate(-0.99 7.12) rotate(-49.57)" fill="#fff"/><ellipse cx="7.86" cy="3.96" rx="0.22" ry="0.69" transform="translate(-0.25 7.38) rotate(-49.57)" fill="#fff"/><ellipse cx="7.04" cy="3.47" rx="0.22" ry="0.69" transform="translate(-0.17 6.58) rotate(-49.57)" fill="#fff"/><ellipse cx="6.1" cy="4.29" rx="0.22" ry="0.69" transform="translate(-1.12 6.15) rotate(-49.57)" fill="#fff"/><ellipse cx="8.6" cy="4.7" rx="0.73" ry="0.21" transform="translate(-0.67 7.86) rotate(-47.5)" fill="#fff"/><ellipse cx="8.99" cy="4.75" rx="0.73" ry="0.21" transform="matrix(0.68, -0.74, 0.74, 0.68, -0.59, 8.17)" fill="#fff"/><ellipse cx="9.62" cy="3.67" rx="0.73" ry="0.21" transform="translate(0.42 8.28) rotate(-47.5)" fill="#fff"/><ellipse cx="10.02" cy="4.7" rx="0.24" ry="0.65" transform="translate(1 11.11) rotate(-60.5)" fill="#fff"/><ellipse cx="8.6" cy="3.92" rx="0.22" ry="0.69" transform="translate(0.04 7.92) rotate(-49.57)" fill="#fff"/><ellipse cx="9.32" cy="4.75" rx="0.22" ry="0.69" transform="translate(-0.34 8.77) rotate(-49.57)" fill="#fff"/><ellipse cx="9.97" cy="4.07" rx="0.22" ry="0.69" transform="translate(0.4 9.02) rotate(-49.57)" fill="#fff"/><ellipse cx="9.15" cy="3.59" rx="0.22" ry="0.69" transform="translate(0.48 8.22) rotate(-49.57)" fill="#fff"/><ellipse cx="8.21" cy="4.4" rx="0.22" ry="0.69" transform="translate(-0.47 7.8) rotate(-49.57)" fill="#fff"/><ellipse cx="2.64" cy="4.5" rx="0.73" ry="0.21" transform="translate(-2.46 3.4) rotate(-47.5)" fill="#fff"/><ellipse cx="3.02" cy="4.56" rx="0.73" ry="0.21" transform="translate(-2.38 3.71) rotate(-47.5)" fill="#fff"/><ellipse cx="3.66" cy="3.47" rx="0.73" ry="0.21" transform="translate(-1.37 3.82) rotate(-47.5)" fill="#fff"/><ellipse cx="4.06" cy="4.5" rx="0.24" ry="0.65" transform="translate(-1.86 5.82) rotate(-60.5)" fill="#fff"/><ellipse cx="2.64" cy="3.72" rx="0.22" ry="0.69" transform="translate(-1.91 3.32) rotate(-49.57)" fill="#fff"/><ellipse cx="1.69" cy="4.35" rx="0.69" ry="0.22" transform="translate(-2.58 2.47) rotate(-44.98)" fill="#fff"/><ellipse cx="3.36" cy="4.56" rx="0.22" ry="0.69" transform="translate(-2.29 4.16) rotate(-49.57)" fill="#fff"/><ellipse cx="4.01" cy="3.88" rx="0.22" ry="0.69" transform="translate(-1.54 4.42) rotate(-49.57)" fill="#fff"/><ellipse cx="3.19" cy="3.39" rx="0.22" ry="0.69" transform="translate(-1.46 3.62) rotate(-49.57)" fill="#fff"/><ellipse cx="2.25" cy="4.21" rx="0.22" ry="0.69" transform="translate(-2.41 3.19) rotate(-49.57)" fill="#fff"/><ellipse cx="4.75" cy="4.62" rx="0.73" ry="0.21" transform="translate(-1.87 5) rotate(-47.5)" fill="#fff"/><ellipse cx="5.13" cy="4.68" rx="0.73" ry="0.21" transform="translate(-1.78 5.3) rotate(-47.5)" fill="#fff"/><ellipse cx="5.77" cy="3.59" rx="0.73" ry="0.21" transform="translate(-0.77 5.42) rotate(-47.5)" fill="#fff"/><ellipse cx="6.17" cy="4.62" rx="0.24" ry="0.65" transform="translate(-0.89 7.71) rotate(-60.5)" fill="#fff"/><ellipse cx="4.75" cy="3.84" rx="0.22" ry="0.69" transform="translate(-1.26 4.96) rotate(-49.57)" fill="#fff"/><ellipse cx="5.47" cy="4.68" rx="0.22" ry="0.69" transform="translate(-1.64 5.81) rotate(-49.57)" fill="#fff"/><ellipse cx="6.12" cy="4" rx="0.22" ry="0.69" transform="translate(-0.89 6.06) rotate(-49.57)" fill="#fff"/><ellipse cx="5.29" cy="3.51" rx="0.22" ry="0.69" transform="translate(-0.81 5.26) rotate(-49.57)" fill="#fff"/><ellipse cx="4.36" cy="4.33" rx="0.22" ry="0.69" transform="translate(-1.76 4.84) rotate(-49.57)" fill="#fff"/><ellipse cx="8.55" cy="4.46" rx="0.73" ry="0.21" transform="translate(-0.52 7.75) rotate(-47.5)" fill="#fff"/><ellipse cx="8.94" cy="4.52" rx="0.73" ry="0.21" transform="translate(-0.43 8.06) rotate(-47.5)" fill="#fff"/><ellipse cx="9.57" cy="3.43" rx="0.73" ry="0.21" transform="translate(0.57 8.17) rotate(-47.5)" fill="#fff"/><ellipse cx="9.97" cy="4.46" rx="0.24" ry="0.65" transform="translate(1.18 10.94) rotate(-60.5)" fill="#fff"/><ellipse cx="8.55" cy="3.69" rx="0.22" ry="0.69" transform="translate(0.2 7.8) rotate(-49.57)" fill="#fff"/><ellipse cx="9.27" cy="4.52" rx="0.22" ry="0.69" transform="translate(-0.18 8.65) rotate(-49.57)" fill="#fff"/><ellipse cx="9.92" cy="3.84" rx="0.22" ry="0.69" transform="translate(0.56 8.9) rotate(-49.57)" fill="#fff"/><ellipse cx="9.1" cy="3.35" rx="0.22" ry="0.69" transform="matrix(0.65, -0.76, 0.76, 0.65, 0.64, 8.1)" fill="#fff"/><ellipse cx="8.16" cy="4.17" rx="0.22" ry="0.69" transform="translate(-0.31 7.68) rotate(-49.57)" fill="#fff"/><ellipse cx="4.72" cy="3.2" rx="0.22" ry="0.69" transform="translate(-0.32 0.54) rotate(-6.29)" fill="#fff"/><ellipse cx="6.88" cy="3.47" rx="0.22" ry="0.69" transform="translate(-0.34 0.77) rotate(-6.29)" fill="#fff"/><ellipse cx="10.27" cy="4.29" rx="0.22" ry="0.69" transform="translate(0.35 9.33) rotate(-49.57)" fill="#fff"/><ellipse cx="7.76" cy="3.01" rx="0.73" ry="0.21" transform="translate(0.3 6.7) rotate(-47.5)" fill="#fff"/><ellipse cx="8.15" cy="3.06" rx="0.73" ry="0.21" transform="translate(0.38 7) rotate(-47.5)" fill="#fff"/><ellipse cx="8.78" cy="1.98" rx="0.73" ry="0.21" transform="translate(1.39 7.12) rotate(-47.5)" fill="#fff"/><ellipse cx="9.18" cy="3.01" rx="0.24" ry="0.65" transform="translate(2.04 9.52) rotate(-60.5)" fill="#fff"/><ellipse cx="7.76" cy="2.23" rx="0.22" ry="0.69" transform="translate(1.03 6.69) rotate(-49.57)" fill="#fff"/><ellipse cx="8.48" cy="3.06" rx="0.22" ry="0.69" transform="translate(0.65 7.53) rotate(-49.57)" fill="#fff"/><ellipse cx="9.13" cy="2.38" rx="0.22" ry="0.69" transform="translate(1.39 7.79) rotate(-49.57)" fill="#fff"/><ellipse cx="8.31" cy="1.9" rx="0.22" ry="0.69" transform="translate(1.47 6.99) rotate(-49.57)" fill="#fff"/><ellipse cx="7.37" cy="2.71" rx="0.22" ry="0.69" transform="translate(0.52 6.57) rotate(-49.57)" fill="#fff"/><ellipse cx="9.48" cy="2.83" rx="0.22" ry="0.69" transform="translate(1.18 8.21) rotate(-49.57)" fill="#fff"/><ellipse cx="3.9" cy="2.93" rx="0.73" ry="0.21" transform="translate(-0.89 3.83) rotate(-47.5)" fill="#fff"/><ellipse cx="4.29" cy="2.99" rx="0.73" ry="0.21" transform="translate(-0.81 4.13) rotate(-47.5)" fill="#fff"/><ellipse cx="4.93" cy="1.9" rx="0.73" ry="0.21" transform="translate(0.2 4.25) rotate(-47.5)" fill="#fff"/><ellipse cx="5.33" cy="2.93" rx="0.24" ry="0.65" transform="translate(0.15 6.12) rotate(-60.5)" fill="#fff"/><ellipse cx="3.9" cy="2.15" rx="0.22" ry="0.69" transform="translate(-0.27 3.73) rotate(-49.57)" fill="#fff"/><ellipse cx="4.63" cy="2.99" rx="0.22" ry="0.69" transform="translate(-0.65 4.57) rotate(-49.57)" fill="#fff"/><ellipse cx="5.28" cy="2.31" rx="0.22" ry="0.69" transform="translate(0.1 4.83) rotate(-49.57)" fill="#fff"/><ellipse cx="4.45" cy="1.82" rx="0.22" ry="0.69" transform="translate(0.18 4.03) rotate(-49.57)" fill="#fff"/><ellipse cx="3.52" cy="2.64" rx="0.22" ry="0.69" transform="translate(-0.77 3.6) rotate(-49.57)" fill="#fff"/><ellipse cx="6.01" cy="3.05" rx="0.73" ry="0.21" transform="translate(-0.29 5.42) rotate(-47.5)" fill="#fff"/><ellipse cx="6.4" cy="3.1" rx="0.73" ry="0.21" transform="translate(-0.21 5.72) rotate(-47.5)" fill="#fff"/><ellipse cx="7.04" cy="2.02" rx="0.73" ry="0.21" transform="translate(0.8 5.84) rotate(-47.5)" fill="#fff"/><ellipse cx="7.43" cy="3.05" rx="0.24" ry="0.65" transform="translate(1.12 8.02) rotate(-60.5)" fill="#fff"/><ellipse cx="6.01" cy="2.27" rx="0.22" ry="0.69" transform="translate(0.39 5.37) rotate(-49.57)" fill="#fff"/><ellipse cx="6.74" cy="3.1" rx="0.22" ry="0.69" transform="translate(0.01 6.22) rotate(-49.57)" fill="#fff"/><ellipse cx="7.38" cy="2.42" rx="0.22" ry="0.69" transform="translate(0.75 6.47) rotate(-49.57)" fill="#fff"/><ellipse cx="6.56" cy="1.94" rx="0.22" ry="0.69" transform="translate(0.83 5.68) rotate(-49.57)" fill="#fff"/><ellipse cx="5.63" cy="2.75" rx="0.22" ry="0.69" transform="translate(-0.12 5.25) rotate(-49.57)" fill="#fff"/><ellipse cx="9.43" cy="2.6" rx="0.22" ry="0.69" transform="translate(1.34 8.09) rotate(-49.57)" fill="#fff"/><ellipse cx="5.98" cy="1.63" rx="0.22" ry="0.69" transform="translate(-0.14 0.67) rotate(-6.29)" fill="#fff"/><ellipse cx="8.15" cy="1.9" rx="0.22" ry="0.69" transform="translate(-0.16 0.9) rotate(-6.29)" fill="#fff"/><ellipse cx="6.19" cy="0.66" rx="0.73" ry="0.21" transform="translate(1.53 4.78) rotate(-47.61)" fill="#fff"/><ellipse cx="5.8" cy="0.6" rx="0.73" ry="0.21" transform="translate(1.45 4.48) rotate(-47.61)" fill="#fff"/><ellipse cx="5.17" cy="1.69" rx="0.73" ry="0.21" transform="translate(0.44 4.37) rotate(-47.61)" fill="#fff"/><ellipse cx="4.77" cy="0.66" rx="0.24" ry="0.65" transform="translate(1.85 4.49) rotate(-60.61)" fill="#fff"/><ellipse cx="6.19" cy="1.43" rx="0.22" ry="0.69" transform="translate(1.09 5.22) rotate(-49.67)" fill="#fff"/><ellipse cx="5.46" cy="0.6" rx="0.22" ry="0.69" transform="translate(1.47 4.38) rotate(-49.67)" fill="#fff"/><ellipse cx="4.82" cy="1.28" rx="0.22" ry="0.69" transform="translate(0.72 4.12) rotate(-49.67)" fill="#fff"/><ellipse cx="5.64" cy="1.76" rx="0.22" ry="0.69" transform="translate(0.65 4.92) rotate(-49.67)" fill="#fff"/><ellipse cx="6.57" cy="0.95" rx="0.22" ry="0.69" transform="translate(1.6 5.35) rotate(-49.67)" fill="#fff"/><ellipse cx="4.47" cy="0.83" rx="0.22" ry="0.69" transform="translate(0.94 3.7) rotate(-49.67)" fill="#fff"/><ellipse cx="7.93" cy="0.61" rx="0.73" ry="0.21" transform="translate(2.13 6.06) rotate(-47.61)" fill="#fff"/><ellipse cx="7.55" cy="0.56" rx="0.73" ry="0.21" transform="translate(2.05 5.76) rotate(-47.61)" fill="#fff"/><ellipse cx="6.91" cy="1.65" rx="0.73" ry="0.21" transform="translate(1.04 5.64) rotate(-47.61)" fill="#fff"/><ellipse cx="6.51" cy="0.62" rx="0.24" ry="0.65" transform="translate(2.78 5.99) rotate(-60.61)" fill="#fff"/><ellipse cx="7.94" cy="1.39" rx="0.22" ry="0.69" transform="translate(1.74 6.54) rotate(-49.67)" fill="#fff"/><ellipse cx="7.21" cy="0.56" rx="0.22" ry="0.69" transform="translate(2.12 5.69) rotate(-49.67)" fill="#fff"/><ellipse cx="6.56" cy="1.24" rx="0.22" ry="0.69" transform="translate(1.37 5.44) rotate(-49.67)" fill="#fff"/><ellipse cx="7.39" cy="1.72" rx="0.22" ry="0.69" transform="translate(1.29 6.24) rotate(-49.67)" fill="#fff"/><ellipse cx="4.52" cy="1.07" rx="0.22" ry="0.69" transform="translate(0.78 3.82) rotate(-49.67)" fill="#fff"/><ellipse cx="7.97" cy="2.03" rx="0.22" ry="0.69" transform="translate(-0.18 0.9) rotate(-6.4)" fill="#fff"/><ellipse cx="5.8" cy="1.76" rx="0.22" ry="0.69" transform="translate(-0.16 0.66) rotate(-6.4)" fill="#fff"/></svg>