<svg xmlns="http://www.w3.org/2000/svg" width="10.51" height="14.21" viewBox="0 0 10.51 14.21"><title>Ресурс 17</title><g style="isolation:isolate"><path d="M8.82,4.63a2.94,2.94,0,0,0-3.56-.17,2.94,2.94,0,0,0-3.56.17A3.67,3.67,0,0,0,.48,7.94a5.74,5.74,0,0,0,1.7,3.4,10,10,0,0,0,3.08,2.38,10.1,10.1,0,0,0,3.08-2.38A5.73,5.73,0,0,0,10,7.94,3.69,3.69,0,0,0,8.82,4.63Z" fill="#ff3426"/><path d="M5.26,14.21l-.17-.07a10.39,10.39,0,0,1-3.24-2.48A6.23,6.23,0,0,1,0,8,4.15,4.15,0,0,1,1.4,4.29a3.4,3.4,0,0,1,3.86-.37,3.4,3.4,0,0,1,3.86.37h0A4.17,4.17,0,0,1,10.48,8a6.23,6.23,0,0,1-1.82,3.67,10.35,10.35,0,0,1-3.23,2.48ZM3.6,4.39A2.44,2.44,0,0,0,2,5,3.22,3.22,0,0,0,.93,7.89,5.33,5.33,0,0,0,2.5,11a10.58,10.58,0,0,0,2.76,2.2A10.54,10.54,0,0,0,8,11,5.33,5.33,0,0,0,9.58,7.89,3.24,3.24,0,0,0,8.52,5h0a2.49,2.49,0,0,0-3-.15L5.26,5,5,4.82A2.41,2.41,0,0,0,3.6,4.39Z" fill="#cb0000"/><path d="M.7,7.74a.41.41,0,0,1-.41-.39.43.43,0,0,1,.39-.44l2.87-.18c-1-.48-2.08-1-2.28-1.11a.39.39,0,0,1-.14-.08A.4.4,0,0,1,1.07,5c.22-.28.22-.28,2.42.82l1.7.85h0l.21.1h0l.06,0a.42.42,0,0,1,.11.56A.4.4,0,0,1,5,7.47H5L.73,7.74Z" fill="#ff9a47"/><path d="M2.51,11.72a.38.38,0,0,1-.28-.11.4.4,0,0,1,0-.58L4.1,9l-2.86.7a.41.41,0,0,1-.2-.8L6.61,7.54l-3.8,4.05A.39.39,0,0,1,2.51,11.72Z" fill="#ff9a47"/><path d="M3.93,13.09a.47.47,0,0,1-.17,0,.42.42,0,0,1-.21-.55L5.23,8.81,2.76,4.36a.41.41,0,0,1,.16-.56A.42.42,0,0,1,3.49,4L6.16,8.77,4.31,12.84A.41.41,0,0,1,3.93,13.09Z" fill="#ff9a47"/><path d="M9.84,7.74h0L5.52,7.47h0A.4.4,0,0,1,5,7.32L4.77,7l.32-.22,0,0h0l.21-.1,1.7-.85c2.2-1.1,2.2-1.1,2.43-.82a.42.42,0,0,1-.06.58.55.55,0,0,1-.15.08C9.07,5.7,8,6.25,7,6.73l2.88.18a.42.42,0,0,1,.38.44A.41.41,0,0,1,9.84,7.74Z" fill="#ff9a47"/><path d="M8,11.72a.39.39,0,0,1-.3-.13l-3.8-4L9.5,8.91a.41.41,0,1,1-.2.8L6.44,9l1.89,2a.41.41,0,0,1-.3.69Z" fill="#ff9a47"/><path d="M6.61,13.09a.41.41,0,0,1-.37-.25L4.39,8.77,7.06,4a.41.41,0,0,1,.72.4L5.31,8.81,7,12.5a.42.42,0,0,1-.21.55A.47.47,0,0,1,6.61,13.09Z" fill="#ff9a47"/><path d="M5.26,12.81a9.59,9.59,0,0,1-2.09-2A5.32,5.32,0,0,1,1.94,7.85a3.19,3.19,0,0,1,.79-2.6,1.55,1.55,0,0,1,1.14-.48,1.45,1.45,0,0,1,1,.36l.42.36.41-.36a1.48,1.48,0,0,1,1-.36,1.56,1.56,0,0,1,1.14.48,3.19,3.19,0,0,1,.79,2.6,5.4,5.4,0,0,1-1.23,2.92A9.82,9.82,0,0,1,5.26,12.81Z" fill="#ff9a47"/><path d="M5.26,6.51l-1-.74-1.15.74.19,2.32,1.81,4h.27S7.58,7.6,7.58,7.5s-.4-1.73-.4-1.73Z" fill="#ff9a47"/><path d="M7.53,5.66A2.2,2.2,0,0,0,5.26,5,2.19,2.19,0,0,0,3,5.66a2.91,2.91,0,0,0-.38,2.41,9,9,0,0,0,1.05,2.29l1.46,2.49c-.56-1.72-1-3.42-1.54-5.15-.65-2.08,1-1.32,1.68-1.19.62-.13,2.32-.89,1.67,1.19-.53,1.73-1,3.43-1.54,5.15l1.46-2.49A8.32,8.32,0,0,0,7.9,8.07,2.91,2.91,0,0,0,7.53,5.66Z" fill="#ffedce"/><path d="M6.15,9.2a7.75,7.75,0,0,1-.91,2.7,7.7,7.7,0,0,1-.92-2.7c0-1,.41-1.87.92-1.87S6.15,8.17,6.15,9.2Z" fill="red"/><g opacity="0.5" style="mix-blend-mode:multiply"><path d="M8.82,4.63a3,3,0,0,0-3.55-.18v9.27a10.06,10.06,0,0,0,3.07-2.38A5.73,5.73,0,0,0,10,7.94,3.69,3.69,0,0,0,8.82,4.63Z" fill="#ff9a47"/></g><path d="M9.84,0a4.21,4.21,0,0,0-3,1.11A4.16,4.16,0,0,0,5.52,4C7.64,3.67,9.63,2,9.84,0Z" fill="#5ab012"/><path d="M6.13,5.21A3.64,3.64,0,0,1,5.48,3,6.55,6.55,0,0,1,5.79.78h-1A6.31,6.31,0,0,1,5.05,3,3.57,3.57,0,0,1,4.4,5.21Z" fill="#5ab012"/></g></svg>